<?xml version="1.0" encoding="UTF-8" standalone="no"?>
<!-- Created with Inkscape (http://www.inkscape.org/) -->

<svg
   xmlns:dc="http://purl.org/dc/elements/1.1/"
   xmlns:cc="http://creativecommons.org/ns#"
   xmlns:rdf="http://www.w3.org/1999/02/22-rdf-syntax-ns#"
   xmlns:svg="http://www.w3.org/2000/svg"
   xmlns="http://www.w3.org/2000/svg"
   xmlns:sodipodi="http://sodipodi.sourceforge.net/DTD/sodipodi-0.dtd"
   xmlns:inkscape="http://www.inkscape.org/namespaces/inkscape"
   id="svg2985"
   version="1.1"
   inkscape:version="0.48.5 r10040"
   width="585.90002"
   height="337.04999"
   xml:space="preserve"
   sodipodi:docname="Doc5.pdf"><metadata
     id="metadata2991"><rdf:RDF><cc:Work
         rdf:about=""><dc:format>image/svg+xml</dc:format><dc:type
           rdf:resource="http://purl.org/dc/dcmitype/StillImage" /><dc:title></dc:title></cc:Work></rdf:RDF></metadata><defs
     id="defs2989"><clipPath
       clipPathUnits="userSpaceOnUse"
       id="clipPath3007"><path
         d="m 72,450.72 468,0 0,269.28 -468,0 0,-269.28 z"
         clip-rule="evenodd"
         id="path3009"
         inkscape:connector-curvature="0" /></clipPath><clipPath
       clipPathUnits="userSpaceOnUse"
       id="clipPath3019"><path
         d="m 72,450.72 468,0 0,269.28 -468,0 0,-269.28 z"
         clip-rule="evenodd"
         id="path3021"
         inkscape:connector-curvature="0" /></clipPath><clipPath
       clipPathUnits="userSpaceOnUse"
       id="clipPath3031"><path
         d="m 72,450.72 468,0 0,269.28 -468,0 0,-269.28 z"
         clip-rule="evenodd"
         id="path3033"
         inkscape:connector-curvature="0" /></clipPath><clipPath
       clipPathUnits="userSpaceOnUse"
       id="clipPath3043"><path
         d="m 72,450.72 468,0 0,269.28 -468,0 0,-269.28 z"
         clip-rule="evenodd"
         id="path3045"
         inkscape:connector-curvature="0" /></clipPath><clipPath
       clipPathUnits="userSpaceOnUse"
       id="clipPath3055"><path
         d="m 72,450.72 468,0 0,269.28 -468,0 0,-269.28 z"
         clip-rule="evenodd"
         id="path3057"
         inkscape:connector-curvature="0" /></clipPath><clipPath
       clipPathUnits="userSpaceOnUse"
       id="clipPath3067"><path
         d="m 72,450.72 468,0 0,269.28 -468,0 0,-269.28 z"
         clip-rule="evenodd"
         id="path3069"
         inkscape:connector-curvature="0" /></clipPath><clipPath
       clipPathUnits="userSpaceOnUse"
       id="clipPath3079"><path
         d="m 72,450.72 468,0 0,269.28 -468,0 0,-269.28 z"
         clip-rule="evenodd"
         id="path3081"
         inkscape:connector-curvature="0" /></clipPath><clipPath
       clipPathUnits="userSpaceOnUse"
       id="clipPath3091"><path
         d="m 72,450.72 468,0 0,269.28 -468,0 0,-269.28 z"
         clip-rule="evenodd"
         id="path3093"
         inkscape:connector-curvature="0" /></clipPath><clipPath
       clipPathUnits="userSpaceOnUse"
       id="clipPath3103"><path
         d="m 72,450.72 468,0 0,269.28 -468,0 0,-269.28 z"
         clip-rule="evenodd"
         id="path3105"
         inkscape:connector-curvature="0" /></clipPath><clipPath
       clipPathUnits="userSpaceOnUse"
       id="clipPath3115"><path
         d="m 72,450.72 468,0 0,269.28 -468,0 0,-269.28 z"
         clip-rule="evenodd"
         id="path3117"
         inkscape:connector-curvature="0" /></clipPath><clipPath
       clipPathUnits="userSpaceOnUse"
       id="clipPath3127"><path
         d="m 72,450.72 468,0 0,269.28 -468,0 0,-269.28 z"
         clip-rule="evenodd"
         id="path3129"
         inkscape:connector-curvature="0" /></clipPath><clipPath
       clipPathUnits="userSpaceOnUse"
       id="clipPath3139"><path
         d="m 72,450.72 468,0 0,269.28 -468,0 0,-269.28 z"
         clip-rule="evenodd"
         id="path3141"
         inkscape:connector-curvature="0" /></clipPath><clipPath
       clipPathUnits="userSpaceOnUse"
       id="clipPath3151"><path
         d="m 72,450.72 468,0 0,269.28 -468,0 0,-269.28 z"
         clip-rule="evenodd"
         id="path3153"
         inkscape:connector-curvature="0" /></clipPath><clipPath
       clipPathUnits="userSpaceOnUse"
       id="clipPath3163"><path
         d="m 72,450.72 468,0 0,269.28 -468,0 0,-269.28 z"
         clip-rule="evenodd"
         id="path3165"
         inkscape:connector-curvature="0" /></clipPath><clipPath
       clipPathUnits="userSpaceOnUse"
       id="clipPath3175"><path
         d="m 72,450.72 468,0 0,269.28 -468,0 0,-269.28 z"
         clip-rule="evenodd"
         id="path3177"
         inkscape:connector-curvature="0" /></clipPath><clipPath
       clipPathUnits="userSpaceOnUse"
       id="clipPath3187"><path
         d="m 72,450.72 468,0 0,269.28 -468,0 0,-269.28 z"
         clip-rule="evenodd"
         id="path3189"
         inkscape:connector-curvature="0" /></clipPath><clipPath
       clipPathUnits="userSpaceOnUse"
       id="clipPath3199"><path
         d="m 72,450.72 468,0 0,269.28 -468,0 0,-269.28 z"
         clip-rule="evenodd"
         id="path3201"
         inkscape:connector-curvature="0" /></clipPath><clipPath
       clipPathUnits="userSpaceOnUse"
       id="clipPath3211"><path
         d="m 72,450.72 468,0 0,269.28 -468,0 0,-269.28 z"
         clip-rule="evenodd"
         id="path3213"
         inkscape:connector-curvature="0" /></clipPath><clipPath
       clipPathUnits="userSpaceOnUse"
       id="clipPath3223"><path
         d="M -2.039e-6,440.88 612,440.88 612,720 -2.039e-6,720 l 0,-279.12 z"
         clip-rule="evenodd"
         id="path3225"
         inkscape:connector-curvature="0" /></clipPath></defs><sodipodi:namedview
     pagecolor="#ffffff"
     bordercolor="#666666"
     borderopacity="1"
     objecttolerance="10"
     gridtolerance="10"
     guidetolerance="10"
     inkscape:pageopacity="0"
     inkscape:pageshadow="2"
     inkscape:window-width="640"
     inkscape:window-height="480"
     id="namedview2987"
     showgrid="false"
     fit-margin-top="0"
     fit-margin-left="0"
     fit-margin-right="0"
     fit-margin-bottom="0"
     inkscape:zoom="0.23838384"
     inkscape:cx="292.95"
     inkscape:cy="-67.95"
     inkscape:window-x="0"
     inkscape:window-y="0"
     inkscape:window-maximized="0"
     inkscape:current-layer="g2993" /><g
     id="g2993"
     inkscape:groupmode="layer"
     inkscape:label="Doc5"
     transform="matrix(1.25,0,0,-1.25,-89.55,900)"><path
       d="m 72,450.72 468,0 0,269.28 -468,0 0,-269.28 z"
       style="fill:#ffffff;fill-opacity:1;fill-rule:evenodd;stroke:none"
       id="path2995"
       inkscape:connector-curvature="0" /><path
       d="m 133.08,513.12 395.88,0 m -395.88,28.32 395.88,0 m -395.88,28.32 395.88,0 m -395.88,28.32 395.88,0 m -395.88,28.2 395.88,0 m -395.88,28.32 395.88,0 m -395.88,28.32 395.88,0"
       style="fill:none;stroke:#d9d9d9;stroke-width:0.72000003;stroke-linecap:butt;stroke-linejoin:round;stroke-miterlimit:10;stroke-opacity:1;stroke-dasharray:none"
       id="path2997"
       inkscape:connector-curvature="0" /><path
       d="m 155.76,635.76 20.64,0 0,-150.84 -20.64,0 0,150.84 z m 66,-129.6 20.64,0 0,-21.24 -20.64,0 0,21.24 z m 66,134.76 20.64,0 0,-156 -20.64,0 0,156 z m 65.88,13.8 20.76,0 0,-169.8 -20.76,0 0,169.8 z m 66,5.16 20.76,0 0,-174.96 -20.76,0 0,174.96 z m 66,17.28 20.76,0 0,-192.24 -20.76,0 0,192.24 z"
       style="fill:#5b9bd5;fill-opacity:1;fill-rule:nonzero;stroke:none"
       id="path2999"
       inkscape:connector-curvature="0" /><path
       d="m 133.08,484.92 395.88,0"
       style="fill:none;stroke:#d9d9d9;stroke-width:0.72000003;stroke-linecap:butt;stroke-linejoin:round;stroke-miterlimit:10;stroke-opacity:1;stroke-dasharray:none"
       id="path3001"
       inkscape:connector-curvature="0" /><g
       id="g3003"><g
         id="g3005"
         clip-path="url(#clipPath3007)"><text
           transform="matrix(1,0,0,-1,99.72,482.3)"
           id="text3011"><tspan
             style="font-size:9px;font-variant:normal;font-weight:normal;writing-mode:lr-tb;fill:#595959;fill-opacity:1;fill-rule:nonzero;stroke:none;font-family:Calibri;-inkscape-font-specification:Calibri"
             x="0 4.5630002 6.8130002 11.376 15.939 20.502001"
             y="0"
             sodipodi:role="line"
             id="tspan3013">0,2430</tspan></text>
</g></g><g
       id="g3015"><g
         id="g3017"
         clip-path="url(#clipPath3019)"><text
           transform="matrix(1,0,0,-1,99.72,510.6)"
           id="text3023"><tspan
             style="font-size:9px;font-variant:normal;font-weight:normal;writing-mode:lr-tb;fill:#595959;fill-opacity:1;fill-rule:nonzero;stroke:none;font-family:Calibri;-inkscape-font-specification:Calibri"
             x="0 4.5630002 6.8130002 11.376 15.939 20.502001"
             y="0"
             sodipodi:role="line"
             id="tspan3025">0,2440</tspan></text>
</g></g><g
       id="g3027"><g
         id="g3029"
         clip-path="url(#clipPath3031)"><text
           transform="matrix(1,0,0,-1,99.72,538.9)"
           id="text3035"><tspan
             style="font-size:9px;font-variant:normal;font-weight:normal;writing-mode:lr-tb;fill:#595959;fill-opacity:1;fill-rule:nonzero;stroke:none;font-family:Calibri;-inkscape-font-specification:Calibri"
             x="0 4.5630002 6.8130002 11.376 15.939 20.502001"
             y="0"
             sodipodi:role="line"
             id="tspan3037">0,2450</tspan></text>
</g></g><g
       id="g3039"><g
         id="g3041"
         clip-path="url(#clipPath3043)"><text
           transform="matrix(1,0,0,-1,99.72,567.19)"
           id="text3047"><tspan
             style="font-size:9px;font-variant:normal;font-weight:normal;writing-mode:lr-tb;fill:#595959;fill-opacity:1;fill-rule:nonzero;stroke:none;font-family:Calibri;-inkscape-font-specification:Calibri"
             x="0 4.5630002 6.8130002 11.376 15.939 20.502001"
             y="0"
             sodipodi:role="line"
             id="tspan3049">0,2460</tspan></text>
</g></g><g
       id="g3051"><g
         id="g3053"
         clip-path="url(#clipPath3055)"><text
           transform="matrix(1,0,0,-1,99.72,595.49)"
           id="text3059"><tspan
             style="font-size:9px;font-variant:normal;font-weight:normal;writing-mode:lr-tb;fill:#595959;fill-opacity:1;fill-rule:nonzero;stroke:none;font-family:Calibri;-inkscape-font-specification:Calibri"
             x="0 4.5630002 6.8130002 11.376 15.939 20.502001"
             y="0"
             sodipodi:role="line"
             id="tspan3061">0,2470</tspan></text>
</g></g><g
       id="g3063"><g
         id="g3065"
         clip-path="url(#clipPath3067)"><text
           transform="matrix(1,0,0,-1,99.72,623.78)"
           id="text3071"><tspan
             style="font-size:9px;font-variant:normal;font-weight:normal;writing-mode:lr-tb;fill:#595959;fill-opacity:1;fill-rule:nonzero;stroke:none;font-family:Calibri;-inkscape-font-specification:Calibri"
             x="0 4.5630002 6.8130002 11.376 15.939 20.502001"
             y="0"
             sodipodi:role="line"
             id="tspan3073">0,2480</tspan></text>
</g></g><g
       id="g3075"><g
         id="g3077"
         clip-path="url(#clipPath3079)"><text
           transform="matrix(1,0,0,-1,99.72,652.08)"
           id="text3083"><tspan
             style="font-size:9px;font-variant:normal;font-weight:normal;writing-mode:lr-tb;fill:#595959;fill-opacity:1;fill-rule:nonzero;stroke:none;font-family:Calibri;-inkscape-font-specification:Calibri"
             x="0 4.5630002 6.8130002 11.376 15.939 20.502001"
             y="0"
             sodipodi:role="line"
             id="tspan3085">0,2490</tspan></text>
</g></g><g
       id="g3087"><g
         id="g3089"
         clip-path="url(#clipPath3091)"><text
           transform="matrix(1,0,0,-1,99.72,680.35)"
           id="text3095"><tspan
             style="font-size:9px;font-variant:normal;font-weight:normal;writing-mode:lr-tb;fill:#595959;fill-opacity:1;fill-rule:nonzero;stroke:none;font-family:Calibri;-inkscape-font-specification:Calibri"
             x="0 4.5630002 6.8130002 11.376 15.939 20.502001"
             y="0"
             sodipodi:role="line"
             id="tspan3097">0,2500</tspan></text>
</g></g><g
       id="g3099"><g
         id="g3101"
         clip-path="url(#clipPath3103)"><text
           transform="matrix(1,0,0,-1,139.22,470.59)"
           id="text3107"><tspan
             style="font-size:9px;font-variant:normal;font-weight:normal;writing-mode:lr-tb;fill:#595959;fill-opacity:1;fill-rule:nonzero;stroke:none;font-family:Calibri;-inkscape-font-specification:Calibri"
             x="0 4.0770001 7.191 10.332 14.994 22.184999 24.254999 27.341999 31.778999 34.919998 39.230999 42.219002 44.262001 49.049999"
             y="0"
             sodipodi:role="line"
             id="tspan3109">Stromiteration</tspan></text>
</g></g><g
       id="g3111"><g
         id="g3113"
         clip-path="url(#clipPath3115)"><text
           transform="matrix(1,0,0,-1,200.66,470.59)"
           id="text3119"><tspan
             style="font-size:9px;font-variant:normal;font-weight:normal;writing-mode:lr-tb;fill:#595959;fill-opacity:1;fill-rule:nonzero;stroke:none;font-family:Calibri;-inkscape-font-specification:Calibri"
             x="0 5.7600002 10.314 16.677 19.791 24.471001 29.150999 31.184999 36.098999 40.41 45.098999 49.887001 53.369999 58.158001"
             y="0"
             sodipodi:role="line"
             id="tspan3121">Newton Raphson</tspan></text>
</g></g><g
       id="g3123"><g
         id="g3125"
         clip-path="url(#clipPath3127)"><text
           transform="matrix(1,0,0,-1,268.63,470.59)"
           id="text3131"><tspan
             style="font-size:9px;font-variant:normal;font-weight:normal;writing-mode:lr-tb;fill:#595959;fill-opacity:1;fill-rule:nonzero;stroke:none;font-family:Calibri;-inkscape-font-specification:Calibri"
             x="0 5.6339998 9.9540005 13.788 21.483 23.517 28.08 32.643002 34.676998 39.573002 41.643002 44.631001 46.665001 53.855999 55.925999"
             y="0"
             sodipodi:role="line"
             id="tspan3133">HELM 64 Bit mit</tspan></text>
</g></g><g
       id="g3135"><g
         id="g3137"
         clip-path="url(#clipPath3139)"><text
           transform="matrix(1,0,0,-1,271.22,459.62)"
           id="text3143"><tspan
             style="font-size:9px;font-variant:normal;font-weight:normal;writing-mode:lr-tb;fill:#595959;fill-opacity:1;fill-rule:nonzero;stroke:none;font-family:Calibri;-inkscape-font-specification:Calibri"
             x="0 4.0770001 7.191 10.332 14.994 22.184999 24.254999 27.341999 31.778999 34.919998 39.230999 42.219002 44.262001 49.049999"
             y="0"
             sodipodi:role="line"
             id="tspan3145">Stromiteration</tspan></text>
</g></g><g
       id="g3147"><g
         id="g3149"
         clip-path="url(#clipPath3151)"><text
           transform="matrix(1,0,0,-1,334.63,470.59)"
           id="text3155"><tspan
             style="font-size:9px;font-variant:normal;font-weight:normal;writing-mode:lr-tb;fill:#595959;fill-opacity:1;fill-rule:nonzero;stroke:none;font-family:Calibri;-inkscape-font-specification:Calibri"
             x="0 5.6339998 9.9540005 13.788 21.483 23.517 28.08 32.643002 34.676998 39.573002 41.643002 44.631001 46.665001 53.855999 55.925999"
             y="0"
             sodipodi:role="line"
             id="tspan3157">HELM 64 Bit mit</tspan></text>
</g></g><g
       id="g3159"><g
         id="g3161"
         clip-path="url(#clipPath3163)"><text
           transform="matrix(1,0,0,-1,332.3,459.62)"
           id="text3167"><tspan
             style="font-size:9px;font-variant:normal;font-weight:normal;writing-mode:lr-tb;fill:#595959;fill-opacity:1;fill-rule:nonzero;stroke:none;font-family:Calibri;-inkscape-font-specification:Calibri"
             x="0 5.7600002 10.314 16.677 19.791 24.471001 29.150999 31.905001 36.819 41.130001 45.819 50.606998 54.09 58.877998"
             y="0"
             sodipodi:role="line"
             id="tspan3169">Newton-Raphson</tspan></text>
</g></g><g
       id="g3171"><g
         id="g3173"
         clip-path="url(#clipPath3175)"><text
           transform="matrix(1,0,0,-1,405.5,470.59)"
           id="text3179"><tspan
             style="font-size:9px;font-variant:normal;font-weight:normal;writing-mode:lr-tb;fill:#595959;fill-opacity:1;fill-rule:nonzero;stroke:none;font-family:Calibri;-inkscape-font-specification:Calibri"
             x="0 5.6339998 9.9540005 13.788 21.483 23.517 28.08 32.643002 37.206001 39.240002 44.136002 46.206001"
             y="0"
             sodipodi:role="line"
             id="tspan3181">HELM 200 Bit</tspan></text>
</g></g><g
       id="g3183"><g
         id="g3185"
         clip-path="url(#clipPath3187)"><text
           transform="matrix(1,0,0,-1,469.22,470.59)"
           id="text3191"><tspan
             style="font-size:9px;font-variant:normal;font-weight:normal;writing-mode:lr-tb;fill:#595959;fill-opacity:1;fill-rule:nonzero;stroke:none;font-family:Calibri;-inkscape-font-specification:Calibri"
             x="0 5.6339998 9.9540005 13.788 21.483 23.517 28.08 32.643002 37.206001 41.769001 43.803001 48.699001 50.769001"
             y="0"
             sodipodi:role="line"
             id="tspan3193">HELM 2000 Bit</tspan></text>
</g></g><g
       id="g3195"><g
         id="g3197"
         clip-path="url(#clipPath3199)"><text
           transform="matrix(-4.4e-8,1,1,4.4e-8,94.008,572.62)"
           id="text3203"><tspan
             style="font-size:9.96000004px;font-variant:normal;font-weight:normal;writing-mode:lr-tb;fill:#595959;fill-opacity:1;fill-rule:nonzero;stroke:none;font-family:Calibri;-inkscape-font-specification:Calibri"
             x="0 5.1493201 7.43016 10.42812 19.292521"
             y="0"
             sodipodi:role="line"
             id="tspan3205">P [W]</tspan></text>
</g></g><g
       id="g3207"><g
         id="g3209"
         clip-path="url(#clipPath3211)"><text
           transform="matrix(1,0,0,-1,152.9,699.17)"
           id="text3215"><tspan
             style="font-size:14.03999996px;font-variant:normal;font-weight:normal;writing-mode:lr-tb;fill:#595959;fill-opacity:1;fill-rule:nonzero;stroke:none;font-family:Calibri;-inkscape-font-specification:Calibri"
             x="0 8.8592396 13.56264 20.55456 27.84132 33.008041 39.999962 43.173 47.51136 54.826199 59.726158 62.8992 69.947281 77.346359 84.464638 90.698402 97.690323 102.33756 108.82404 115.81596 123.10272 128.64851 131.73732 142.89912 146.12833 150.83173 153.93456 160.65971 167.97456 173.4642 178.1676 185.15952 188.38872 194.24339 201.55824 208.55016 215.83691 223.15176 230.14368 235.04364 238.2588 247.11804 254.10995 261.4248 268.14996 275.46481 278.694 285.30685 291.18961 298.18152 301.41071"
             y="0"
             sodipodi:role="line"
             id="tspan3217">Grenze für Konvergenz mit ausreichender Genauigkeit</tspan></text>
</g></g><g
       id="g3219"><g
         id="g3221"
         clip-path="url(#clipPath3223)"><path
           d="m 72,450.72 468,0 0,269.28 -468,0 0,-269.28 z"
           style="fill:none;stroke:#d9d9d9;stroke-width:0.72000003;stroke-linecap:butt;stroke-linejoin:round;stroke-miterlimit:10;stroke-opacity:1;stroke-dasharray:none"
           id="path3227"
           inkscape:connector-curvature="0" /></g></g></g></svg>