<?xml version="1.0" encoding="UTF-8" standalone="no"?>
<!-- Created with Inkscape (http://www.inkscape.org/) -->

<svg
   xmlns:dc="http://purl.org/dc/elements/1.1/"
   xmlns:cc="http://creativecommons.org/ns#"
   xmlns:rdf="http://www.w3.org/1999/02/22-rdf-syntax-ns#"
   xmlns:svg="http://www.w3.org/2000/svg"
   xmlns="http://www.w3.org/2000/svg"
   xmlns:sodipodi="http://sodipodi.sourceforge.net/DTD/sodipodi-0.dtd"
   xmlns:inkscape="http://www.inkscape.org/namespaces/inkscape"
   id="svg3307"
   version="1.1"
   inkscape:version="0.48.5 r10040"
   width="585.90002"
   height="329.70001"
   xml:space="preserve"
   sodipodi:docname="Doc2.pdf"><metadata
     id="metadata3313"><rdf:RDF><cc:Work
         rdf:about=""><dc:format>image/svg+xml</dc:format><dc:type
           rdf:resource="http://purl.org/dc/dcmitype/StillImage" /><dc:title></dc:title></cc:Work></rdf:RDF></metadata><defs
     id="defs3311"><clipPath
       clipPathUnits="userSpaceOnUse"
       id="clipPath3339"><path
         d="m 72,456.72 468,0 0,263.28 -468,0 0,-263.28 z"
         clip-rule="evenodd"
         id="path3341"
         inkscape:connector-curvature="0" /></clipPath><clipPath
       clipPathUnits="userSpaceOnUse"
       id="clipPath3351"><path
         d="m 72,456.72 468,0 0,263.28 -468,0 0,-263.28 z"
         clip-rule="evenodd"
         id="path3353"
         inkscape:connector-curvature="0" /></clipPath><clipPath
       clipPathUnits="userSpaceOnUse"
       id="clipPath3363"><path
         d="m 72,456.72 468,0 0,263.28 -468,0 0,-263.28 z"
         clip-rule="evenodd"
         id="path3365"
         inkscape:connector-curvature="0" /></clipPath><clipPath
       clipPathUnits="userSpaceOnUse"
       id="clipPath3375"><path
         d="m 72,456.72 468,0 0,263.28 -468,0 0,-263.28 z"
         clip-rule="evenodd"
         id="path3377"
         inkscape:connector-curvature="0" /></clipPath><clipPath
       clipPathUnits="userSpaceOnUse"
       id="clipPath3387"><path
         d="m 72,456.72 468,0 0,263.28 -468,0 0,-263.28 z"
         clip-rule="evenodd"
         id="path3389"
         inkscape:connector-curvature="0" /></clipPath><clipPath
       clipPathUnits="userSpaceOnUse"
       id="clipPath3399"><path
         d="m 72,456.72 468,0 0,263.28 -468,0 0,-263.28 z"
         clip-rule="evenodd"
         id="path3401"
         inkscape:connector-curvature="0" /></clipPath><clipPath
       clipPathUnits="userSpaceOnUse"
       id="clipPath3411"><path
         d="m 72,456.72 468,0 0,263.28 -468,0 0,-263.28 z"
         clip-rule="evenodd"
         id="path3413"
         inkscape:connector-curvature="0" /></clipPath><clipPath
       clipPathUnits="userSpaceOnUse"
       id="clipPath3423"><path
         d="m 72,456.72 468,0 0,263.28 -468,0 0,-263.28 z"
         clip-rule="evenodd"
         id="path3425"
         inkscape:connector-curvature="0" /></clipPath><clipPath
       clipPathUnits="userSpaceOnUse"
       id="clipPath3435"><path
         d="m 72,456.72 468,0 0,263.28 -468,0 0,-263.28 z"
         clip-rule="evenodd"
         id="path3437"
         inkscape:connector-curvature="0" /></clipPath><clipPath
       clipPathUnits="userSpaceOnUse"
       id="clipPath3447"><path
         d="m 72,456.72 468,0 0,263.28 -468,0 0,-263.28 z"
         clip-rule="evenodd"
         id="path3449"
         inkscape:connector-curvature="0" /></clipPath><clipPath
       clipPathUnits="userSpaceOnUse"
       id="clipPath3459"><path
         d="m 72,456.72 468,0 0,263.28 -468,0 0,-263.28 z"
         clip-rule="evenodd"
         id="path3461"
         inkscape:connector-curvature="0" /></clipPath><clipPath
       clipPathUnits="userSpaceOnUse"
       id="clipPath3471"><path
         d="m 72,456.72 468,0 0,263.28 -468,0 0,-263.28 z"
         clip-rule="evenodd"
         id="path3473"
         inkscape:connector-curvature="0" /></clipPath><clipPath
       clipPathUnits="userSpaceOnUse"
       id="clipPath3485"><path
         d="m 72,456.72 468,0 0,263.28 -468,0 0,-263.28 z"
         clip-rule="evenodd"
         id="path3487"
         inkscape:connector-curvature="0" /></clipPath><clipPath
       clipPathUnits="userSpaceOnUse"
       id="clipPath3499"><path
         d="m 72,456.72 468,0 0,263.28 -468,0 0,-263.28 z"
         clip-rule="evenodd"
         id="path3501"
         inkscape:connector-curvature="0" /></clipPath><clipPath
       clipPathUnits="userSpaceOnUse"
       id="clipPath3513"><path
         d="m 72,456.72 468,0 0,263.28 -468,0 0,-263.28 z"
         clip-rule="evenodd"
         id="path3515"
         inkscape:connector-curvature="0" /></clipPath><clipPath
       clipPathUnits="userSpaceOnUse"
       id="clipPath3527"><path
         d="m 72,456.72 468,0 0,263.28 -468,0 0,-263.28 z"
         clip-rule="evenodd"
         id="path3529"
         inkscape:connector-curvature="0" /></clipPath><clipPath
       clipPathUnits="userSpaceOnUse"
       id="clipPath3541"><path
         d="m 72,456.72 468,0 0,263.28 -468,0 0,-263.28 z"
         clip-rule="evenodd"
         id="path3543"
         inkscape:connector-curvature="0" /></clipPath><clipPath
       clipPathUnits="userSpaceOnUse"
       id="clipPath3555"><path
         d="m 72,456.72 468,0 0,263.28 -468,0 0,-263.28 z"
         clip-rule="evenodd"
         id="path3557"
         inkscape:connector-curvature="0" /></clipPath><clipPath
       clipPathUnits="userSpaceOnUse"
       id="clipPath3567"><path
         d="M -2.039e-6,446.88 612,446.88 612,720 -2.039e-6,720 l 0,-273.12 z"
         clip-rule="evenodd"
         id="path3569"
         inkscape:connector-curvature="0" /></clipPath></defs><sodipodi:namedview
     pagecolor="#ffffff"
     bordercolor="#666666"
     borderopacity="1"
     objecttolerance="10"
     gridtolerance="10"
     guidetolerance="10"
     inkscape:pageopacity="0"
     inkscape:pageshadow="2"
     inkscape:window-width="640"
     inkscape:window-height="480"
     id="namedview3309"
     showgrid="false"
     fit-margin-top="0"
     fit-margin-left="0"
     fit-margin-right="0"
     fit-margin-bottom="0"
     inkscape:zoom="0.23838384"
     inkscape:cx="292.95"
     inkscape:cy="-75.3"
     inkscape:window-x="0"
     inkscape:window-y="0"
     inkscape:window-maximized="0"
     inkscape:current-layer="g3315" /><g
     id="g3315"
     inkscape:groupmode="layer"
     inkscape:label="Doc2"
     transform="matrix(1.25,0,0,-1.25,-89.55,900)"><path
       d="m 72,456.6 468,0 0,263.4 -468,0 0,-263.4 z"
       style="fill:#ffffff;fill-opacity:1;fill-rule:evenodd;stroke:none"
       id="path3317"
       inkscape:connector-curvature="0" /><path
       d="m 102.72,575.76 414.24,0 m -414.24,35.76 414.24,0 m -414.24,35.64 414.24,0 m -414.24,35.76 414.24,0"
       style="fill:none;stroke:#d9d9d9;stroke-width:0.72000003;stroke-linecap:butt;stroke-linejoin:round;stroke-miterlimit:10;stroke-opacity:1;stroke-dasharray:none"
       id="path3319"
       inkscape:connector-curvature="0" /><path
       d="m 109.56,540.24 6.24,0 0,-0.12 -6.24,0 0,0.12 z m 59.16,0 6.24,0 0,-0.12 -6.24,0 0,0.12 z m 59.16,0 6.24,0 0,-0.12 -6.24,0 0,0.12 z m 59.16,0 6.24,0 0,-0.12 -6.24,0 0,0.12 z m 59.16,0 6.24,0 0,-0.12 -6.24,0 0,0.12 z m 59.28,0 6.12,0 0,-0.12 -6.12,0 0,0.12 z m 59.16,0 6.12,0 0,-0.12 -6.12,0 0,0.12 z"
       style="fill:#ed7d31;fill-opacity:1;fill-rule:nonzero;stroke:none"
       id="path3321"
       inkscape:connector-curvature="0" /><path
       d="m 176.64,540.24 6.12,0 0,-0.12 -6.12,0 0,0.12 z m 59.16,6.24 6.24,0 0,-6.36 -6.24,0 0,6.36 z m 59.16,47.4 6.24,0 0,-53.76 -6.24,0 0,53.76 z m 59.16,1.8 6.24,0 0,-55.56 -6.24,0 0,55.56 z m 59.16,-55.44 6.24,0 0,-0.12 -6.24,0 0,0.12 z m 59.16,51.96 6.24,0 0,-52.08 -6.24,0 0,52.08 z"
       style="fill:#a5a5a5;fill-opacity:1;fill-rule:nonzero;stroke:none"
       id="path3323"
       inkscape:connector-curvature="0" /><path
       d="m 125.28,540.24 6.24,0 0,-0.12 -6.24,0 0,0.12 z m 59.16,0 6.24,0 0,-0.12 -6.24,0 0,0.12 z m 59.28,0 6.12,0 0,-0.12 -6.12,0 0,0.12 z m 59.16,0 6.12,0 0,-0.12 -6.12,0 0,0.12 z m 59.16,111.96 6.12,0 0,-112.08 -6.12,0 0,112.08 z m 59.16,-111.96 6.24,0 0,-0.12 -6.24,0 0,0.12 z m 59.16,47.76 6.24,0 0,-47.88 -6.24,0 0,47.88 z"
       style="fill:#4472c4;fill-opacity:1;fill-rule:nonzero;stroke:none"
       id="path3325"
       inkscape:connector-curvature="0" /><path
       d="m 133.2,540.24 6.24,0 0,-0.12 -6.24,0 0,0.12 z m 59.16,0 6.24,0 0,-0.12 -6.24,0 0,0.12 z m 59.16,0 6.24,0 0,-0.12 -6.24,0 0,0.12 z m 59.16,0 6.24,0 0,-0.12 -6.24,0 0,0.12 z m 59.16,40.8 6.24,0 0,-40.92 -6.24,0 0,40.92 z m 59.28,-40.8 6.12,0 0,-0.12 -6.12,0 0,0.12 z m 59.16,1.2 6.12,0 0,-1.32 -6.12,0 0,1.32 z"
       style="fill:#70ad47;fill-opacity:1;fill-rule:nonzero;stroke:none"
       id="path3327"
       inkscape:connector-curvature="0" /><path
       d="m 259.44,546.48 6.24,0 0,-6.36 -6.24,0 0,6.36 z m 59.16,47.4 6.24,0 0,-53.76 -6.24,0 0,53.76 z m 59.16,1.8 6.24,0 0,-55.56 -6.24,0 0,55.56 z m 118.32,-6.24 6.24,0 0,-49.32 -6.24,0 0,49.32 z"
       style="fill:#255e91;fill-opacity:1;fill-rule:nonzero;stroke:none"
       id="path3329"
       inkscape:connector-curvature="0" /><path
       d="m 208.08,540.24 6.24,0 0,-0.12 -6.24,0 0,0.12 z m 59.16,0 6.24,0 0,-0.12 -6.24,0 0,0.12 z m 59.28,0 6.12,0 0,-0.12 -6.12,0 0,0.12 z m 59.16,0 6.12,0 0,-0.12 -6.12,0 0,0.12 z m 59.16,0 6.24,0 0,-0.12 -6.24,0 0,0.12 z m 59.16,0 6.24,0 0,-0.12 -6.24,0 0,0.12 z"
       style="fill:#9e480e;fill-opacity:1;fill-rule:nonzero;stroke:none"
       id="path3331"
       inkscape:connector-curvature="0" /><path
       d="m 102.72,540.12 414.24,0"
       style="fill:none;stroke:#d9d9d9;stroke-width:0.72000003;stroke-linecap:butt;stroke-linejoin:round;stroke-miterlimit:10;stroke-opacity:1;stroke-dasharray:none"
       id="path3333"
       inkscape:connector-curvature="0" /><g
       id="g3335"><g
         id="g3337"
         clip-path="url(#clipPath3339)"><text
           transform="matrix(1,0,0,-1,78.504,537.5)"
           id="text3343"><tspan
             style="font-size:9px;font-variant:normal;font-weight:normal;writing-mode:lr-tb;fill:#595959;fill-opacity:1;fill-rule:nonzero;stroke:none;font-family:Calibri;-inkscape-font-specification:Calibri"
             x="0 4.5630002 6.8130002 11.376"
             y="0"
             sodipodi:role="line"
             id="tspan3345">0,00</tspan></text>
</g></g><g
       id="g3347"><g
         id="g3349"
         clip-path="url(#clipPath3351)"><text
           transform="matrix(1,0,0,-1,78.504,573.22)"
           id="text3355"><tspan
             style="font-size:9px;font-variant:normal;font-weight:normal;writing-mode:lr-tb;fill:#595959;fill-opacity:1;fill-rule:nonzero;stroke:none;font-family:Calibri;-inkscape-font-specification:Calibri"
             x="0 4.5630002 6.8130002 11.376"
             y="0"
             sodipodi:role="line"
             id="tspan3357">0,01</tspan></text>
</g></g><g
       id="g3359"><g
         id="g3361"
         clip-path="url(#clipPath3363)"><text
           transform="matrix(1,0,0,-1,78.504,608.93)"
           id="text3367"><tspan
             style="font-size:9px;font-variant:normal;font-weight:normal;writing-mode:lr-tb;fill:#595959;fill-opacity:1;fill-rule:nonzero;stroke:none;font-family:Calibri;-inkscape-font-specification:Calibri"
             x="0 4.5630002 6.8130002 11.376"
             y="0"
             sodipodi:role="line"
             id="tspan3369">0,02</tspan></text>
</g></g><g
       id="g3371"><g
         id="g3373"
         clip-path="url(#clipPath3375)"><text
           transform="matrix(1,0,0,-1,78.504,644.64)"
           id="text3379"><tspan
             style="font-size:9px;font-variant:normal;font-weight:normal;writing-mode:lr-tb;fill:#595959;fill-opacity:1;fill-rule:nonzero;stroke:none;font-family:Calibri;-inkscape-font-specification:Calibri"
             x="0 4.5630002 6.8130002 11.376"
             y="0"
             sodipodi:role="line"
             id="tspan3381">0,03</tspan></text>
</g></g><g
       id="g3383"><g
         id="g3385"
         clip-path="url(#clipPath3387)"><text
           transform="matrix(1,0,0,-1,78.504,680.35)"
           id="text3391"><tspan
             style="font-size:9px;font-variant:normal;font-weight:normal;writing-mode:lr-tb;fill:#595959;fill-opacity:1;fill-rule:nonzero;stroke:none;font-family:Calibri;-inkscape-font-specification:Calibri"
             x="0 4.5630002 6.8130002 11.376"
             y="0"
             sodipodi:role="line"
             id="tspan3393">0,04</tspan></text>
</g></g><g
       id="g3395"><g
         id="g3397"
         clip-path="url(#clipPath3399)"><text
           transform="matrix(1,0,0,-1,115.9,525.79)"
           id="text3403"><tspan
             style="font-size:9px;font-variant:normal;font-weight:normal;writing-mode:lr-tb;fill:#595959;fill-opacity:1;fill-rule:nonzero;stroke:none;font-family:Calibri;-inkscape-font-specification:Calibri"
             x="0 4.5630002 6.5970001 11.277 15.957 20.745001 23.76 28.188"
             y="0"
             sodipodi:role="line"
             id="tspan3405">2 Knoten</tspan></text>
</g></g><g
       id="g3407"><g
         id="g3409"
         clip-path="url(#clipPath3411)"><text
           transform="matrix(1,0,0,-1,221.21,525.79)"
           id="text3415"><tspan
             style="font-size:9px;font-variant:normal;font-weight:normal;writing-mode:lr-tb;fill:#595959;fill-opacity:1;fill-rule:nonzero;stroke:none;font-family:Calibri;-inkscape-font-specification:Calibri"
             x="0 4.5630002 6.5970001 11.277 15.957 20.745001 23.76 28.188 32.976002 35.009998 42.201 44.271 47.258999 49.292999 53.973"
             y="0"
             sodipodi:role="line"
             id="tspan3417">2 Knoten mit PV</tspan></text>
</g></g><g
       id="g3419"><g
         id="g3421"
         clip-path="url(#clipPath3423)"><text
           transform="matrix(1,0,0,-1,325.1,525.79)"
           id="text3427"><tspan
             style="font-size:9px;font-variant:normal;font-weight:normal;writing-mode:lr-tb;fill:#595959;fill-opacity:1;fill-rule:nonzero;stroke:none;font-family:Calibri;-inkscape-font-specification:Calibri"
             x="0 4.5630002 6.5970001 11.277 15.957 20.745001 23.76 28.188 32.976002 35.009998 42.201 44.271 47.258999 49.292999 53.973 59.013 61.047001 65.844002 70.524002 75.204002 77.237999 81.917999"
             y="0"
             sodipodi:role="line"
             id="tspan3429">3 Knoten mit PV und PQ</tspan></text>
</g></g><g
       id="g3431"><g
         id="g3433"
         clip-path="url(#clipPath3435)"><text
           transform="matrix(1,0,0,-1,463.85,525.79)"
           id="text3439"><tspan
             style="font-size:9px;font-variant:normal;font-weight:normal;writing-mode:lr-tb;fill:#595959;fill-opacity:1;fill-rule:nonzero;stroke:none;font-family:Calibri;-inkscape-font-specification:Calibri"
             x="0 4.5630002 6.5970001 11.277 15.957 20.745001 23.76 28.188 32.976002 35.009998 42.201 44.271"
             y="0"
             sodipodi:role="line"
             id="tspan3441">3 Knoten mit</tspan></text>
</g></g><g
       id="g3443"><g
         id="g3445"
         clip-path="url(#clipPath3447)"><text
           transform="matrix(1,0,0,-1,455.59,514.8)"
           id="text3451"><tspan
             style="font-size:9px;font-variant:normal;font-weight:normal;writing-mode:lr-tb;fill:#595959;fill-opacity:1;fill-rule:nonzero;stroke:none;font-family:Calibri;-inkscape-font-specification:Calibri"
             x="0 4.6799998 9.4680004 12.951 17.028 24.219 31.41 35.891998 38.870998 42.102001 44.145 47.627998 51.462002 56.141998 60.695999"
             y="0"
             sodipodi:role="line"
             id="tspan3453">unsymmetrischer</tspan></text>
</g></g><g
       id="g3455"><g
         id="g3457"
         clip-path="url(#clipPath3459)"><text
           transform="matrix(1,0,0,-1,442.75,503.83)"
           id="text3463"><tspan
             style="font-size:9px;font-variant:normal;font-weight:normal;writing-mode:lr-tb;fill:#595959;fill-opacity:1;fill-rule:nonzero;stroke:none;font-family:Calibri;-inkscape-font-specification:Calibri"
             x="0 5.1570001 9.9449997 17.136 19.205999 22.184999 25.200001 29.511 34.299 37.782001 44.973 49.284 52.299 55.439999 57.573002 61.416 63.450001 68.139 72.927002 77.607002 79.640999 84.320999"
             y="0"
             sodipodi:role="line"
             id="tspan3465">Admittanzmatrix und PV</tspan></text>
</g></g><g
       id="g3467"><g
         id="g3469"
         clip-path="url(#clipPath3471)"><text
           transform="matrix(1,0,0,-1,162.14,699.17)"
           id="text3475"><tspan
             style="font-size:14.03999996px;font-variant:normal;font-weight:normal;writing-mode:lr-tb;fill:#595959;fill-opacity:1;fill-rule:nonzero;stroke:none;font-family:Calibri;-inkscape-font-specification:Calibri"
             x="0 7.4411998 14.43312 17.662319 24.24708 28.95048 32.17968 38.413441 45.405361 50.305321 53.169479 64.331284 70.930077 77.009399 80.280724 91.44252 98.167679 101.39688 108.3888 113.28876 116.40564 122.6394 129.63132 136.91808 140.14728 147.13921 152.03915 155.15604 162.47089 169.4628 174.36276 177.46561 184.54176 191.8566 199.25568 203.86079 210.85272 218.13948 223.62912 231.00012 237.72528 245.02608 252.34093 259.65576 266.97061 273.45709 280.44901"
             y="0"
             sodipodi:role="line"
             id="tspan3477">Relativer maximaler Fehler der Knotenspannungen</tspan></text>
</g></g><path
       d="m 137.4,483.96 4.92,0 0,4.92 -4.92,0 0,-4.92 z"
       style="fill:#ed7d31;fill-opacity:1;fill-rule:evenodd;stroke:none"
       id="path3479"
       inkscape:connector-curvature="0" /><g
       id="g3481"><g
         id="g3483"
         clip-path="url(#clipPath3485)"><text
           transform="matrix(1,0,0,-1,144.48,483.89)"
           id="text3489"><tspan
             style="font-size:9px;font-variant:normal;font-weight:normal;writing-mode:lr-tb;fill:#595959;fill-opacity:1;fill-rule:nonzero;stroke:none;font-family:Calibri;-inkscape-font-specification:Calibri"
             x="0 4.0770001 7.191 10.332 14.994 22.184999 24.254999 27.341999 31.778999 34.919998 39.230999 42.219002 44.262001 49.049999"
             y="0"
             sodipodi:role="line"
             id="tspan3491">Stromiteration</tspan></text>
</g></g><path
       d="m 252,483.96 4.92,0 0,4.92 -4.92,0 0,-4.92 z"
       style="fill:#a5a5a5;fill-opacity:1;fill-rule:evenodd;stroke:none"
       id="path3493"
       inkscape:connector-curvature="0" /><g
       id="g3495"><g
         id="g3497"
         clip-path="url(#clipPath3499)"><text
           transform="matrix(1,0,0,-1,259.03,483.89)"
           id="text3503"><tspan
             style="font-size:9px;font-variant:normal;font-weight:normal;writing-mode:lr-tb;fill:#595959;fill-opacity:1;fill-rule:nonzero;stroke:none;font-family:Calibri;-inkscape-font-specification:Calibri"
             x="0 5.7600002 10.314 16.677 19.791 24.471001 29.150999 31.905001 36.819 41.130001 45.819 50.606998 54.09 58.877998"
             y="0"
             sodipodi:role="line"
             id="tspan3505">Newton-Raphson</tspan></text>
</g></g><path
       d="m 366.48,483.96 4.92,0 0,4.92 -4.92,0 0,-4.92 z"
       style="fill:#4472c4;fill-opacity:1;fill-rule:evenodd;stroke:none"
       id="path3507"
       inkscape:connector-curvature="0" /><g
       id="g3509"><g
         id="g3511"
         clip-path="url(#clipPath3513)"><text
           transform="matrix(1,0,0,-1,373.61,483.89)"
           id="text3517"><tspan
             style="font-size:9px;font-variant:normal;font-weight:normal;writing-mode:lr-tb;fill:#595959;fill-opacity:1;fill-rule:nonzero;stroke:none;font-family:Calibri;-inkscape-font-specification:Calibri"
             x="0 5.6339998 9.9540005 13.788 21.483 23.733 25.767 30.492001 35.262001 39.942001 44.622002 49.175999 51.219002 54.234001 58.661999 60.695999 66.456001 70.892998 75.681 79.884003 84.671997 86.714996 90.917999 95.013 99.549004 101.592"
             y="0"
             sodipodi:role="line"
             id="tspan3519">HELM, doppelte Genauigkeit</tspan></text>
</g></g><path
       d="m 137.4,467.16 4.92,0 0,4.92 -4.92,0 0,-4.92 z"
       style="fill:#70ad47;fill-opacity:1;fill-rule:evenodd;stroke:none"
       id="path3521"
       inkscape:connector-curvature="0" /><g
       id="g3523"><g
         id="g3525"
         clip-path="url(#clipPath3527)"><text
           transform="matrix(1,0,0,-1,144.48,467.02)"
           id="text3531"><tspan
             style="font-size:9px;font-variant:normal;font-weight:normal;writing-mode:lr-tb;fill:#595959;fill-opacity:1;fill-rule:nonzero;stroke:none;font-family:Calibri;-inkscape-font-specification:Calibri"
             x="0 5.6339998 9.9540005 13.788 21.483 23.733 25.767 30.492001 35.262001 39.942001 44.379002 47.610001 52.047001 54.081001 59.723999 64.278 68.958 73.268997 77.958 82.268997 84.311996 88.406998 92.834999 94.877998"
             y="0"
             sodipodi:role="line"
             id="tspan3533">HELM, höhere Genaugikeit</tspan></text>
</g></g><path
       d="m 252,467.16 4.92,0 0,4.92 -4.92,0 0,-4.92 z"
       style="fill:#255e91;fill-opacity:1;fill-rule:evenodd;stroke:none"
       id="path3535"
       inkscape:connector-curvature="0" /><g
       id="g3537"><g
         id="g3539"
         clip-path="url(#clipPath3541)"><text
           transform="matrix(1,0,0,-1,259.03,467.02)"
           id="text3545"><tspan
             style="font-size:9px;font-variant:normal;font-weight:normal;writing-mode:lr-tb;fill:#595959;fill-opacity:1;fill-rule:nonzero;stroke:none;font-family:Calibri;-inkscape-font-specification:Calibri"
             x="0 5.6339998 9.9540005 13.788 21.483 23.517 30.708 32.750999 35.765999 37.799999 43.659 48.096001 54.567001 57.582001 62.243999 67.031998 69.786003 74.592003 78.903 83.699997 88.379997 91.862999 96.651001"
             y="0"
             sodipodi:role="line"
             id="tspan3547">HELM mit Newton-Raphson</tspan></text>
</g></g><path
       d="m 366.48,467.16 4.92,0 0,4.92 -4.92,0 0,-4.92 z"
       style="fill:#9e480e;fill-opacity:1;fill-rule:evenodd;stroke:none"
       id="path3549"
       inkscape:connector-curvature="0" /><g
       id="g3551"><g
         id="g3553"
         clip-path="url(#clipPath3555)"><text
           transform="matrix(1,0,0,-1,373.61,467.02)"
           id="text3559"><tspan
             style="font-size:9px;font-variant:normal;font-weight:normal;writing-mode:lr-tb;fill:#595959;fill-opacity:1;fill-rule:nonzero;stroke:none;font-family:Calibri;-inkscape-font-specification:Calibri"
             x="0 5.6339998 9.9540005 13.788 21.483 23.517 30.708 32.750999 35.765999 37.799999 41.985001 45 48.105 52.785 59.976002 62.136002 65.151001 69.579002 72.720001 77.030998 80.018997 82.061996 86.849998"
             y="0"
             sodipodi:role="line"
             id="tspan3561">HELM mit Stromiteration</tspan></text>
</g></g><g
       id="g3563"><g
         id="g3565"
         clip-path="url(#clipPath3567)"><path
           d="m 72,456.6 468,0 0,263.4 -468,0 0,-263.4 z"
           style="fill:none;stroke:#d9d9d9;stroke-width:0.72000003;stroke-linecap:butt;stroke-linejoin:round;stroke-miterlimit:10;stroke-opacity:1;stroke-dasharray:none"
           id="path3571"
           inkscape:connector-curvature="0" /></g></g></g></svg>