<?xml version="1.0" encoding="UTF-8" standalone="no"?>
<!-- Created with Inkscape (http://www.inkscape.org/) -->

<svg
   xmlns:dc="http://purl.org/dc/elements/1.1/"
   xmlns:cc="http://creativecommons.org/ns#"
   xmlns:rdf="http://www.w3.org/1999/02/22-rdf-syntax-ns#"
   xmlns:svg="http://www.w3.org/2000/svg"
   xmlns="http://www.w3.org/2000/svg"
   version="1.1"
   width="37.205002"
   height="36.799999"
   id="svg3347"
   xml:space="preserve"><metadata
     id="metadata3353"><rdf:RDF><cc:Work
         rdf:about=""><dc:format>image/svg+xml</dc:format><dc:type
           rdf:resource="http://purl.org/dc/dcmitype/StillImage" /><dc:title></dc:title></cc:Work></rdf:RDF></metadata><defs
     id="defs3351"><clipPath
       id="clipPath3361"><path
         d="m 0,34.016 34.016,0 L 34.016,0 0,0 0,34.016 z"
         id="path3363" /></clipPath></defs><g
     transform="matrix(1.25,0,0,-1.25,-2.57625,40.093)"
     id="g3355"><g
       id="g3357"><g
         clip-path="url(#clipPath3361)"
         id="g3359"><g
           transform="translate(25.084,17.0474)"
           id="g3365"><path
             d="m 0,0 c -1.024,-2.673 -1.991,-5.201 -3.661,-5.201 -1.626,0 -2.552,2.433 -3.533,5.01 -1.15,3.019 -2.453,6.441 -5.264,6.441 -2.941,0 -4.465,-3.661 -5.808,-6.892 -0.916,-2.201 -1.782,-4.286 -2.88,-4.534 -0.72,1.701 -1.117,3.558 -1.117,5.483 0,7.787 6.336,14.122 14.123,14.122 5.667,0 10.566,-3.359 12.81,-8.19 C 2.309,6.03 1.136,2.967 0,0 m -3.978,-13.814 0,0.006 c 6.226,1.834 10.557,7.6 10.557,14.115 0,8.117 -6.602,14.72 -14.719,14.72 -8.118,0 -14.721,-6.603 -14.721,-14.72 0,-6.515 4.331,-12.281 10.557,-14.115 l 0,-0.006 -10.719,0 0,-0.599 11.317,0 0,1.049 -0.219,0.061 c -4.083,1.134 -7.337,4.026 -9.039,7.715 1.273,0.362 2.133,2.419 3.113,4.775 1.289,3.1 2.75,6.615 5.393,6.615 2.502,0 3.692,-3.128 4.845,-6.153 1.036,-2.725 2.017,-5.299 3.952,-5.299 1.978,0 2.999,2.666 4.079,5.488 C 1.531,2.745 2.682,5.746 4.869,5.799 5.585,4.11 5.98,2.254 5.98,0.307 c 0,-6.323 -4.251,-11.92 -10.337,-13.61 l -0.219,-0.061 0,-1.049 11.317,0 0,0.599 -10.719,0 z"
             id="path3367"
             style="fill:#1478c7;fill-opacity:1;fill-rule:nonzero;stroke:none" /></g></g></g></g></svg>