<?xml version="1.0" encoding="UTF-8" standalone="no"?>
<!-- Created with Inkscape (http://www.inkscape.org/) -->

<svg
   xmlns:dc="http://purl.org/dc/elements/1.1/"
   xmlns:cc="http://creativecommons.org/ns#"
   xmlns:rdf="http://www.w3.org/1999/02/22-rdf-syntax-ns#"
   xmlns:svg="http://www.w3.org/2000/svg"
   xmlns="http://www.w3.org/2000/svg"
   xmlns:sodipodi="http://sodipodi.sourceforge.net/DTD/sodipodi-0.dtd"
   xmlns:inkscape="http://www.inkscape.org/namespaces/inkscape"
   id="svg2"
   version="1.1"
   inkscape:version="0.48.5 r10040"
   width="567.90002"
   height="282.75"
   xml:space="preserve"
   sodipodi:docname="Doc1.pdf"><metadata
     id="metadata8"><rdf:RDF><cc:Work
         rdf:about=""><dc:format>image/svg+xml</dc:format><dc:type
           rdf:resource="http://purl.org/dc/dcmitype/StillImage" /><dc:title></dc:title></cc:Work></rdf:RDF></metadata><defs
     id="defs6"><clipPath
       clipPathUnits="userSpaceOnUse"
       id="clipPath24"><path
         d="m 70.8,545.4 453.6,0 0,225.72 -453.6,0 0,-225.72 z"
         clip-rule="evenodd"
         id="path26"
         inkscape:connector-curvature="0" /></clipPath><clipPath
       clipPathUnits="userSpaceOnUse"
       id="clipPath36"><path
         d="m 70.8,545.4 453.6,0 0,225.72 -453.6,0 0,-225.72 z"
         clip-rule="evenodd"
         id="path38"
         inkscape:connector-curvature="0" /></clipPath><clipPath
       clipPathUnits="userSpaceOnUse"
       id="clipPath48"><path
         d="m 70.8,545.4 453.6,0 0,225.72 -453.6,0 0,-225.72 z"
         clip-rule="evenodd"
         id="path50"
         inkscape:connector-curvature="0" /></clipPath><clipPath
       clipPathUnits="userSpaceOnUse"
       id="clipPath60"><path
         d="m 70.8,545.4 453.6,0 0,225.72 -453.6,0 0,-225.72 z"
         clip-rule="evenodd"
         id="path62"
         inkscape:connector-curvature="0" /></clipPath><clipPath
       clipPathUnits="userSpaceOnUse"
       id="clipPath72"><path
         d="m 70.8,545.4 453.6,0 0,225.72 -453.6,0 0,-225.72 z"
         clip-rule="evenodd"
         id="path74"
         inkscape:connector-curvature="0" /></clipPath><clipPath
       clipPathUnits="userSpaceOnUse"
       id="clipPath84"><path
         d="m 70.8,545.4 453.6,0 0,225.72 -453.6,0 0,-225.72 z"
         clip-rule="evenodd"
         id="path86"
         inkscape:connector-curvature="0" /></clipPath><clipPath
       clipPathUnits="userSpaceOnUse"
       id="clipPath96"><path
         d="m 70.8,545.4 453.6,0 0,225.72 -453.6,0 0,-225.72 z"
         clip-rule="evenodd"
         id="path98"
         inkscape:connector-curvature="0" /></clipPath><clipPath
       clipPathUnits="userSpaceOnUse"
       id="clipPath108"><path
         d="m 70.8,545.4 453.6,0 0,225.72 -453.6,0 0,-225.72 z"
         clip-rule="evenodd"
         id="path110"
         inkscape:connector-curvature="0" /></clipPath><clipPath
       clipPathUnits="userSpaceOnUse"
       id="clipPath120"><path
         d="m 70.8,545.4 453.6,0 0,225.72 -453.6,0 0,-225.72 z"
         clip-rule="evenodd"
         id="path122"
         inkscape:connector-curvature="0" /></clipPath><clipPath
       clipPathUnits="userSpaceOnUse"
       id="clipPath132"><path
         d="m 70.8,545.4 453.6,0 0,225.72 -453.6,0 0,-225.72 z"
         clip-rule="evenodd"
         id="path134"
         inkscape:connector-curvature="0" /></clipPath><clipPath
       clipPathUnits="userSpaceOnUse"
       id="clipPath144"><path
         d="m 9.2e-7,535.56 595.31999908,0 0,235.56 -595.31999908,0 0,-235.56 z"
         clip-rule="evenodd"
         id="path146"
         inkscape:connector-curvature="0" /></clipPath></defs><sodipodi:namedview
     pagecolor="#ffffff"
     bordercolor="#666666"
     borderopacity="1"
     objecttolerance="10"
     gridtolerance="10"
     guidetolerance="10"
     inkscape:pageopacity="0"
     inkscape:pageshadow="2"
     inkscape:window-width="640"
     inkscape:window-height="480"
     id="namedview4"
     showgrid="false"
     fit-margin-top="0"
     fit-margin-left="0"
     fit-margin-right="0"
     fit-margin-bottom="0"
     inkscape:zoom="0.22424933"
     inkscape:cx="284.02501"
     inkscape:cy="-154.95001"
     inkscape:window-x="45"
     inkscape:window-y="102"
     inkscape:window-maximized="0"
     inkscape:current-layer="g10" /><g
     id="g10"
     inkscape:groupmode="layer"
     inkscape:label="Doc1"
     transform="matrix(1.25,0,0,-1.25,-88.05,963.9)"><path
       d="m 70.8,545.28 453.6,0 0,225.84 -453.6,0 0,-225.84 z"
       style="fill:#ffffff;fill-opacity:1;fill-rule:evenodd;stroke:none"
       id="path12"
       inkscape:connector-curvature="0" /><path
       d="m 132.24,760.08 381.24,0 m -381.24,-51 381.24,0 m -381.24,-50.88 381.24,0 m -381.24,-51 381.24,0"
       style="fill:none;stroke:#d9d9d9;stroke-width:0.72000003;stroke-linecap:butt;stroke-linejoin:round;stroke-miterlimit:10;stroke-opacity:1;stroke-dasharray:none"
       id="path14"
       inkscape:connector-curvature="0" /><path
       d="m 175.8,679.92 39.84,0 0,-123.6 -39.84,0 0,123.6 z m 127.08,-3 39.84,0 0,-120.6 -39.84,0 0,120.6 z m 127.08,31.32 39.84,0 0,-151.92 -39.84,0 0,151.92 z"
       style="fill:#5b9bd5;fill-opacity:1;fill-rule:nonzero;stroke:none"
       id="path16"
       inkscape:connector-curvature="0" /><path
       d="m 132.24,556.32 381.24,0"
       style="fill:none;stroke:#d9d9d9;stroke-width:0.72000003;stroke-linecap:butt;stroke-linejoin:round;stroke-miterlimit:10;stroke-opacity:1;stroke-dasharray:none"
       id="path18"
       inkscape:connector-curvature="0" /><g
       id="g20"><g
         id="g22"
         clip-path="url(#clipPath24)"><text
           transform="matrix(1,0,0,-1,103.06,757.54)"
           id="text28"><tspan
             style="font-size:9px;font-variant:normal;font-weight:normal;writing-mode:lr-tb;fill:#595959;fill-opacity:1;fill-rule:nonzero;stroke:none;font-family:Calibri;-inkscape-font-specification:Calibri"
             x="0 4.5630002 8.9910002 11.745 16.308001"
             y="0"
             sodipodi:role="line"
             id="tspan30">1E-10</tspan></text>
</g></g><g
       id="g32"><g
         id="g34"
         clip-path="url(#clipPath36)"><text
           transform="matrix(1,0,0,-1,103.06,706.58)"
           id="text40"><tspan
             style="font-size:9px;font-variant:normal;font-weight:normal;writing-mode:lr-tb;fill:#595959;fill-opacity:1;fill-rule:nonzero;stroke:none;font-family:Calibri;-inkscape-font-specification:Calibri"
             x="0 4.5630002 8.9910002 11.745 16.308001"
             y="0"
             sodipodi:role="line"
             id="tspan42">1E-09</tspan></text>
</g></g><g
       id="g44"><g
         id="g46"
         clip-path="url(#clipPath48)"><text
           transform="matrix(1,0,0,-1,103.06,655.63)"
           id="text52"><tspan
             style="font-size:9px;font-variant:normal;font-weight:normal;writing-mode:lr-tb;fill:#595959;fill-opacity:1;fill-rule:nonzero;stroke:none;font-family:Calibri;-inkscape-font-specification:Calibri"
             x="0 4.5630002 8.9910002 11.745 16.308001"
             y="0"
             sodipodi:role="line"
             id="tspan54">1E-08</tspan></text>
</g></g><g
       id="g56"><g
         id="g58"
         clip-path="url(#clipPath60)"><text
           transform="matrix(1,0,0,-1,103.06,604.7)"
           id="text64"><tspan
             style="font-size:9px;font-variant:normal;font-weight:normal;writing-mode:lr-tb;fill:#595959;fill-opacity:1;fill-rule:nonzero;stroke:none;font-family:Calibri;-inkscape-font-specification:Calibri"
             x="0 4.5630002 8.9910002 11.745 16.308001"
             y="0"
             sodipodi:role="line"
             id="tspan66">1E-07</tspan></text>
</g></g><g
       id="g68"><g
         id="g70"
         clip-path="url(#clipPath72)"><text
           transform="matrix(1,0,0,-1,103.06,553.75)"
           id="text76"><tspan
             style="font-size:9px;font-variant:normal;font-weight:normal;writing-mode:lr-tb;fill:#595959;fill-opacity:1;fill-rule:nonzero;stroke:none;font-family:Calibri;-inkscape-font-specification:Calibri"
             x="0 4.5630002 8.9910002 11.745 16.308001"
             y="0"
             sodipodi:role="line"
             id="tspan78">1E-06</tspan></text>
</g></g><g
       id="g80"><g
         id="g82"
         clip-path="url(#clipPath84)"><text
           transform="matrix(1,0,0,-1,176.52,565.46)"
           id="text88"><tspan
             style="font-size:9px;font-variant:normal;font-weight:normal;writing-mode:lr-tb;fill:#595959;fill-opacity:1;fill-rule:nonzero;stroke:none;font-family:Calibri;-inkscape-font-specification:Calibri"
             x="0 5.6339998 9.9540005 13.788 21.483 23.517 26.243999 29.988001 35.765999"
             y="0"
             sodipodi:role="line"
             id="tspan90">HELM (LU)</tspan></text>
</g></g><g
       id="g92"><g
         id="g94"
         clip-path="url(#clipPath96)"><text
           transform="matrix(1,0,0,-1,272.9,565.46)"
           id="text100"><tspan
             style="font-size:9px;font-variant:normal;font-weight:normal;writing-mode:lr-tb;fill:#595959;fill-opacity:1;fill-rule:nonzero;stroke:none;font-family:Calibri;-inkscape-font-specification:Calibri"
             x="0 4.7969999 9.4770002 12.708 15.849 20.268 25.056 28.070999 30.105 32.373001 35.388 39.816002 42.957001 47.268002 50.256001 52.299 57.087002 61.766998 63.800999 66.555 68.598 71.612999 76.149002 79.290001 83.600998 86.588997 88.632004 92.699997 97.154999"
             y="0"
             sodipodi:role="line"
             id="tspan102">Current Iteration (iterative)</tspan></text>
</g></g><g
       id="g104"><g
         id="g106"
         clip-path="url(#clipPath108)"><text
           transform="matrix(1,0,0,-1,389.64,576.43)"
           id="text112"><tspan
             style="font-size:9px;font-variant:normal;font-weight:normal;writing-mode:lr-tb;fill:#595959;fill-opacity:1;fill-rule:nonzero;stroke:none;font-family:Calibri;-inkscape-font-specification:Calibri"
             x="0 5.6339998 9.9540005 13.788 21.483 23.517 26.243999 29.988001 35.765999 38.493 40.527 47.015999 49.058998 52.074001 56.736 58.77 63.567001 68.363998 71.504997 74.600998 79.154999 83.834999 86.849998 88.884003 91.152 94.167 98.595001 101.826 106.029 109.143 111.186 115.866"
             y="0"
             sodipodi:role="line"
             id="tspan114">HELM (LU) with Current Iteration</tspan></text>
</g></g><g
       id="g116"><g
         id="g118"
         clip-path="url(#clipPath120)"><text
           transform="matrix(1,0,0,-1,431.95,565.46)"
           id="text124"><tspan
             style="font-size:9px;font-variant:normal;font-weight:normal;writing-mode:lr-tb;fill:#595959;fill-opacity:1;fill-rule:nonzero;stroke:none;font-family:Calibri;-inkscape-font-specification:Calibri"
             x="0 2.7539999 4.7969999 7.8119998 12.24 15.471 19.782 22.797001 24.830999 28.899 33.354"
             y="0"
             sodipodi:role="line"
             id="tspan126">(iterative)</tspan></text>
</g></g><g
       id="g128"><g
         id="g130"
         clip-path="url(#clipPath132)"><text
           transform="matrix(-4.4e-8,1,1,4.4e-8,92.856,610.46)"
           id="text136"><tspan
             style="font-size:9.96000004px;font-variant:normal;font-weight:normal;writing-mode:lr-tb;fill:#595959;fill-opacity:1;fill-rule:nonzero;stroke:none;font-family:Calibri;-inkscape-font-specification:Calibri"
             x="0 3.4760399 8.3962803 10.68708 15.45792 18.8244 21.1152 25.5474 30.46764 32.85804 38.126881 43.395721 50.47728 55.397518 58.873562 61.263962 66.184196 69.66024 73.136276 78.415077 81.891121 84.281517 87.27948 92.329201"
             y="0"
             sodipodi:role="line"
             id="tspan138">relative power error [1]</tspan></text>
</g></g><g
       id="g140"><g
         id="g142"
         clip-path="url(#clipPath144)"><path
           d="m 70.8,545.28 453.6,0 0,225.84 -453.6,0 0,-225.84 z"
           style="fill:none;stroke:#d9d9d9;stroke-width:0.72000003;stroke-linecap:butt;stroke-linejoin:round;stroke-miterlimit:10;stroke-opacity:1;stroke-dasharray:none"
           id="path148"
           inkscape:connector-curvature="0" /></g></g></g></svg>