<?xml version="1.0" encoding="UTF-8" standalone="no"?>
<!-- Created with Inkscape (http://www.inkscape.org/) -->

<svg
   xmlns:dc="http://purl.org/dc/elements/1.1/"
   xmlns:cc="http://creativecommons.org/ns#"
   xmlns:rdf="http://www.w3.org/1999/02/22-rdf-syntax-ns#"
   xmlns:svg="http://www.w3.org/2000/svg"
   xmlns="http://www.w3.org/2000/svg"
   xmlns:sodipodi="http://sodipodi.sourceforge.net/DTD/sodipodi-0.dtd"
   xmlns:inkscape="http://www.inkscape.org/namespaces/inkscape"
   id="svg2"
   version="1.1"
   inkscape:version="0.48.5 r10040"
   width="567.90002"
   height="283.79999"
   xml:space="preserve"
   sodipodi:docname="Doc2.pdf"><metadata
     id="metadata8"><rdf:RDF><cc:Work
         rdf:about=""><dc:format>image/svg+xml</dc:format><dc:type
           rdf:resource="http://purl.org/dc/dcmitype/StillImage" /><dc:title></dc:title></cc:Work></rdf:RDF></metadata><defs
     id="defs6"><clipPath
       clipPathUnits="userSpaceOnUse"
       id="clipPath24"><path
         d="m 70.8,544.56 453.6,0 0,226.56 -453.6,0 0,-226.56 z"
         clip-rule="evenodd"
         id="path26"
         inkscape:connector-curvature="0" /></clipPath><clipPath
       clipPathUnits="userSpaceOnUse"
       id="clipPath36"><path
         d="m 70.8,544.56 453.6,0 0,226.56 -453.6,0 0,-226.56 z"
         clip-rule="evenodd"
         id="path38"
         inkscape:connector-curvature="0" /></clipPath><clipPath
       clipPathUnits="userSpaceOnUse"
       id="clipPath48"><path
         d="m 70.8,544.56 453.6,0 0,226.56 -453.6,0 0,-226.56 z"
         clip-rule="evenodd"
         id="path50"
         inkscape:connector-curvature="0" /></clipPath><clipPath
       clipPathUnits="userSpaceOnUse"
       id="clipPath60"><path
         d="m 70.8,544.56 453.6,0 0,226.56 -453.6,0 0,-226.56 z"
         clip-rule="evenodd"
         id="path62"
         inkscape:connector-curvature="0" /></clipPath><clipPath
       clipPathUnits="userSpaceOnUse"
       id="clipPath72"><path
         d="m 70.8,544.56 453.6,0 0,226.56 -453.6,0 0,-226.56 z"
         clip-rule="evenodd"
         id="path74"
         inkscape:connector-curvature="0" /></clipPath><clipPath
       clipPathUnits="userSpaceOnUse"
       id="clipPath84"><path
         d="m 70.8,544.56 453.6,0 0,226.56 -453.6,0 0,-226.56 z"
         clip-rule="evenodd"
         id="path86"
         inkscape:connector-curvature="0" /></clipPath><clipPath
       clipPathUnits="userSpaceOnUse"
       id="clipPath96"><path
         d="m 70.8,544.56 453.6,0 0,226.56 -453.6,0 0,-226.56 z"
         clip-rule="evenodd"
         id="path98"
         inkscape:connector-curvature="0" /></clipPath><clipPath
       clipPathUnits="userSpaceOnUse"
       id="clipPath108"><path
         d="m 70.8,544.56 453.6,0 0,226.56 -453.6,0 0,-226.56 z"
         clip-rule="evenodd"
         id="path110"
         inkscape:connector-curvature="0" /></clipPath><clipPath
       clipPathUnits="userSpaceOnUse"
       id="clipPath120"><path
         d="m 70.8,544.56 453.6,0 0,226.56 -453.6,0 0,-226.56 z"
         clip-rule="evenodd"
         id="path122"
         inkscape:connector-curvature="0" /></clipPath><clipPath
       clipPathUnits="userSpaceOnUse"
       id="clipPath132"><path
         d="m 70.8,544.56 453.6,0 0,226.56 -453.6,0 0,-226.56 z"
         clip-rule="evenodd"
         id="path134"
         inkscape:connector-curvature="0" /></clipPath><clipPath
       clipPathUnits="userSpaceOnUse"
       id="clipPath144"><path
         d="m 70.8,544.56 453.6,0 0,226.56 -453.6,0 0,-226.56 z"
         clip-rule="evenodd"
         id="path146"
         inkscape:connector-curvature="0" /></clipPath><clipPath
       clipPathUnits="userSpaceOnUse"
       id="clipPath156"><path
         d="m 70.8,544.56 453.6,0 0,226.56 -453.6,0 0,-226.56 z"
         clip-rule="evenodd"
         id="path158"
         inkscape:connector-curvature="0" /></clipPath><clipPath
       clipPathUnits="userSpaceOnUse"
       id="clipPath168"><path
         d="m 70.8,544.56 453.6,0 0,226.56 -453.6,0 0,-226.56 z"
         clip-rule="evenodd"
         id="path170"
         inkscape:connector-curvature="0" /></clipPath><clipPath
       clipPathUnits="userSpaceOnUse"
       id="clipPath180"><path
         d="m 70.8,544.56 453.6,0 0,226.56 -453.6,0 0,-226.56 z"
         clip-rule="evenodd"
         id="path182"
         inkscape:connector-curvature="0" /></clipPath><clipPath
       clipPathUnits="userSpaceOnUse"
       id="clipPath192"><path
         d="m 70.8,544.56 453.6,0 0,226.56 -453.6,0 0,-226.56 z"
         clip-rule="evenodd"
         id="path194"
         inkscape:connector-curvature="0" /></clipPath><clipPath
       clipPathUnits="userSpaceOnUse"
       id="clipPath204"><path
         d="m 70.8,544.56 453.6,0 0,226.56 -453.6,0 0,-226.56 z"
         clip-rule="evenodd"
         id="path206"
         inkscape:connector-curvature="0" /></clipPath><clipPath
       clipPathUnits="userSpaceOnUse"
       id="clipPath216"><path
         d="m 70.8,544.56 453.6,0 0,226.56 -453.6,0 0,-226.56 z"
         clip-rule="evenodd"
         id="path218"
         inkscape:connector-curvature="0" /></clipPath><clipPath
       clipPathUnits="userSpaceOnUse"
       id="clipPath228"><path
         d="m 70.8,544.56 453.6,0 0,226.56 -453.6,0 0,-226.56 z"
         clip-rule="evenodd"
         id="path230"
         inkscape:connector-curvature="0" /></clipPath><clipPath
       clipPathUnits="userSpaceOnUse"
       id="clipPath240"><path
         d="M 9.2e-7,534 595.32,534 l 0,237.12 -595.31999908,0 0,-237.12 z"
         clip-rule="evenodd"
         id="path242"
         inkscape:connector-curvature="0" /></clipPath></defs><sodipodi:namedview
     pagecolor="#ffffff"
     bordercolor="#666666"
     borderopacity="1"
     objecttolerance="10"
     gridtolerance="10"
     guidetolerance="10"
     inkscape:pageopacity="0"
     inkscape:pageshadow="2"
     inkscape:window-width="640"
     inkscape:window-height="480"
     id="namedview4"
     showgrid="false"
     fit-margin-top="0"
     fit-margin-left="0"
     fit-margin-right="0"
     fit-margin-bottom="0"
     inkscape:zoom="0.22424933"
     inkscape:cx="284.02501"
     inkscape:cy="-153.90001"
     inkscape:window-x="0"
     inkscape:window-y="0"
     inkscape:window-maximized="0"
     inkscape:current-layer="g10" /><g
     id="g10"
     inkscape:groupmode="layer"
     inkscape:label="Doc2"
     transform="matrix(1.25,0,0,-1.25,-88.05,963.9)"><path
       d="m 70.8,544.44 453.6,0 0,226.68 -453.6,0 0,-226.68 z"
       style="fill:#ffffff;fill-opacity:1;fill-rule:evenodd;stroke:none"
       id="path12"
       inkscape:connector-curvature="0" /><path
       d="m 125.16,596.76 388.32,0 m -388.32,18.12 388.32,0 m -388.32,18.24 388.32,0 m -388.32,18.12 388.32,0 m -388.32,18.12 388.32,0 m -388.32,18.12 388.32,0 m -388.32,18.12 388.32,0 m -388.32,18.24 388.32,0 m -388.32,18.12 388.32,0 m -388.32,18.12 388.32,0"
       style="fill:none;stroke:#d9d9d9;stroke-width:0.72000003;stroke-linecap:butt;stroke-linejoin:round;stroke-miterlimit:10;stroke-opacity:1;stroke-dasharray:none"
       id="path14"
       inkscape:connector-curvature="0" /><path
       d="m 158.52,592.08 30.36,0 0,-13.44 -30.36,0 0,13.44 z m 97.08,151.68 30.36,0 0,-165.12 -30.36,0 0,165.12 z m 96.96,-97.68 30.48,0 0,-67.44 -30.48,0 0,67.44 z m 97.08,-58.68 30.48,0 0,-8.76 -30.48,0 0,8.76 z"
       style="fill:#5b9bd5;fill-opacity:1;fill-rule:nonzero;stroke:none"
       id="path16"
       inkscape:connector-curvature="0" /><path
       d="m 125.16,578.64 388.32,0"
       style="fill:none;stroke:#d9d9d9;stroke-width:0.72000003;stroke-linecap:butt;stroke-linejoin:round;stroke-miterlimit:10;stroke-opacity:1;stroke-dasharray:none"
       id="path18"
       inkscape:connector-curvature="0" /><g
       id="g20"><g
         id="g22"
         clip-path="url(#clipPath24)"><text
           transform="matrix(1,0,0,-1,112.25,576.1)"
           id="text28"><tspan
             style="font-size:9px;font-variant:normal;font-weight:normal;writing-mode:lr-tb;fill:#595959;fill-opacity:1;fill-rule:nonzero;stroke:none;font-family:Calibri;-inkscape-font-specification:Calibri"
             x="0"
             y="0"
             id="tspan30">0</tspan></text>
</g></g><g
       id="g32"><g
         id="g34"
         clip-path="url(#clipPath36)"><text
           transform="matrix(1,0,0,-1,103.13,594.24)"
           id="text40"><tspan
             style="font-size:9px;font-variant:normal;font-weight:normal;writing-mode:lr-tb;fill:#595959;fill-opacity:1;fill-rule:nonzero;stroke:none;font-family:Calibri;-inkscape-font-specification:Calibri"
             x="0 4.5599999 9.1199999"
             y="0"
             sodipodi:role="line"
             id="tspan42">200</tspan></text>
</g></g><g
       id="g44"><g
         id="g46"
         clip-path="url(#clipPath48)"><text
           transform="matrix(1,0,0,-1,103.13,612.38)"
           id="text52"><tspan
             style="font-size:9px;font-variant:normal;font-weight:normal;writing-mode:lr-tb;fill:#595959;fill-opacity:1;fill-rule:nonzero;stroke:none;font-family:Calibri;-inkscape-font-specification:Calibri"
             x="0 4.5599999 9.1199999"
             y="0"
             sodipodi:role="line"
             id="tspan54">400</tspan></text>
</g></g><g
       id="g56"><g
         id="g58"
         clip-path="url(#clipPath60)"><text
           transform="matrix(1,0,0,-1,103.13,630.53)"
           id="text64"><tspan
             style="font-size:9px;font-variant:normal;font-weight:normal;writing-mode:lr-tb;fill:#595959;fill-opacity:1;fill-rule:nonzero;stroke:none;font-family:Calibri;-inkscape-font-specification:Calibri"
             x="0 4.5599999 9.1199999"
             y="0"
             sodipodi:role="line"
             id="tspan66">600</tspan></text>
</g></g><g
       id="g68"><g
         id="g70"
         clip-path="url(#clipPath72)"><text
           transform="matrix(1,0,0,-1,103.13,648.67)"
           id="text76"><tspan
             style="font-size:9px;font-variant:normal;font-weight:normal;writing-mode:lr-tb;fill:#595959;fill-opacity:1;fill-rule:nonzero;stroke:none;font-family:Calibri;-inkscape-font-specification:Calibri"
             x="0 4.5599999 9.1199999"
             y="0"
             sodipodi:role="line"
             id="tspan78">800</tspan></text>
</g></g><g
       id="g80"><g
         id="g82"
         clip-path="url(#clipPath84)"><text
           transform="matrix(1,0,0,-1,98.568,666.82)"
           id="text88"><tspan
             style="font-size:9px;font-variant:normal;font-weight:normal;writing-mode:lr-tb;fill:#595959;fill-opacity:1;fill-rule:nonzero;stroke:none;font-family:Calibri;-inkscape-font-specification:Calibri"
             x="0 4.5599999 9.1199999 13.68"
             y="0"
             sodipodi:role="line"
             id="tspan90">1000</tspan></text>
</g></g><g
       id="g92"><g
         id="g94"
         clip-path="url(#clipPath96)"><text
           transform="matrix(1,0,0,-1,98.568,684.96)"
           id="text100"><tspan
             style="font-size:9px;font-variant:normal;font-weight:normal;writing-mode:lr-tb;fill:#595959;fill-opacity:1;fill-rule:nonzero;stroke:none;font-family:Calibri;-inkscape-font-specification:Calibri"
             x="0 4.5599999 9.1199999 13.68"
             y="0"
             sodipodi:role="line"
             id="tspan102">1200</tspan></text>
</g></g><g
       id="g104"><g
         id="g106"
         clip-path="url(#clipPath108)"><text
           transform="matrix(1,0,0,-1,98.568,703.1)"
           id="text112"><tspan
             style="font-size:9px;font-variant:normal;font-weight:normal;writing-mode:lr-tb;fill:#595959;fill-opacity:1;fill-rule:nonzero;stroke:none;font-family:Calibri;-inkscape-font-specification:Calibri"
             x="0 4.5599999 9.1199999 13.68"
             y="0"
             sodipodi:role="line"
             id="tspan114">1400</tspan></text>
</g></g><g
       id="g116"><g
         id="g118"
         clip-path="url(#clipPath120)"><text
           transform="matrix(1,0,0,-1,98.568,721.25)"
           id="text124"><tspan
             style="font-size:9px;font-variant:normal;font-weight:normal;writing-mode:lr-tb;fill:#595959;fill-opacity:1;fill-rule:nonzero;stroke:none;font-family:Calibri;-inkscape-font-specification:Calibri"
             x="0 4.5599999 9.1199999 13.68"
             y="0"
             sodipodi:role="line"
             id="tspan126">1600</tspan></text>
</g></g><g
       id="g128"><g
         id="g130"
         clip-path="url(#clipPath132)"><text
           transform="matrix(1,0,0,-1,98.568,739.39)"
           id="text136"><tspan
             style="font-size:9px;font-variant:normal;font-weight:normal;writing-mode:lr-tb;fill:#595959;fill-opacity:1;fill-rule:nonzero;stroke:none;font-family:Calibri;-inkscape-font-specification:Calibri"
             x="0 4.5599999 9.1199999 13.68"
             y="0"
             sodipodi:role="line"
             id="tspan138">1800</tspan></text>
</g></g><g
       id="g140"><g
         id="g142"
         clip-path="url(#clipPath144)"><text
           transform="matrix(1,0,0,-1,98.568,757.54)"
           id="text148"><tspan
             style="font-size:9px;font-variant:normal;font-weight:normal;writing-mode:lr-tb;fill:#595959;fill-opacity:1;fill-rule:nonzero;stroke:none;font-family:Calibri;-inkscape-font-specification:Calibri"
             x="0 4.5599999 9.1199999 13.68"
             y="0"
             sodipodi:role="line"
             id="tspan150">2000</tspan></text>
</g></g><g
       id="g152"><g
         id="g154"
         clip-path="url(#clipPath156)"><text
           transform="matrix(1,0,0,-1,154.44,564.38)"
           id="text160"><tspan
             style="font-size:9px;font-variant:normal;font-weight:normal;writing-mode:lr-tb;fill:#595959;fill-opacity:1;fill-rule:nonzero;stroke:none;font-family:Calibri;-inkscape-font-specification:Calibri"
             x="0 5.6339998 9.9540005 13.788 21.483 23.517 26.243999 29.988001 35.765999"
             y="0"
             sodipodi:role="line"
             id="tspan162">HELM (LU)</tspan></text>
</g></g><g
       id="g164"><g
         id="g166"
         clip-path="url(#clipPath168)"><text
           transform="matrix(1,0,0,-1,239.88,564.38)"
           id="text172"><tspan
             style="font-size:9px;font-variant:normal;font-weight:normal;writing-mode:lr-tb;fill:#595959;fill-opacity:1;fill-rule:nonzero;stroke:none;font-family:Calibri;-inkscape-font-specification:Calibri"
             x="0 4.7969999 9.4770002 12.708 15.849 20.268 25.056 28.070999 30.105 32.373001 35.388 39.816002 42.957001 47.268002 50.256001 52.299 57.087002"
             y="0"
             sodipodi:role="line"
             id="tspan174">Current Iteration</tspan></text>
</g></g><g
       id="g176"><g
         id="g178"
         clip-path="url(#clipPath180)"><text
           transform="matrix(1,0,0,-1,252.77,553.39)"
           id="text184"><tspan
             style="font-size:9px;font-variant:normal;font-weight:normal;writing-mode:lr-tb;fill:#595959;fill-opacity:1;fill-rule:nonzero;stroke:none;font-family:Calibri;-inkscape-font-specification:Calibri"
             x="0 2.7539999 4.7969999 7.8119998 12.24 15.471 19.782 22.797001 24.830999 28.899 33.354"
             y="0"
             sodipodi:role="line"
             id="tspan186">(iterative)</tspan></text>
</g></g><g
       id="g188"><g
         id="g190"
         clip-path="url(#clipPath192)"><text
           transform="matrix(1,0,0,-1,324.46,564.38)"
           id="text196"><tspan
             style="font-size:9px;font-variant:normal;font-weight:normal;writing-mode:lr-tb;fill:#595959;fill-opacity:1;fill-rule:nonzero;stroke:none;font-family:Calibri;-inkscape-font-specification:Calibri"
             x="0 5.6339998 9.9540005 13.788 21.483 23.517 26.243999 29.988001 35.765999 38.493 40.527 47.015999 49.058998 52.074001 56.736 58.77 63.567001 68.363998 71.504997 74.600998 79.154999 83.834999"
             y="0"
             sodipodi:role="line"
             id="tspan198">HELM (LU) with Current</tspan></text>
</g></g><g
       id="g200"><g
         id="g202"
         clip-path="url(#clipPath204)"><text
           transform="matrix(1,0,0,-1,332.95,553.39)"
           id="text208"><tspan
             style="font-size:9px;font-variant:normal;font-weight:normal;writing-mode:lr-tb;fill:#595959;fill-opacity:1;fill-rule:nonzero;stroke:none;font-family:Calibri;-inkscape-font-specification:Calibri"
             x="0 2.2679999 5.283 9.7200003 12.951 17.153999 20.268 22.311001 26.990999 31.778999 33.813 36.459 38.610001 41.625 46.053001 49.194 53.505001 56.493 58.644001 62.604 67.157997"
             y="0"
             sodipodi:role="line"
             id="tspan210">Iteration (iterative)</tspan></text>
</g></g><g
       id="g212"><g
         id="g214"
         clip-path="url(#clipPath216)"><text
           transform="matrix(1,0,0,-1,444.5,564.38)"
           id="text220"><tspan
             style="font-size:9px;font-variant:normal;font-weight:normal;writing-mode:lr-tb;fill:#595959;fill-opacity:1;fill-rule:nonzero;stroke:none;font-family:Calibri;-inkscape-font-specification:Calibri"
             x="0 4.6529999 8.7840004 12.951 14.985 19.070999 21.339001 27.108 31.905001 37.179001"
             y="0"
             sodipodi:role="line"
             id="tspan222">PSS SINCAL</tspan></text>
</g></g><g
       id="g224"><g
         id="g226"
         clip-path="url(#clipPath228)"><text
           transform="matrix(-4.4e-8,1,1,4.4e-8,92.856,637.13)"
           id="text232"><tspan
             style="font-size:9.96000004px;font-variant:normal;font-weight:normal;writing-mode:lr-tb;fill:#595959;fill-opacity:1;fill-rule:nonzero;stroke:none;font-family:Calibri;-inkscape-font-specification:Calibri"
             x="0 4.9202399 7.21104 11.98188 17.270639 21.1152 26.03544 31.304279 33.694679 37.031281 39.322079 47.280121 52.170479 54.560879 57.558842 61.4034"
             y="0"
             sodipodi:role="line"
             id="tspan234">elapsed time [s]</tspan></text>
</g></g><g
       id="g236"><g
         id="g238"
         clip-path="url(#clipPath240)"><path
           d="m 70.8,544.44 453.6,0 0,226.68 -453.6,0 0,-226.68 z"
           style="fill:none;stroke:#d9d9d9;stroke-width:0.72000003;stroke-linecap:butt;stroke-linejoin:round;stroke-miterlimit:10;stroke-opacity:1;stroke-dasharray:none"
           id="path244"
           inkscape:connector-curvature="0" /></g></g></g></svg>