<?xml version="1.0" encoding="UTF-8" standalone="no"?>
<!-- Created with Inkscape (http://www.inkscape.org/) -->

<svg
   xmlns:dc="http://purl.org/dc/elements/1.1/"
   xmlns:cc="http://creativecommons.org/ns#"
   xmlns:rdf="http://www.w3.org/1999/02/22-rdf-syntax-ns#"
   xmlns:svg="http://www.w3.org/2000/svg"
   xmlns="http://www.w3.org/2000/svg"
   xmlns:sodipodi="http://sodipodi.sourceforge.net/DTD/sodipodi-0.dtd"
   xmlns:inkscape="http://www.inkscape.org/namespaces/inkscape"
   id="svg2"
   version="1.1"
   inkscape:version="0.48.5 r10040"
   width="585.00092"
   height="267.19421"
   xml:space="preserve"
   sodipodi:docname="Doc3.pdf"><metadata
     id="metadata8"><rdf:RDF><cc:Work
         rdf:about=""><dc:format>image/svg+xml</dc:format><dc:type
           rdf:resource="http://purl.org/dc/dcmitype/StillImage" /><dc:title></dc:title></cc:Work></rdf:RDF></metadata><defs
     id="defs6"><clipPath
       clipPathUnits="userSpaceOnUse"
       id="clipPath32"><path
         d="m 72,507 468,0 0,213 -468,0 0,-213 z"
         clip-rule="evenodd"
         id="path34"
         inkscape:connector-curvature="0" /></clipPath><clipPath
       clipPathUnits="userSpaceOnUse"
       id="clipPath44"><path
         d="m 72,507 468,0 0,213 -468,0 0,-213 z"
         clip-rule="evenodd"
         id="path46"
         inkscape:connector-curvature="0" /></clipPath><clipPath
       clipPathUnits="userSpaceOnUse"
       id="clipPath56"><path
         d="m 72,507 468,0 0,213 -468,0 0,-213 z"
         clip-rule="evenodd"
         id="path58"
         inkscape:connector-curvature="0" /></clipPath><clipPath
       clipPathUnits="userSpaceOnUse"
       id="clipPath68"><path
         d="m 72,507 468,0 0,213 -468,0 0,-213 z"
         clip-rule="evenodd"
         id="path70"
         inkscape:connector-curvature="0" /></clipPath><clipPath
       clipPathUnits="userSpaceOnUse"
       id="clipPath80"><path
         d="m 72,507 468,0 0,213 -468,0 0,-213 z"
         clip-rule="evenodd"
         id="path82"
         inkscape:connector-curvature="0" /></clipPath><clipPath
       clipPathUnits="userSpaceOnUse"
       id="clipPath92"><path
         d="m 72,507 468,0 0,213 -468,0 0,-213 z"
         clip-rule="evenodd"
         id="path94"
         inkscape:connector-curvature="0" /></clipPath><clipPath
       clipPathUnits="userSpaceOnUse"
       id="clipPath104"><path
         d="m 72,507 468,0 0,213 -468,0 0,-213 z"
         clip-rule="evenodd"
         id="path106"
         inkscape:connector-curvature="0" /></clipPath><clipPath
       clipPathUnits="userSpaceOnUse"
       id="clipPath116"><path
         d="m 72,507 468,0 0,213 -468,0 0,-213 z"
         clip-rule="evenodd"
         id="path118"
         inkscape:connector-curvature="0" /></clipPath><clipPath
       clipPathUnits="userSpaceOnUse"
       id="clipPath128"><path
         d="m 72,507 468,0 0,213 -468,0 0,-213 z"
         clip-rule="evenodd"
         id="path130"
         inkscape:connector-curvature="0" /></clipPath><clipPath
       clipPathUnits="userSpaceOnUse"
       id="clipPath140"><path
         d="m 72,507 468,0 0,213 -468,0 0,-213 z"
         clip-rule="evenodd"
         id="path142"
         inkscape:connector-curvature="0" /></clipPath><clipPath
       clipPathUnits="userSpaceOnUse"
       id="clipPath152"><path
         d="m 72,507 468,0 0,213 -468,0 0,-213 z"
         clip-rule="evenodd"
         id="path154"
         inkscape:connector-curvature="0" /></clipPath><clipPath
       clipPathUnits="userSpaceOnUse"
       id="clipPath164"><path
         d="m 72,507 468,0 0,213 -468,0 0,-213 z"
         clip-rule="evenodd"
         id="path166"
         inkscape:connector-curvature="0" /></clipPath><clipPath
       clipPathUnits="userSpaceOnUse"
       id="clipPath176"><path
         d="m 72,507 468,0 0,213 -468,0 0,-213 z"
         clip-rule="evenodd"
         id="path178"
         inkscape:connector-curvature="0" /></clipPath><clipPath
       clipPathUnits="userSpaceOnUse"
       id="clipPath190"><path
         d="m 72,507 468,0 0,213 -468,0 0,-213 z"
         clip-rule="evenodd"
         id="path192"
         inkscape:connector-curvature="0" /></clipPath><clipPath
       clipPathUnits="userSpaceOnUse"
       id="clipPath204"><path
         d="m 72,507 468,0 0,213 -468,0 0,-213 z"
         clip-rule="evenodd"
         id="path206"
         inkscape:connector-curvature="0" /></clipPath><clipPath
       clipPathUnits="userSpaceOnUse"
       id="clipPath218"><path
         d="m 72,507 468,0 0,213 -468,0 0,-213 z"
         clip-rule="evenodd"
         id="path220"
         inkscape:connector-curvature="0" /></clipPath><clipPath
       clipPathUnits="userSpaceOnUse"
       id="clipPath232"><path
         d="m 72,507 468,0 0,213 -468,0 0,-213 z"
         clip-rule="evenodd"
         id="path234"
         inkscape:connector-curvature="0" /></clipPath><clipPath
       clipPathUnits="userSpaceOnUse"
       id="clipPath246"><path
         d="m 72,507 468,0 0,213 -468,0 0,-213 z"
         clip-rule="evenodd"
         id="path248"
         inkscape:connector-curvature="0" /></clipPath><clipPath
       clipPathUnits="userSpaceOnUse"
       id="clipPath258"><path
         d="M 4.397e-6,496.5 612,496.5 612,720 4.397e-6,720 l 0,-223.5 z"
         clip-rule="evenodd"
         id="path260"
         inkscape:connector-curvature="0" /></clipPath></defs><sodipodi:namedview
     pagecolor="#ffffff"
     bordercolor="#666666"
     borderopacity="1"
     objecttolerance="10"
     gridtolerance="10"
     guidetolerance="10"
     inkscape:pageopacity="0"
     inkscape:pageshadow="2"
     inkscape:window-width="1366"
     inkscape:window-height="721"
     id="namedview4"
     showgrid="false"
     fit-margin-top="0"
     fit-margin-left="0"
     fit-margin-right="0"
     fit-margin-bottom="0"
     inkscape:zoom="1.3485026"
     inkscape:cx="208.3617"
     inkscape:cy="107.49739"
     inkscape:window-x="-3"
     inkscape:window-y="-3"
     inkscape:window-maximized="1"
     inkscape:current-layer="g10" /><g
     id="g10"
     inkscape:groupmode="layer"
     inkscape:label="Doc3"
     transform="matrix(1.25,0,0,-1.25,-89.999531,900)"><path
       d="m 72,507 468,0 0,213 -468,0 0,-213 z"
       style="fill:#ffffff;fill-opacity:1;fill-rule:evenodd;stroke:none"
       id="path12"
       inkscape:connector-curvature="0" /><path
       d="m 133.13,612.38 396,0 m -396,48 396,0 m -396,48.74 396,0"
       style="fill:none;stroke:#d9d9d9;stroke-width:0.75075001;stroke-linecap:butt;stroke-linejoin:round;stroke-miterlimit:10;stroke-opacity:1;stroke-dasharray:none"
       id="path14"
       inkscape:connector-curvature="0" /><path
       d="m 143.25,591 9.75,0 0,-27 -9.75,0 0,27 z m 79.5,21 9.75,0 0,-48 -9.75,0 0,48 z m 79.5,35.25 9,0 0,-83.25 -9,0 0,83.25 z m 78.75,-34.5 9.75,0 0,-48.75 -9.75,0 0,48.75 z m 79.5,37.5 9.75,0 0,-86.25 -9.75,0 0,86.25 z"
       style="fill:#5b9bd5;fill-opacity:1;fill-rule:nonzero;stroke:none"
       id="path16"
       inkscape:connector-curvature="0" /><path
       d="m 156,587.25 9,0 0,-23.25 -9,0 0,23.25 z m 78.75,72 9.75,0 0,-95.25 -9.75,0 0,95.25 z m 79.5,6 9.75,0 0,-101.25 -9.75,0 0,101.25 z m 78.75,-13.5 9.75,0 0,-87.75 -9.75,0 0,87.75 z m 79.5,6.75 9.75,0 0,-94.5 -9.75,0 0,94.5 z"
       style="fill:#ed7d31;fill-opacity:1;fill-rule:nonzero;stroke:none"
       id="path18"
       inkscape:connector-curvature="0" /><path
       d="m 168,663 9.75,0 0,-99 -9.75,0 0,99 z m 78.75,-5.25 9.75,0 0,-93.75 -9.75,0 0,93.75 z m 79.5,-0.75 9.75,0 0,-93 -9.75,0 0,93 z m 79.5,3 9,0 0,-96 -9,0 0,96 z m 78.75,-6 9.75,0 0,-90 -9.75,0 0,90 z"
       style="fill:#a5a5a5;fill-opacity:1;fill-rule:nonzero;stroke:none"
       id="path20"
       inkscape:connector-curvature="0" /><path
       d="m 180,627 9.75,0 0,-63 -9.75,0 0,63 z m 79.5,-2.25 9,0 0,-60.75 -9,0 0,60.75 z m 78.75,6.75 9.75,0 0,-67.5 -9.75,0 0,67.5 z m 79.5,-30.75 9.75,0 0,-36.75 -9.75,0 0,36.75 z m 78.75,23.25 9.75,0 0,-60 -9.75,0 0,60 z"
       style="fill:#ffc000;fill-opacity:1;fill-rule:nonzero;stroke:none"
       id="path22"
       inkscape:connector-curvature="0" /><path
       d="m 192,642 9.75,0 0,-78 -9.75,0 0,78 z m 79.5,-11.25 9.75,0 0,-66.75 -9.75,0 0,66.75 z m 78.75,5.25 9.75,0 0,-72 -9.75,0 0,72 z m 79.5,-9 9.75,0 0,-63 -9.75,0 0,63 z m 79.5,-13.5 9,0 0,-49.5 -9,0 0,49.5 z"
       style="fill:#4472c4;fill-opacity:1;fill-rule:nonzero;stroke:none"
       id="path24"
       inkscape:connector-curvature="0" /><path
       d="m 133.13,563.62 396,0"
       style="fill:none;stroke:#d9d9d9;stroke-width:0.75075001;stroke-linecap:butt;stroke-linejoin:round;stroke-miterlimit:10;stroke-opacity:1;stroke-dasharray:none"
       id="path26"
       inkscape:connector-curvature="0" /><g
       id="g28"><g
         id="g30"
         clip-path="url(#clipPath32)"><text
           transform="matrix(1,0,0,-1,104.4,561.28)"
           id="text36"><tspan
             style="font-size:9px;font-variant:normal;font-weight:normal;writing-mode:lr-tb;fill:#595959;fill-opacity:1;fill-rule:nonzero;stroke:none;font-family:Calibri;-inkscape-font-specification:Calibri"
             x="0 4.5 6.75 11.25 15.75"
             y="0"
             sodipodi:role="line"
             id="tspan38">0,001</tspan></text>
</g></g><g
       id="g40"><g
         id="g42"
         clip-path="url(#clipPath44)"><text
           transform="matrix(1,0,0,-1,108.95,609.72)"
           id="text48"><tspan
             style="font-size:9px;font-variant:normal;font-weight:normal;writing-mode:lr-tb;fill:#595959;fill-opacity:1;fill-rule:nonzero;stroke:none;font-family:Calibri;-inkscape-font-specification:Calibri"
             x="0 4.527 6.777 11.304"
             y="0"
             sodipodi:role="line"
             id="tspan50">0,01</tspan></text>
</g></g><g
       id="g52"><g
         id="g54"
         clip-path="url(#clipPath56)"><text
           transform="matrix(1,0,0,-1,113.52,658.2)"
           id="text60"><tspan
             style="font-size:9px;font-variant:normal;font-weight:normal;writing-mode:lr-tb;fill:#595959;fill-opacity:1;fill-rule:nonzero;stroke:none;font-family:Calibri;-inkscape-font-specification:Calibri"
             x="0 4.5 6.75"
             y="0"
             sodipodi:role="line"
             id="tspan62">0,1</tspan></text>
</g></g><g
       id="g64"><g
         id="g66"
         clip-path="url(#clipPath68)"><text
           transform="matrix(1,0,0,-1,120.35,706.65)"
           id="text72"><tspan
             style="font-size:9px;font-variant:normal;font-weight:normal;writing-mode:lr-tb;fill:#595959;fill-opacity:1;fill-rule:nonzero;stroke:none;font-family:Calibri;-inkscape-font-specification:Calibri"
             x="0"
             y="0"
             id="tspan74">1</tspan></text>
</g></g><g
       id="g76"><g
         id="g78"
         clip-path="url(#clipPath80)"><text
           transform="matrix(1,0,0,-1,150.55,549.55)"
           id="text84"><tspan
             style="font-size:9px;font-variant:normal;font-weight:normal;writing-mode:lr-tb;fill:#595959;fill-opacity:1;fill-rule:nonzero;stroke:none;font-family:Calibri;-inkscape-font-specification:Calibri"
             x="0 5.2470002 9.7379999 13.491 21.735001 23.238001 27.738001 32.976002 34.479 39.716999 41.958"
             y="0"
             sodipodi:role="line"
             id="tspan86">HELM 64 Bit</tspan></text>
</g></g><g
       id="g88"><g
         id="g90"
         clip-path="url(#clipPath92)"><text
           transform="matrix(1,0,0,-1,227.55,549.55)"
           id="text96"><tspan
             style="font-size:9px;font-variant:normal;font-weight:normal;writing-mode:lr-tb;fill:#595959;fill-opacity:1;fill-rule:nonzero;stroke:none;font-family:Calibri;-inkscape-font-specification:Calibri"
             x="0 5.2470002 9.7379999 13.491 21.735001 23.238001 27.738001 32.976002 37.476002 38.979 44.216999 46.458"
             y="0"
             sodipodi:role="line"
             id="tspan98">HELM 200 Bit</tspan></text>
</g></g><g
       id="g100"><g
         id="g102"
         clip-path="url(#clipPath104)"><text
           transform="matrix(1,0,0,-1,300.5,549.55)"
           id="text108"><tspan
             style="font-size:9px;font-variant:normal;font-weight:normal;writing-mode:lr-tb;fill:#595959;fill-opacity:1;fill-rule:nonzero;stroke:none;font-family:Calibri;-inkscape-font-specification:Calibri"
             x="0 4.5 9.7379999 12.735 15.732 20.214001 24.732 27.747 29.969999 32.237999 35.216999 39.699001 42.714001 47.205002 50.220001 52.443001 56.943001"
             y="0"
             sodipodi:role="line"
             id="tspan110">Current Iteration</tspan></text>
</g></g><g
       id="g112"><g
         id="g114"
         clip-path="url(#clipPath116)"><text
           transform="matrix(1,0,0,-1,378.88,549.55)"
           id="text120"><tspan
             style="font-size:9px;font-variant:normal;font-weight:normal;writing-mode:lr-tb;fill:#595959;fill-opacity:1;fill-rule:nonzero;stroke:none;font-family:Calibri;-inkscape-font-specification:Calibri"
             x="0 6.0120001 10.53 16.551001 19.566 24.813 29.34 32.327999 36.855 41.373001 45.900002 51.165001 54.161999 59.426998"
             y="0"
             sodipodi:role="line"
             id="tspan122">Newton-Raphson</tspan></text>
</g></g><g
       id="g124"><g
         id="g126"
         clip-path="url(#clipPath128)"><text
           transform="matrix(1,0,0,-1,458.5,549.55)"
           id="text132"><tspan
             style="font-size:9px;font-variant:normal;font-weight:normal;writing-mode:lr-tb;fill:#595959;fill-opacity:1;fill-rule:nonzero;stroke:none;font-family:Calibri;-inkscape-font-specification:Calibri"
             x="0 5.2740002 9.7919998 13.545 21.806999 23.309999 27.837 33.102001 34.605 39.869999 42.111 45.125999 46.611 53.379002 55.619999 58.634998"
             y="0"
             sodipodi:role="line"
             id="tspan134">HELM 64 Bit with</tspan></text>
</g></g><g
       id="g136"><g
         id="g138"
         clip-path="url(#clipPath140)"><text
           transform="matrix(1,0,0,-1,459.05,538.58)"
           id="text144"><tspan
             style="font-size:9.02499962px;font-variant:normal;font-weight:normal;writing-mode:lr-tb;fill:#595959;fill-opacity:1;fill-rule:nonzero;stroke:none;font-family:Calibri;-inkscape-font-specification:Calibri"
             x="0 4.5034752 9.7469997 12.7433 15.7396 20.234051 24.737526 27.7609 29.98105 32.255348 35.233601 39.72805 42.733376 47.227825 50.251202 52.471352 56.974827"
             y="0"
             sodipodi:role="line"
             id="tspan146">Current Iteration</tspan></text>
</g></g><g
       id="g148"><g
         id="g150"
         clip-path="url(#clipPath152)"><text
           transform="matrix(-4.4e-8,1,1,4.4e-8,94.375,620.65)"
           id="text156"><tspan
             style="font-size:9.75px;font-variant:normal;font-weight:normal;writing-mode:lr-tb;fill:#595959;fill-opacity:1;fill-rule:nonzero;stroke:none;font-family:Arial;-inkscape-font-specification:Arial"
             x="0"
             y="0"
             id="tspan158">σ</tspan></text>
</g></g><g
       id="g160"><g
         id="g162"
         clip-path="url(#clipPath164)"><text
           transform="matrix(-4.4e-8,1,1,4.4e-8,95.875,626.65)"
           id="text168"><tspan
             style="font-size:6.75px;font-variant:normal;font-weight:normal;writing-mode:lr-tb;fill:#595959;fill-opacity:1;fill-rule:nonzero;stroke:none;font-family:Arial;-inkscape-font-specification:Arial"
             x="0 2.2409999 4.4819999 6.7297502 10.48275"
             y="0"
             sodipodi:role="line"
             id="tspan170">t,rel</tspan></text>
</g></g><g
       id="g172"><g
         id="g174"
         clip-path="url(#clipPath176)"><text
           transform="matrix(-4.4e-8,1,1,4.4e-8,94.375,640.17)"
           id="text180"><tspan
             style="font-size:9.75px;font-variant:normal;font-weight:normal;writing-mode:lr-tb;fill:#595959;fill-opacity:1;fill-rule:nonzero;stroke:none;font-family:Calibri;-inkscape-font-specification:Calibri"
             x="0 2.9932499 8.2387505"
             y="0"
             sodipodi:role="line"
             id="tspan182">[1]</tspan></text>
</g></g><path
       d="m 102.75,519 5.25,0 0,4.5 -5.25,0 0,-4.5 z"
       style="fill:#5b9bd5;fill-opacity:1;fill-rule:evenodd;stroke:none"
       id="path184"
       inkscape:connector-curvature="0" /><g
       id="g186"><g
         id="g188"
         clip-path="url(#clipPath190)"><text
           transform="matrix(1,0,0,-1,109.97,518.63)"
           id="text194"><tspan
             style="font-size:9.02499962px;font-variant:normal;font-weight:normal;writing-mode:lr-tb;fill:#595959;fill-opacity:1;fill-rule:nonzero;stroke:none;font-family:Calibri;-inkscape-font-specification:Calibri"
             x="0 5.2705998 10.532175 13.528475 16.515751 21.019224 25.513676 28.53705"
             y="0"
             sodipodi:role="line"
             id="tspan196">Dorfnetz</tspan></text>
</g></g><path
       d="m 148.5,519 5.25,0 0,4.5 -5.25,0 0,-4.5 z"
       style="fill:#ed7d31;fill-opacity:1;fill-rule:evenodd;stroke:none"
       id="path198"
       inkscape:connector-curvature="0" /><g
       id="g200"><g
         id="g202"
         clip-path="url(#clipPath204)"><text
           transform="matrix(1,0,0,-1,156.05,518.63)"
           id="text208"><tspan
             style="font-size:9.02499962px;font-variant:normal;font-weight:normal;writing-mode:lr-tb;fill:#595959;fill-opacity:1;fill-rule:nonzero;stroke:none;font-family:Calibri;-inkscape-font-specification:Calibri"
             x="0 3.7544 8.2488499 12.752325 17.2558 22.499325 26.993774 30.017151 32.995399 35.233601 39.72805 42.72435 47.2188 49.466026 50.964176 55.458626 57.705849 60.729225 65.205627 70.44915 74.203552 76.44175"
             y="0"
             sodipodi:role="line"
             id="tspan210">Landnetz Freileitung 1</tspan></text>
</g></g><path
       d="m 243.75,519 5.25,0 0,4.5 -5.25,0 0,-4.5 z"
       style="fill:#a5a5a5;fill-opacity:1;fill-rule:evenodd;stroke:none"
       id="path212"
       inkscape:connector-curvature="0" /><g
       id="g214"><g
         id="g216"
         clip-path="url(#clipPath218)"><text
           transform="matrix(1,0,0,-1,251.35,518.63)"
           id="text222"><tspan
             style="font-size:9.02499962px;font-variant:normal;font-weight:normal;writing-mode:lr-tb;fill:#595959;fill-opacity:1;fill-rule:nonzero;stroke:none;font-family:Calibri;-inkscape-font-specification:Calibri"
             x="0 3.7544 8.2488499 12.752325 17.2558 22.499325 26.993774 30.017151 32.995399 35.233601 39.72805 42.72435 47.2188 49.466026 50.964176 55.458626 57.705849 60.729225 65.205627 70.44915 74.203552 76.44175"
             y="0"
             sodipodi:role="line"
             id="tspan224">Landnetz Freileitung 2</tspan></text>
</g></g><path
       d="m 339,519 5.25,0 0,4.5 -5.25,0 0,-4.5 z"
       style="fill:#ffc000;fill-opacity:1;fill-rule:evenodd;stroke:none"
       id="path226"
       inkscape:connector-curvature="0" /><g
       id="g228"><g
         id="g230"
         clip-path="url(#clipPath232)"><text
           transform="matrix(1,0,0,-1,346.65,518.63)"
           id="text236"><tspan
             style="font-size:9.02499962px;font-variant:normal;font-weight:normal;writing-mode:lr-tb;fill:#595959;fill-opacity:1;fill-rule:nonzero;stroke:none;font-family:Calibri;-inkscape-font-specification:Calibri"
             x="0 5.243525 9.7469997 12.7433 16.488674 19.512051 23.979425 28.482901 31.506275 35.982674 40.477123 43.5005 47.227825 49.466026 53.969501 58.463951 62.967426 67.461876 69.709099 71.947304"
             y="0"
             sodipodi:role="line"
             id="tspan238">Vorstadtnetz Kabel 1</tspan></text>
</g></g><path
       d="m 429.75,519 4.5,0 0,4.5 -4.5,0 0,-4.5 z"
       style="fill:#4472c4;fill-opacity:1;fill-rule:evenodd;stroke:none"
       id="path240"
       inkscape:connector-curvature="0" /><g
       id="g242"><g
         id="g244"
         clip-path="url(#clipPath246)"><text
           transform="matrix(1,0,0,-1,437.08,518.63)"
           id="text250"><tspan
             style="font-size:9.02499962px;font-variant:normal;font-weight:normal;writing-mode:lr-tb;fill:#595959;fill-opacity:1;fill-rule:nonzero;stroke:none;font-family:Calibri;-inkscape-font-specification:Calibri"
             x="0 5.243525 9.7469997 12.7433 16.488674 19.512051 23.979425 28.482901 31.506275 35.982674 40.477123 43.5005 47.227825 49.466026 53.969501 58.463951 62.967426 67.461876 69.709099 71.947304"
             y="0"
             sodipodi:role="line"
             id="tspan252">Vorstadtnetz Kabel 2</tspan></text>
</g></g><g
       id="g254"><g
         id="g256"
         clip-path="url(#clipPath258)"><path
           d="m 72.375,506.62 467.25,0 0,213 -467.25,0 0,-213 z"
           style="fill:none;stroke:#d9d9d9;stroke-width:0.75075001;stroke-linecap:butt;stroke-linejoin:round;stroke-miterlimit:10;stroke-opacity:1;stroke-dasharray:none"
           id="path262"
           inkscape:connector-curvature="0" /></g></g></g></svg>