<?xml version="1.0" encoding="UTF-8" standalone="no"?>
<!-- Created with Inkscape (http://www.inkscape.org/) -->

<svg
   xmlns:dc="http://purl.org/dc/elements/1.1/"
   xmlns:cc="http://creativecommons.org/ns#"
   xmlns:rdf="http://www.w3.org/1999/02/22-rdf-syntax-ns#"
   xmlns:svg="http://www.w3.org/2000/svg"
   xmlns="http://www.w3.org/2000/svg"
   xmlns:sodipodi="http://sodipodi.sourceforge.net/DTD/sodipodi-0.dtd"
   xmlns:inkscape="http://www.inkscape.org/namespaces/inkscape"
   id="svg2"
   version="1.1"
   inkscape:version="0.48.5 r10040"
   width="61.110222"
   height="8.706665"
   xml:space="preserve"
   sodipodi:docname="Doc2.pdf"><metadata
     id="metadata8"><rdf:RDF><cc:Work
         rdf:about=""><dc:format>image/svg+xml</dc:format><dc:type
           rdf:resource="http://purl.org/dc/dcmitype/StillImage" /><dc:title></dc:title></cc:Work></rdf:RDF></metadata><defs
     id="defs6"><clipPath
       clipPathUnits="userSpaceOnUse"
       id="clipPath32"><path
         d="m 72,507 468,0 0,213 -468,0 0,-213 z"
         clip-rule="evenodd"
         id="path34"
         inkscape:connector-curvature="0" /></clipPath><clipPath
       clipPathUnits="userSpaceOnUse"
       id="clipPath44"><path
         d="m 72,507 468,0 0,213 -468,0 0,-213 z"
         clip-rule="evenodd"
         id="path46"
         inkscape:connector-curvature="0" /></clipPath><clipPath
       clipPathUnits="userSpaceOnUse"
       id="clipPath56"><path
         d="m 72,507 468,0 0,213 -468,0 0,-213 z"
         clip-rule="evenodd"
         id="path58"
         inkscape:connector-curvature="0" /></clipPath><clipPath
       clipPathUnits="userSpaceOnUse"
       id="clipPath68"><path
         d="m 72,507 468,0 0,213 -468,0 0,-213 z"
         clip-rule="evenodd"
         id="path70"
         inkscape:connector-curvature="0" /></clipPath><clipPath
       clipPathUnits="userSpaceOnUse"
       id="clipPath80"><path
         d="m 72,507 468,0 0,213 -468,0 0,-213 z"
         clip-rule="evenodd"
         id="path82"
         inkscape:connector-curvature="0" /></clipPath><clipPath
       clipPathUnits="userSpaceOnUse"
       id="clipPath92"><path
         d="m 72,507 468,0 0,213 -468,0 0,-213 z"
         clip-rule="evenodd"
         id="path94"
         inkscape:connector-curvature="0" /></clipPath><clipPath
       clipPathUnits="userSpaceOnUse"
       id="clipPath104"><path
         d="m 72,507 468,0 0,213 -468,0 0,-213 z"
         clip-rule="evenodd"
         id="path106"
         inkscape:connector-curvature="0" /></clipPath><clipPath
       clipPathUnits="userSpaceOnUse"
       id="clipPath116"><path
         d="m 72,507 468,0 0,213 -468,0 0,-213 z"
         clip-rule="evenodd"
         id="path118"
         inkscape:connector-curvature="0" /></clipPath><clipPath
       clipPathUnits="userSpaceOnUse"
       id="clipPath128"><path
         d="m 72,507 468,0 0,213 -468,0 0,-213 z"
         clip-rule="evenodd"
         id="path130"
         inkscape:connector-curvature="0" /></clipPath><clipPath
       clipPathUnits="userSpaceOnUse"
       id="clipPath140"><path
         d="m 72,507 468,0 0,213 -468,0 0,-213 z"
         clip-rule="evenodd"
         id="path142"
         inkscape:connector-curvature="0" /></clipPath><clipPath
       clipPathUnits="userSpaceOnUse"
       id="clipPath152"><path
         d="m 72,507 468,0 0,213 -468,0 0,-213 z"
         clip-rule="evenodd"
         id="path154"
         inkscape:connector-curvature="0" /></clipPath><clipPath
       clipPathUnits="userSpaceOnUse"
       id="clipPath164"><path
         d="m 72,507 468,0 0,213 -468,0 0,-213 z"
         clip-rule="evenodd"
         id="path166"
         inkscape:connector-curvature="0" /></clipPath><clipPath
       clipPathUnits="userSpaceOnUse"
       id="clipPath178"><path
         d="m 72,507 468,0 0,213 -468,0 0,-213 z"
         clip-rule="evenodd"
         id="path180"
         inkscape:connector-curvature="0" /></clipPath><clipPath
       clipPathUnits="userSpaceOnUse"
       id="clipPath192"><path
         d="m 72,507 468,0 0,213 -468,0 0,-213 z"
         clip-rule="evenodd"
         id="path194"
         inkscape:connector-curvature="0" /></clipPath><clipPath
       clipPathUnits="userSpaceOnUse"
       id="clipPath206"><path
         d="m 72,507 468,0 0,213 -468,0 0,-213 z"
         clip-rule="evenodd"
         id="path208"
         inkscape:connector-curvature="0" /></clipPath><clipPath
       clipPathUnits="userSpaceOnUse"
       id="clipPath220"><path
         d="m 72,507 468,0 0,213 -468,0 0,-213 z"
         clip-rule="evenodd"
         id="path222"
         inkscape:connector-curvature="0" /></clipPath><clipPath
       clipPathUnits="userSpaceOnUse"
       id="clipPath234"><path
         d="m 72,507 468,0 0,213 -468,0 0,-213 z"
         clip-rule="evenodd"
         id="path236"
         inkscape:connector-curvature="0" /></clipPath><clipPath
       clipPathUnits="userSpaceOnUse"
       id="clipPath246"><path
         d="M 4.397e-6,496.5 612,496.5 612,720 4.397e-6,720 l 0,-223.5 z"
         clip-rule="evenodd"
         id="path248"
         inkscape:connector-curvature="0" /></clipPath></defs><sodipodi:namedview
     pagecolor="#ffffff"
     bordercolor="#666666"
     borderopacity="1"
     objecttolerance="10"
     gridtolerance="10"
     guidetolerance="10"
     inkscape:pageopacity="0"
     inkscape:pageshadow="2"
     inkscape:window-width="1366"
     inkscape:window-height="721"
     id="namedview4"
     showgrid="false"
     fit-margin-top="0"
     fit-margin-left="0"
     fit-margin-right="0"
     fit-margin-bottom="0"
     inkscape:zoom="0.95353535"
     inkscape:cx="68.640425"
     inkscape:cy="24.711887"
     inkscape:window-x="-3"
     inkscape:window-y="-3"
     inkscape:window-maximized="1"
     inkscape:current-layer="g10" /><g
     id="g10"
     inkscape:groupmode="layer"
     inkscape:label="Doc2"
     transform="matrix(1.25,0,0,-1.25,-281.54163,695.48486)"><path
       d="m 72,507 468,0 0,213 -468,0 0,-213 z"
       style="fill:#ffffff;fill-opacity:1;fill-rule:evenodd;stroke:none"
       id="path12"
       inkscape:connector-curvature="0" /><path
       d="m 128.63,600.38 400.5,0 m -400.5,36 400.5,0 m -400.5,35.99 400.5,0 m -400.5,36.75 400.5,0"
       style="fill:none;stroke:#d9d9d9;stroke-width:0.75075001;stroke-linecap:butt;stroke-linejoin:round;stroke-miterlimit:10;stroke-opacity:1;stroke-dasharray:none"
       id="path14"
       inkscape:connector-curvature="0" /><path
       d="m 139.5,612 9,0 0,-48 -9,0 0,48 z m 79.5,48 9.75,0 0,-96 -9.75,0 0,96 z m 80.25,-48 9.75,0 0,-48 -9.75,0 0,48 z m 80.25,49.5 9.75,0 0,-97.5 -9.75,0 0,97.5 z m 80.25,-49.5 9.75,0 0,-48 -9.75,0 0,48 z"
       style="fill:#5b9bd5;fill-opacity:1;fill-rule:nonzero;stroke:none"
       id="path16"
       inkscape:connector-curvature="0" /><path
       d="m 151.5,598.5 9.75,0 0,-34.5 -9.75,0 0,34.5 z m 80.25,6.75 9.75,0 0,-41.25 -9.75,0 0,41.25 z m 80.25,-3.75 9,0 0,-37.5 -9,0 0,37.5 z m 79.5,-0.75 9.75,0 0,-36.75 -9.75,0 0,36.75 z m 80.25,-0.75 9.75,0 0,-36 -9.75,0 0,36 z"
       style="fill:#ed7d31;fill-opacity:1;fill-rule:nonzero;stroke:none"
       id="path18"
       inkscape:connector-curvature="0" /><path
       d="m 163.5,598.5 9.75,0 0,-34.5 -9.75,0 0,34.5 z m 80.25,3 9.75,0 0,-37.5 -9.75,0 0,37.5 z m 80.25,-2.25 9.75,0 0,-35.25 -9.75,0 0,35.25 z m 80.25,0.75 9.75,0 0,-36 -9.75,0 0,36 z m 79.5,-1.5 9.75,0 0,-34.5 -9.75,0 0,34.5 z"
       style="fill:#a5a5a5;fill-opacity:1;fill-rule:nonzero;stroke:none"
       id="path20"
       inkscape:connector-curvature="0" /><path
       d="m 176.25,621.75 9.75,0 0,-57.75 -9.75,0 0,57.75 z m 80.25,65.25 9,0 0,-123 -9,0 0,123 z m 79.5,-64.5 9.75,0 0,-58.5 -9.75,0 0,58.5 z m 80.25,79.5 9.75,0 0,-138 -9.75,0 0,138 z m 80.25,-80.25 9.75,0 0,-57.75 -9.75,0 0,57.75 z"
       style="fill:#ffc000;fill-opacity:1;fill-rule:nonzero;stroke:none"
       id="path22"
       inkscape:connector-curvature="0" /><path
       d="m 188.25,621.75 9.75,0 0,-57.75 -9.75,0 0,57.75 z m 80.25,66.75 9.75,0 0,-124.5 -9.75,0 0,124.5 z m 80.25,-66 9.75,0 0,-58.5 -9.75,0 0,58.5 z m 79.5,79.5 9.75,0 0,-138 -9.75,0 0,138 z m 80.25,-80.25 9.75,0 0,-57.75 -9.75,0 0,57.75 z"
       style="fill:#4472c4;fill-opacity:1;fill-rule:nonzero;stroke:none"
       id="path24"
       inkscape:connector-curvature="0" /><path
       d="m 128.63,563.62 400.5,0"
       style="fill:none;stroke:#d9d9d9;stroke-width:0.75075001;stroke-linecap:butt;stroke-linejoin:round;stroke-miterlimit:10;stroke-opacity:1;stroke-dasharray:none"
       id="path26"
       inkscape:connector-curvature="0" /><g
       id="g28"><g
         id="g30"
         clip-path="url(#clipPath32)"><text
           transform="matrix(1,0,0,-1,104.4,561.28)"
           id="text36"><tspan
             style="font-size:9px;font-variant:normal;font-weight:normal;writing-mode:lr-tb;fill:#595959;fill-opacity:1;fill-rule:nonzero;stroke:none;font-family:Calibri;-inkscape-font-specification:Calibri"
             x="0 4.5 6.75 11.25"
             y="0"
             sodipodi:role="line"
             id="tspan38">0,01</tspan></text>
</g></g><g
       id="g40"><g
         id="g42"
         clip-path="url(#clipPath44)"><text
           transform="matrix(1,0,0,-1,108.95,597.63)"
           id="text48"><tspan
             style="font-size:9.02499962px;font-variant:normal;font-weight:normal;writing-mode:lr-tb;fill:#595959;fill-opacity:1;fill-rule:nonzero;stroke:none;font-family:Calibri;-inkscape-font-specification:Calibri"
             x="0 4.5215249 6.7777748"
             y="0"
             sodipodi:role="line"
             id="tspan50">0,1</tspan></text>
</g></g><g
       id="g52"><g
         id="g54"
         clip-path="url(#clipPath56)"><text
           transform="matrix(1,0,0,-1,115.77,633.97)"
           id="text60"><tspan
             style="font-size:9.02499962px;font-variant:normal;font-weight:normal;writing-mode:lr-tb;fill:#595959;fill-opacity:1;fill-rule:nonzero;stroke:none;font-family:Calibri;-inkscape-font-specification:Calibri"
             x="0"
             y="0"
             id="tspan62">1</tspan></text>
</g></g><g
       id="g64"><g
         id="g66"
         clip-path="url(#clipPath68)"><text
           transform="matrix(1,0,0,-1,111.2,670.3)"
           id="text72"><tspan
             style="font-size:9px;font-variant:normal;font-weight:normal;writing-mode:lr-tb;fill:#595959;fill-opacity:1;fill-rule:nonzero;stroke:none;font-family:Calibri;-inkscape-font-specification:Calibri"
             x="0 4.5"
             y="0"
             sodipodi:role="line"
             id="tspan74">10</tspan></text>
</g></g><g
       id="g76"><g
         id="g78"
         clip-path="url(#clipPath80)"><text
           transform="matrix(1,0,0,-1,106.65,706.65)"
           id="text84"><tspan
             style="font-size:9px;font-variant:normal;font-weight:normal;writing-mode:lr-tb;fill:#595959;fill-opacity:1;fill-rule:nonzero;stroke:none;font-family:Calibri;-inkscape-font-specification:Calibri"
             x="0 4.5 9"
             y="0"
             sodipodi:role="line"
             id="tspan86">100</tspan></text>
</g></g><g
       id="g88"><g
         id="g90"
         clip-path="url(#clipPath92)"><text
           transform="matrix(1,0,0,-1,146.45,549.55)"
           id="text96"><tspan
             style="font-size:9px;font-variant:normal;font-weight:normal;writing-mode:lr-tb;fill:#595959;fill-opacity:1;fill-rule:nonzero;stroke:none;font-family:Calibri;-inkscape-font-specification:Calibri"
             x="0 5.2470002 9.7379999 13.491 21.735001 23.238001 27.738001 32.976002 34.479 39.716999 41.958"
             y="0"
             sodipodi:role="line"
             id="tspan98">HELM 64 Bit</tspan></text>
</g></g><g
       id="g100"><g
         id="g102"
         clip-path="url(#clipPath104)"><text
           transform="matrix(1,0,0,-1,224.35,549.55)"
           id="text108"><tspan
             style="font-size:9px;font-variant:normal;font-weight:normal;writing-mode:lr-tb;fill:#595959;fill-opacity:1;fill-rule:nonzero;stroke:none;font-family:Calibri;-inkscape-font-specification:Calibri"
             x="0 5.2470002 9.7379999 13.491 21.735001 23.238001 27.738001 32.976002 37.476002 38.979 44.216999 46.458"
             y="0"
             sodipodi:role="line"
             id="tspan110">HELM 200 Bit</tspan></text>
</g></g><g
       id="g112"><g
         id="g114"
         clip-path="url(#clipPath116)"><text
           transform="matrix(1,0,0,-1,298.23,549.55)"
           id="text120"><tspan
             style="font-size:9px;font-variant:normal;font-weight:normal;writing-mode:lr-tb;fill:#595959;fill-opacity:1;fill-rule:nonzero;stroke:none;font-family:Calibri;-inkscape-font-specification:Calibri"
             x="0 4.5 9.7379999 12.735 15.732 20.214001 24.732 27.747 29.969999 32.237999 35.216999 39.699001 42.714001 47.205002 50.220001 52.443001 56.943001"
             y="0"
             sodipodi:role="line"
             id="tspan122">Current Iteration</tspan></text>
</g></g><g
       id="g124"><g
         id="g126"
         clip-path="url(#clipPath128)"><text
           transform="matrix(1,0,0,-1,377.53,549.55)"
           id="text132"><tspan
             style="font-size:9px;font-variant:normal;font-weight:normal;writing-mode:lr-tb;fill:#595959;fill-opacity:1;fill-rule:nonzero;stroke:none;font-family:Calibri;-inkscape-font-specification:Calibri"
             x="0 5.994 10.476 16.497 19.511999 24.740999 29.240999 32.229 36.729 41.220001 45.720001 50.958 53.955002 59.193001"
             y="0"
             sodipodi:role="line"
             id="tspan134">Newton-Raphson</tspan></text>
</g></g><g
       id="g136"><g
         id="g138"
         clip-path="url(#clipPath140)"><text
           transform="matrix(1,0,0,-1,458.05,549.55)"
           id="text144"><tspan
             style="font-size:9px;font-variant:normal;font-weight:normal;writing-mode:lr-tb;fill:#595959;fill-opacity:1;fill-rule:nonzero;stroke:none;font-family:Calibri;-inkscape-font-specification:Calibri"
             x="0 5.2470002 9.7379999 13.491 21.735001 23.238001 27.738001 32.976002 34.479 39.716999 41.958 44.973 46.458 53.199001 55.439999 58.455002"
             y="0"
             sodipodi:role="line"
             id="tspan146">HELM 64 Bit with</tspan></text>
</g></g><g
       id="g148"><g
         id="g150"
         clip-path="url(#clipPath152)"><text
           transform="matrix(1,0,0,-1,458.6,538.58)"
           id="text156"><tspan
             style="font-size:9.02499962px;font-variant:normal;font-weight:normal;writing-mode:lr-tb;fill:#595959;fill-opacity:1;fill-rule:nonzero;stroke:none;font-family:Calibri;-inkscape-font-specification:Calibri"
             x="0 4.5034752 9.7469997 12.7433 15.7396 20.234051 24.737526 27.7609 29.98105 32.255348 35.233601 39.72805 42.733376 47.227825 50.251202 52.471352 56.974827"
             y="0"
             sodipodi:role="line"
             id="tspan158">Current Iteration</tspan></text>
</g></g><g
       id="g160"><g
         id="g162"
         clip-path="url(#clipPath164)"><text
           transform="matrix(-4.4e-8,1,1,4.4e-8,94.375,628.15)"
           id="text168"><tspan
             style="font-size:9.75px;font-variant:normal;font-weight:normal;writing-mode:lr-tb;fill:#595959;fill-opacity:1;fill-rule:nonzero;stroke:none;font-family:Calibri;-inkscape-font-specification:Calibri"
             x="0 3.003 5.2455001 8.2387505 12.7335"
             y="0"
             sodipodi:role="line"
             id="tspan170">t [s]</tspan></text>
</g></g><path
       d="m 102.75,519 5.25,0 0,4.5 -5.25,0 0,-4.5 z"
       style="fill:#5b9bd5;fill-opacity:1;fill-rule:evenodd;stroke:none"
       id="path172"
       inkscape:connector-curvature="0" /><g
       id="g174"><g
         id="g176"
         clip-path="url(#clipPath178)"><text
           transform="matrix(1,0,0,-1,109.97,518.63)"
           id="text182"><tspan
             style="font-size:9.02499962px;font-variant:normal;font-weight:normal;writing-mode:lr-tb;fill:#595959;fill-opacity:1;fill-rule:nonzero;stroke:none;font-family:Calibri;-inkscape-font-specification:Calibri"
             x="0 5.2705998 10.532175 13.528475 16.515751 21.019224 25.513676 28.53705"
             y="0"
             sodipodi:role="line"
             id="tspan184">Dorfnetz</tspan></text>
</g></g><path
       d="m 148.5,519 5.25,0 0,4.5 -5.25,0 0,-4.5 z"
       style="fill:#ed7d31;fill-opacity:1;fill-rule:evenodd;stroke:none"
       id="path186"
       inkscape:connector-curvature="0" /><g
       id="g188"><g
         id="g190"
         clip-path="url(#clipPath192)"><text
           transform="matrix(1,0,0,-1,156.05,518.63)"
           id="text196"><tspan
             style="font-size:9.02499962px;font-variant:normal;font-weight:normal;writing-mode:lr-tb;fill:#595959;fill-opacity:1;fill-rule:nonzero;stroke:none;font-family:Calibri;-inkscape-font-specification:Calibri"
             x="0 3.7544 8.2488499 12.752325 17.2558 22.499325 26.993774 30.017151 32.995399 35.233601 39.72805 42.72435 47.2188 49.466026 50.964176 55.458626 57.705849 60.729225 65.205627 70.44915 74.203552 76.44175"
             y="0"
             sodipodi:role="line"
             id="tspan198">Landnetz Freileitung 1</tspan></text>
</g></g><path
       d="m 243.75,519 5.25,0 0,4.5 -5.25,0 0,-4.5 z"
       style="fill:#a5a5a5;fill-opacity:1;fill-rule:evenodd;stroke:none"
       id="path200"
       inkscape:connector-curvature="0" /><g
       id="g202"><g
         id="g204"
         clip-path="url(#clipPath206)"><text
           transform="matrix(1,0,0,-1,251.35,518.63)"
           id="text210"><tspan
             style="font-size:9.02499962px;font-variant:normal;font-weight:normal;writing-mode:lr-tb;fill:#595959;fill-opacity:1;fill-rule:nonzero;stroke:none;font-family:Calibri;-inkscape-font-specification:Calibri"
             x="0 3.7544 8.2488499 12.752325 17.2558 22.499325 26.993774 30.017151 32.995399 35.233601 39.72805 42.72435 47.2188 49.466026 50.964176 55.458626 57.705849 60.729225 65.205627 70.44915 74.203552 76.44175"
             y="0"
             sodipodi:role="line"
             id="tspan212">Landnetz Freileitung 2</tspan></text>
</g></g><path
       d="m 339,519 5.25,0 0,4.5 -5.25,0 0,-4.5 z"
       style="fill:#ffc000;fill-opacity:1;fill-rule:evenodd;stroke:none"
       id="path214"
       inkscape:connector-curvature="0" /><g
       id="g216"><g
         id="g218"
         clip-path="url(#clipPath220)"><text
           transform="matrix(1,0,0,-1,346.65,518.63)"
           id="text224"><tspan
             style="font-size:9.02499962px;font-variant:normal;font-weight:normal;writing-mode:lr-tb;fill:#595959;fill-opacity:1;fill-rule:nonzero;stroke:none;font-family:Calibri;-inkscape-font-specification:Calibri"
             x="0 5.243525 9.7469997 12.7433 16.488674 19.512051 23.979425 28.482901 31.506275 35.982674 40.477123 43.5005 47.227825 49.466026 53.969501 58.463951 62.967426 67.461876 69.709099 71.947304"
             y="0"
             sodipodi:role="line"
             id="tspan226">Vorstadtnetz Kabel 1</tspan></text>
</g></g><path
       d="m 429.75,519 4.5,0 0,4.5 -4.5,0 0,-4.5 z"
       style="fill:#4472c4;fill-opacity:1;fill-rule:evenodd;stroke:none"
       id="path228"
       inkscape:connector-curvature="0" /><g
       id="g230"><g
         id="g232"
         clip-path="url(#clipPath234)"><text
           transform="matrix(1,0,0,-1,437.08,518.63)"
           id="text238"><tspan
             style="font-size:9.02499962px;font-variant:normal;font-weight:normal;writing-mode:lr-tb;fill:#595959;fill-opacity:1;fill-rule:nonzero;stroke:none;font-family:Calibri;-inkscape-font-specification:Calibri"
             x="0 5.243525 9.7469997 12.7433 16.488674 19.512051 23.979425 28.482901 31.506275 35.982674 40.477123 43.5005 47.227825 49.466026 53.969501 58.463951 62.967426 67.461876 69.709099 71.947304"
             y="0"
             sodipodi:role="line"
             id="tspan240">Vorstadtnetz Kabel 2</tspan></text>
</g></g><g
       id="g242"><g
         id="g244"
         clip-path="url(#clipPath246)"><path
           d="m 72.375,506.62 467.25,0 0,213 -467.25,0 0,-213 z"
           style="fill:none;stroke:#d9d9d9;stroke-width:0.75075001;stroke-linecap:butt;stroke-linejoin:round;stroke-miterlimit:10;stroke-opacity:1;stroke-dasharray:none"
           id="path250"
           inkscape:connector-curvature="0" /></g></g></g></svg>