<?xml version="1.0" encoding="UTF-8" standalone="no"?>
<!-- Created with Inkscape (http://www.inkscape.org/) -->

<svg
   xmlns:dc="http://purl.org/dc/elements/1.1/"
   xmlns:cc="http://creativecommons.org/ns#"
   xmlns:rdf="http://www.w3.org/1999/02/22-rdf-syntax-ns#"
   xmlns:svg="http://www.w3.org/2000/svg"
   xmlns="http://www.w3.org/2000/svg"
   xmlns:sodipodi="http://sodipodi.sourceforge.net/DTD/sodipodi-0.dtd"
   xmlns:inkscape="http://www.inkscape.org/namespaces/inkscape"
   id="svg2"
   version="1.1"
   inkscape:version="0.48.5 r10040"
   width="585.00092"
   height="267.19421"
   xml:space="preserve"
   sodipodi:docname="Doc4.pdf"><metadata
     id="metadata8"><rdf:RDF><cc:Work
         rdf:about=""><dc:format>image/svg+xml</dc:format><dc:type
           rdf:resource="http://purl.org/dc/dcmitype/StillImage" /><dc:title></dc:title></cc:Work></rdf:RDF></metadata><defs
     id="defs6"><clipPath
       clipPathUnits="userSpaceOnUse"
       id="clipPath32"><path
         d="m 72,507 468,0 0,213 -468,0 0,-213 z"
         clip-rule="evenodd"
         id="path34"
         inkscape:connector-curvature="0" /></clipPath><clipPath
       clipPathUnits="userSpaceOnUse"
       id="clipPath44"><path
         d="m 72,507 468,0 0,213 -468,0 0,-213 z"
         clip-rule="evenodd"
         id="path46"
         inkscape:connector-curvature="0" /></clipPath><clipPath
       clipPathUnits="userSpaceOnUse"
       id="clipPath56"><path
         d="m 72,507 468,0 0,213 -468,0 0,-213 z"
         clip-rule="evenodd"
         id="path58"
         inkscape:connector-curvature="0" /></clipPath><clipPath
       clipPathUnits="userSpaceOnUse"
       id="clipPath68"><path
         d="m 72,507 468,0 0,213 -468,0 0,-213 z"
         clip-rule="evenodd"
         id="path70"
         inkscape:connector-curvature="0" /></clipPath><clipPath
       clipPathUnits="userSpaceOnUse"
       id="clipPath80"><path
         d="m 72,507 468,0 0,213 -468,0 0,-213 z"
         clip-rule="evenodd"
         id="path82"
         inkscape:connector-curvature="0" /></clipPath><clipPath
       clipPathUnits="userSpaceOnUse"
       id="clipPath92"><path
         d="m 72,507 468,0 0,213 -468,0 0,-213 z"
         clip-rule="evenodd"
         id="path94"
         inkscape:connector-curvature="0" /></clipPath><clipPath
       clipPathUnits="userSpaceOnUse"
       id="clipPath104"><path
         d="m 72,507 468,0 0,213 -468,0 0,-213 z"
         clip-rule="evenodd"
         id="path106"
         inkscape:connector-curvature="0" /></clipPath><clipPath
       clipPathUnits="userSpaceOnUse"
       id="clipPath116"><path
         d="m 72,507 468,0 0,213 -468,0 0,-213 z"
         clip-rule="evenodd"
         id="path118"
         inkscape:connector-curvature="0" /></clipPath><clipPath
       clipPathUnits="userSpaceOnUse"
       id="clipPath128"><path
         d="m 72,507 468,0 0,213 -468,0 0,-213 z"
         clip-rule="evenodd"
         id="path130"
         inkscape:connector-curvature="0" /></clipPath><clipPath
       clipPathUnits="userSpaceOnUse"
       id="clipPath140"><path
         d="m 72,507 468,0 0,213 -468,0 0,-213 z"
         clip-rule="evenodd"
         id="path142"
         inkscape:connector-curvature="0" /></clipPath><clipPath
       clipPathUnits="userSpaceOnUse"
       id="clipPath152"><path
         d="m 72,507 468,0 0,213 -468,0 0,-213 z"
         clip-rule="evenodd"
         id="path154"
         inkscape:connector-curvature="0" /></clipPath><clipPath
       clipPathUnits="userSpaceOnUse"
       id="clipPath164"><path
         d="m 72,507 468,0 0,213 -468,0 0,-213 z"
         clip-rule="evenodd"
         id="path166"
         inkscape:connector-curvature="0" /></clipPath><clipPath
       clipPathUnits="userSpaceOnUse"
       id="clipPath176"><path
         d="m 72,507 468,0 0,213 -468,0 0,-213 z"
         clip-rule="evenodd"
         id="path178"
         inkscape:connector-curvature="0" /></clipPath><clipPath
       clipPathUnits="userSpaceOnUse"
       id="clipPath188"><path
         d="m 72,507 468,0 0,213 -468,0 0,-213 z"
         clip-rule="evenodd"
         id="path190"
         inkscape:connector-curvature="0" /></clipPath><clipPath
       clipPathUnits="userSpaceOnUse"
       id="clipPath200"><path
         d="m 72,507 468,0 0,213 -468,0 0,-213 z"
         clip-rule="evenodd"
         id="path202"
         inkscape:connector-curvature="0" /></clipPath><clipPath
       clipPathUnits="userSpaceOnUse"
       id="clipPath212"><path
         d="m 72,507 468,0 0,213 -468,0 0,-213 z"
         clip-rule="evenodd"
         id="path214"
         inkscape:connector-curvature="0" /></clipPath><clipPath
       clipPathUnits="userSpaceOnUse"
       id="clipPath226"><path
         d="m 72,507 468,0 0,213 -468,0 0,-213 z"
         clip-rule="evenodd"
         id="path228"
         inkscape:connector-curvature="0" /></clipPath><clipPath
       clipPathUnits="userSpaceOnUse"
       id="clipPath240"><path
         d="m 72,507 468,0 0,213 -468,0 0,-213 z"
         clip-rule="evenodd"
         id="path242"
         inkscape:connector-curvature="0" /></clipPath><clipPath
       clipPathUnits="userSpaceOnUse"
       id="clipPath254"><path
         d="m 72,507 468,0 0,213 -468,0 0,-213 z"
         clip-rule="evenodd"
         id="path256"
         inkscape:connector-curvature="0" /></clipPath><clipPath
       clipPathUnits="userSpaceOnUse"
       id="clipPath268"><path
         d="m 72,507 468,0 0,213 -468,0 0,-213 z"
         clip-rule="evenodd"
         id="path270"
         inkscape:connector-curvature="0" /></clipPath><clipPath
       clipPathUnits="userSpaceOnUse"
       id="clipPath282"><path
         d="m 72,507 468,0 0,213 -468,0 0,-213 z"
         clip-rule="evenodd"
         id="path284"
         inkscape:connector-curvature="0" /></clipPath><clipPath
       clipPathUnits="userSpaceOnUse"
       id="clipPath294"><path
         d="M 4.397e-6,496.5 612,496.5 612,720 4.397e-6,720 l 0,-223.5 z"
         clip-rule="evenodd"
         id="path296"
         inkscape:connector-curvature="0" /></clipPath></defs><sodipodi:namedview
     pagecolor="#ffffff"
     bordercolor="#666666"
     borderopacity="1"
     objecttolerance="10"
     gridtolerance="10"
     guidetolerance="10"
     inkscape:pageopacity="0"
     inkscape:pageshadow="2"
     inkscape:window-width="1366"
     inkscape:window-height="721"
     id="namedview4"
     showgrid="false"
     fit-margin-top="0"
     fit-margin-left="0"
     fit-margin-right="0"
     fit-margin-bottom="0"
     inkscape:zoom="1.3485026"
     inkscape:cx="427.06358"
     inkscape:cy="80.68977"
     inkscape:window-x="-3"
     inkscape:window-y="-3"
     inkscape:window-maximized="1"
     inkscape:current-layer="g10" /><g
     id="g10"
     inkscape:groupmode="layer"
     inkscape:label="Doc4"
     transform="matrix(1.25,0,0,-1.25,-89.999531,900)"><path
       d="m 72,507 468,0 0,213 -468,0 0,-213 z"
       style="fill:#ffffff;fill-opacity:1;fill-rule:evenodd;stroke:none"
       id="path12"
       inkscape:connector-curvature="0" /><path
       d="m 133.13,600.38 396,0 m -396,18 396,0 m -396,18 396,0 m -396,18 396,0 m -396,17.99 396,0 m -396,18.75 396,0 m -396,18 396,0"
       style="fill:none;stroke:#d9d9d9;stroke-width:0.75075001;stroke-linecap:butt;stroke-linejoin:round;stroke-miterlimit:10;stroke-opacity:1;stroke-dasharray:none"
       id="path14"
       inkscape:connector-curvature="0" /><path
       d="m 144,612.75 9.75,0 0,-48.75 -9.75,0 0,48.75 z m 78.75,0 9.75,0 0,-48.75 -9.75,0 0,48.75 z m 79.5,73.5 9.75,0 0,-122.25 -9.75,0 0,122.25 z m 78.75,-9.75 9.75,0 0,-112.5 -9.75,0 0,112.5 z m 79.5,-63.75 9.75,0 0,-48.75 -9.75,0 0,48.75 z"
       style="fill:#5b9bd5;fill-opacity:1;fill-rule:nonzero;stroke:none"
       id="path16"
       inkscape:connector-curvature="0" /><path
       d="m 156,582 9.75,0 0,-18 -9.75,0 0,18 z m 78.75,0 9.75,0 0,-18 -9.75,0 0,18 z m 79.5,111.75 9.75,0 0,-129.75 -9.75,0 0,129.75 z m 78.75,-18 9.75,0 0,-111.75 -9.75,0 0,111.75 z m 79.5,-93.75 9.75,0 0,-18 -9.75,0 0,18 z"
       style="fill:#ed7d31;fill-opacity:1;fill-rule:nonzero;stroke:none"
       id="path18"
       inkscape:connector-curvature="0" /><path
       d="m 168,618.75 9.75,0 0,-54.75 -9.75,0 0,54.75 z m 79.5,0 9,0 0,-54.75 -9,0 0,54.75 z m 78.75,45 9.75,0 0,-99.75 -9.75,0 0,99.75 z m 79.5,11.25 9,0 0,-111 -9,0 0,111 z m 78.75,-56.25 9.75,0 0,-54.75 -9.75,0 0,54.75 z"
       style="fill:#a5a5a5;fill-opacity:1;fill-rule:nonzero;stroke:none"
       id="path20"
       inkscape:connector-curvature="0" /><path
       d="m 180,618.75 9.75,0 0,-54.75 -9.75,0 0,54.75 z m 79.5,0 9.75,0 0,-54.75 -9.75,0 0,54.75 z m 78.75,51.75 9.75,0 0,-106.5 -9.75,0 0,106.5 z m 79.5,7.5 9.75,0 0,-114 -9.75,0 0,114 z m 78.75,-59.25 9.75,0 0,-54.75 -9.75,0 0,54.75 z"
       style="fill:#ffc000;fill-opacity:1;fill-rule:nonzero;stroke:none"
       id="path22"
       inkscape:connector-curvature="0" /><path
       d="m 192.75,618.75 9,0 0,-54.75 -9,0 0,54.75 z m 78.75,0 9.75,0 0,-54.75 -9.75,0 0,54.75 z m 79.5,60 9,0 0,-114.75 -9,0 0,114.75 z m 78.75,-2.25 9.75,0 0,-112.5 -9.75,0 0,112.5 z m 79.5,-57.75 9,0 0,-54.75 -9,0 0,54.75 z"
       style="fill:#4472c4;fill-opacity:1;fill-rule:nonzero;stroke:none"
       id="path24"
       inkscape:connector-curvature="0" /><path
       d="m 133.13,563.62 396,0"
       style="fill:none;stroke:#d9d9d9;stroke-width:0.75075001;stroke-linecap:butt;stroke-linejoin:round;stroke-miterlimit:10;stroke-opacity:1;stroke-dasharray:none"
       id="path26"
       inkscape:connector-curvature="0" /><g
       id="g28"><g
         id="g30"
         clip-path="url(#clipPath32)"><text
           transform="matrix(1,0,0,-1,104.32,561.28)"
           id="text36"><tspan
             style="font-size:9px;font-variant:normal;font-weight:normal;writing-mode:lr-tb;fill:#595959;fill-opacity:1;fill-rule:nonzero;stroke:none;font-family:Calibri;-inkscape-font-specification:Calibri"
             x="0 4.5 8.9910002 11.979 16.479"
             y="0"
             sodipodi:role="line"
             id="tspan38">1E-22</tspan></text>
</g></g><g
       id="g40"><g
         id="g42"
         clip-path="url(#clipPath44)"><text
           transform="matrix(1,0,0,-1,104.32,579.45)"
           id="text48"><tspan
             style="font-size:9px;font-variant:normal;font-weight:normal;writing-mode:lr-tb;fill:#595959;fill-opacity:1;fill-rule:nonzero;stroke:none;font-family:Calibri;-inkscape-font-specification:Calibri"
             x="0 4.5 8.9910002 11.979 16.479"
             y="0"
             sodipodi:role="line"
             id="tspan50">1E-20</tspan></text>
</g></g><g
       id="g52"><g
         id="g54"
         clip-path="url(#clipPath56)"><text
           transform="matrix(1,0,0,-1,104.32,597.63)"
           id="text60"><tspan
             style="font-size:9.02499962px;font-variant:normal;font-weight:normal;writing-mode:lr-tb;fill:#595959;fill-opacity:1;fill-rule:nonzero;stroke:none;font-family:Calibri;-inkscape-font-specification:Calibri"
             x="0 4.5034752 8.9979248 11.9852 16.488674"
             y="0"
             sodipodi:role="line"
             id="tspan62">1E-18</tspan></text>
</g></g><g
       id="g64"><g
         id="g66"
         clip-path="url(#clipPath68)"><text
           transform="matrix(1,0,0,-1,104.32,615.8)"
           id="text72"><tspan
             style="font-size:9.02499962px;font-variant:normal;font-weight:normal;writing-mode:lr-tb;fill:#595959;fill-opacity:1;fill-rule:nonzero;stroke:none;font-family:Calibri;-inkscape-font-specification:Calibri"
             x="0 4.5034752 8.9979248 11.9852 16.488674"
             y="0"
             sodipodi:role="line"
             id="tspan74">1E-16</tspan></text>
</g></g><g
       id="g76"><g
         id="g78"
         clip-path="url(#clipPath80)"><text
           transform="matrix(1,0,0,-1,104.32,633.97)"
           id="text84"><tspan
             style="font-size:9.02499962px;font-variant:normal;font-weight:normal;writing-mode:lr-tb;fill:#595959;fill-opacity:1;fill-rule:nonzero;stroke:none;font-family:Calibri;-inkscape-font-specification:Calibri"
             x="0 4.5034752 8.9979248 11.9852 16.488674"
             y="0"
             sodipodi:role="line"
             id="tspan86">1E-14</tspan></text>
</g></g><g
       id="g88"><g
         id="g90"
         clip-path="url(#clipPath92)"><text
           transform="matrix(1,0,0,-1,104.32,652.15)"
           id="text96"><tspan
             style="font-size:9.02499962px;font-variant:normal;font-weight:normal;writing-mode:lr-tb;fill:#595959;fill-opacity:1;fill-rule:nonzero;stroke:none;font-family:Calibri;-inkscape-font-specification:Calibri"
             x="0 4.5034752 8.9979248 11.9852 16.488674"
             y="0"
             sodipodi:role="line"
             id="tspan98">1E-12</tspan></text>
</g></g><g
       id="g100"><g
         id="g102"
         clip-path="url(#clipPath104)"><text
           transform="matrix(1,0,0,-1,104.32,670.3)"
           id="text108"><tspan
             style="font-size:9px;font-variant:normal;font-weight:normal;writing-mode:lr-tb;fill:#595959;fill-opacity:1;fill-rule:nonzero;stroke:none;font-family:Calibri;-inkscape-font-specification:Calibri"
             x="0 4.5 8.9910002 11.979 16.479"
             y="0"
             sodipodi:role="line"
             id="tspan110">1E-10</tspan></text>
</g></g><g
       id="g112"><g
         id="g114"
         clip-path="url(#clipPath116)"><text
           transform="matrix(1,0,0,-1,104.32,688.47)"
           id="text120"><tspan
             style="font-size:9px;font-variant:normal;font-weight:normal;writing-mode:lr-tb;fill:#595959;fill-opacity:1;fill-rule:nonzero;stroke:none;font-family:Calibri;-inkscape-font-specification:Calibri"
             x="0 4.5 8.9910002 11.979 16.479"
             y="0"
             sodipodi:role="line"
             id="tspan122">1E-08</tspan></text>
</g></g><g
       id="g124"><g
         id="g126"
         clip-path="url(#clipPath128)"><text
           transform="matrix(1,0,0,-1,104.32,706.65)"
           id="text132"><tspan
             style="font-size:9px;font-variant:normal;font-weight:normal;writing-mode:lr-tb;fill:#595959;fill-opacity:1;fill-rule:nonzero;stroke:none;font-family:Calibri;-inkscape-font-specification:Calibri"
             x="0 4.5 8.9910002 11.979 16.479"
             y="0"
             sodipodi:role="line"
             id="tspan134">1E-06</tspan></text>
</g></g><g
       id="g136"><g
         id="g138"
         clip-path="url(#clipPath140)"><text
           transform="matrix(1,0,0,-1,150.8,549.55)"
           id="text144"><tspan
             style="font-size:9px;font-variant:normal;font-weight:normal;writing-mode:lr-tb;fill:#595959;fill-opacity:1;fill-rule:nonzero;stroke:none;font-family:Calibri;-inkscape-font-specification:Calibri"
             x="0 5.2470002 9.7379999 13.491 21.735001 23.238001 27.738001 32.976002 34.479 39.716999 41.958"
             y="0"
             sodipodi:role="line"
             id="tspan146">HELM 64 Bit</tspan></text>
</g></g><g
       id="g148"><g
         id="g150"
         clip-path="url(#clipPath152)"><text
           transform="matrix(1,0,0,-1,227.73,549.55)"
           id="text156"><tspan
             style="font-size:9px;font-variant:normal;font-weight:normal;writing-mode:lr-tb;fill:#595959;fill-opacity:1;fill-rule:nonzero;stroke:none;font-family:Calibri;-inkscape-font-specification:Calibri"
             x="0 5.2740002 9.7650003 13.518 21.780001 23.283001 27.783001 33.048 37.548 39.050999 44.316002 46.556999"
             y="0"
             sodipodi:role="line"
             id="tspan158">HELM 200 Bit</tspan></text>
</g></g><g
       id="g160"><g
         id="g162"
         clip-path="url(#clipPath164)"><text
           transform="matrix(1,0,0,-1,300.63,549.55)"
           id="text168"><tspan
             style="font-size:9px;font-variant:normal;font-weight:normal;writing-mode:lr-tb;fill:#595959;fill-opacity:1;fill-rule:nonzero;stroke:none;font-family:Calibri;-inkscape-font-specification:Calibri"
             x="0 4.5 9.7379999 12.735 15.732 20.214001 24.732 27.747 29.969999 32.237999 35.216999 39.699001 42.714001 47.205002 50.220001 52.443001 56.943001"
             y="0"
             sodipodi:role="line"
             id="tspan170">Current Iteration</tspan></text>
</g></g><g
       id="g172"><g
         id="g174"
         clip-path="url(#clipPath176)"><text
           transform="matrix(1,0,0,-1,378.98,549.55)"
           id="text180"><tspan
             style="font-size:9px;font-variant:normal;font-weight:normal;writing-mode:lr-tb;fill:#595959;fill-opacity:1;fill-rule:nonzero;stroke:none;font-family:Calibri;-inkscape-font-specification:Calibri"
             x="0 5.994 10.476 16.497 19.511999 24.740999 29.240999 32.229 36.729 41.220001 45.720001 50.958 53.955002 59.193001"
             y="0"
             sodipodi:role="line"
             id="tspan182">Newton-Raphson</tspan></text>
</g></g><g
       id="g184"><g
         id="g186"
         clip-path="url(#clipPath188)"><text
           transform="matrix(1,0,0,-1,458.53,549.55)"
           id="text192"><tspan
             style="font-size:9px;font-variant:normal;font-weight:normal;writing-mode:lr-tb;fill:#595959;fill-opacity:1;fill-rule:nonzero;stroke:none;font-family:Calibri;-inkscape-font-specification:Calibri"
             x="0 5.2740002 9.7919998 13.572 21.834 23.337 27.864 33.129002 34.632 39.896999 42.138 45.153 46.665001 53.432999 55.674 58.688999"
             y="0"
             sodipodi:role="line"
             id="tspan194">HELM 64 Bit with</tspan></text>
</g></g><g
       id="g196"><g
         id="g198"
         clip-path="url(#clipPath200)"><text
           transform="matrix(1,0,0,-1,459.08,538.58)"
           id="text204"><tspan
             style="font-size:9.02499962px;font-variant:normal;font-weight:normal;writing-mode:lr-tb;fill:#595959;fill-opacity:1;fill-rule:nonzero;stroke:none;font-family:Calibri;-inkscape-font-specification:Calibri"
             x="0 4.5034752 9.7469997 12.7433 15.7396 20.234051 24.737526 27.7609 29.98105 32.255348 35.233601 39.72805 42.733376 47.227825 50.251202 52.471352 56.974827"
             y="0"
             sodipodi:role="line"
             id="tspan206">Current Iteration</tspan></text>
</g></g><g
       id="g208"><g
         id="g210"
         clip-path="url(#clipPath212)"><text
           transform="matrix(-4.4e-8,1,1,4.4e-8,94.375,586.85)"
           id="text216"><tspan
             style="font-size:9.75px;font-variant:normal;font-weight:normal;writing-mode:lr-tb;fill:#595959;fill-opacity:1;fill-rule:nonzero;stroke:none;font-family:Calibri;-inkscape-font-specification:Calibri"
             x="0 3.7635 8.2875004 11.30025 16.56525 19.587749 22.6005 27.11475 31.63875 33.140251 38.405251 43.67025 50.446499 54.970501 58.734001 61.74675 66.270752 70.034248 73.797752 79.062752 82.826248 84.327751 87.3405 96.359253"
             y="0"
             sodipodi:role="line"
             id="tspan218">relative power error [W]</tspan></text>
</g></g><path
       d="m 102.75,519 5.25,0 0,4.5 -5.25,0 0,-4.5 z"
       style="fill:#5b9bd5;fill-opacity:1;fill-rule:evenodd;stroke:none"
       id="path220"
       inkscape:connector-curvature="0" /><g
       id="g222"><g
         id="g224"
         clip-path="url(#clipPath226)"><text
           transform="matrix(1,0,0,-1,109.97,518.63)"
           id="text230"><tspan
             style="font-size:9.02499962px;font-variant:normal;font-weight:normal;writing-mode:lr-tb;fill:#595959;fill-opacity:1;fill-rule:nonzero;stroke:none;font-family:Calibri;-inkscape-font-specification:Calibri"
             x="0 5.2705998 10.532175 13.528475 16.515751 21.019224 25.513676 28.53705"
             y="0"
             sodipodi:role="line"
             id="tspan232">Dorfnetz</tspan></text>
</g></g><path
       d="m 148.5,519 5.25,0 0,4.5 -5.25,0 0,-4.5 z"
       style="fill:#ed7d31;fill-opacity:1;fill-rule:evenodd;stroke:none"
       id="path234"
       inkscape:connector-curvature="0" /><g
       id="g236"><g
         id="g238"
         clip-path="url(#clipPath240)"><text
           transform="matrix(1,0,0,-1,156.05,518.63)"
           id="text244"><tspan
             style="font-size:9.02499962px;font-variant:normal;font-weight:normal;writing-mode:lr-tb;fill:#595959;fill-opacity:1;fill-rule:nonzero;stroke:none;font-family:Calibri;-inkscape-font-specification:Calibri"
             x="0 3.7544 8.2488499 12.752325 17.2558 22.499325 26.993774 30.017151 32.995399 35.233601 39.72805 42.72435 47.2188 49.466026 50.964176 55.458626 57.705849 60.729225 65.205627 70.44915 74.203552 76.44175"
             y="0"
             sodipodi:role="line"
             id="tspan246">Landnetz Freileitung 1</tspan></text>
</g></g><path
       d="m 243.75,519 5.25,0 0,4.5 -5.25,0 0,-4.5 z"
       style="fill:#a5a5a5;fill-opacity:1;fill-rule:evenodd;stroke:none"
       id="path248"
       inkscape:connector-curvature="0" /><g
       id="g250"><g
         id="g252"
         clip-path="url(#clipPath254)"><text
           transform="matrix(1,0,0,-1,251.35,518.63)"
           id="text258"><tspan
             style="font-size:9.02499962px;font-variant:normal;font-weight:normal;writing-mode:lr-tb;fill:#595959;fill-opacity:1;fill-rule:nonzero;stroke:none;font-family:Calibri;-inkscape-font-specification:Calibri"
             x="0 3.7544 8.2488499 12.752325 17.2558 22.499325 26.993774 30.017151 32.995399 35.233601 39.72805 42.72435 47.2188 49.466026 50.964176 55.458626 57.705849 60.729225 65.205627 70.44915 74.203552 76.44175"
             y="0"
             sodipodi:role="line"
             id="tspan260">Landnetz Freileitung 2</tspan></text>
</g></g><path
       d="m 339,519 5.25,0 0,4.5 -5.25,0 0,-4.5 z"
       style="fill:#ffc000;fill-opacity:1;fill-rule:evenodd;stroke:none"
       id="path262"
       inkscape:connector-curvature="0" /><g
       id="g264"><g
         id="g266"
         clip-path="url(#clipPath268)"><text
           transform="matrix(1,0,0,-1,346.65,518.63)"
           id="text272"><tspan
             style="font-size:9.02499962px;font-variant:normal;font-weight:normal;writing-mode:lr-tb;fill:#595959;fill-opacity:1;fill-rule:nonzero;stroke:none;font-family:Calibri;-inkscape-font-specification:Calibri"
             x="0 5.243525 9.7469997 12.7433 16.488674 19.512051 23.979425 28.482901 31.506275 35.982674 40.477123 43.5005 47.227825 49.466026 53.969501 58.463951 62.967426 67.461876 69.709099 71.947304"
             y="0"
             sodipodi:role="line"
             id="tspan274">Vorstadtnetz Kabel 1</tspan></text>
</g></g><path
       d="m 429.75,519 4.5,0 0,4.5 -4.5,0 0,-4.5 z"
       style="fill:#4472c4;fill-opacity:1;fill-rule:evenodd;stroke:none"
       id="path276"
       inkscape:connector-curvature="0" /><g
       id="g278"><g
         id="g280"
         clip-path="url(#clipPath282)"><text
           transform="matrix(1,0,0,-1,437.08,518.63)"
           id="text286"><tspan
             style="font-size:9.02499962px;font-variant:normal;font-weight:normal;writing-mode:lr-tb;fill:#595959;fill-opacity:1;fill-rule:nonzero;stroke:none;font-family:Calibri;-inkscape-font-specification:Calibri"
             x="0 5.243525 9.7469997 12.7433 16.488674 19.512051 23.979425 28.482901 31.506275 35.982674 40.477123 43.5005 47.227825 49.466026 53.969501 58.463951 62.967426 67.461876 69.709099 71.947304"
             y="0"
             sodipodi:role="line"
             id="tspan288">Vorstadtnetz Kabel 2</tspan></text>
</g></g><g
       id="g290"><g
         id="g292"
         clip-path="url(#clipPath294)"><path
           d="m 72.375,506.62 467.25,0 0,213 -467.25,0 0,-213 z"
           style="fill:none;stroke:#d9d9d9;stroke-width:0.75075001;stroke-linecap:butt;stroke-linejoin:round;stroke-miterlimit:10;stroke-opacity:1;stroke-dasharray:none"
           id="path298"
           inkscape:connector-curvature="0" /></g></g></g></svg>