<?xml version="1.0" encoding="UTF-8" standalone="no"?>
<!-- Created with Inkscape (http://www.inkscape.org/) -->

<svg
   xmlns:dc="http://purl.org/dc/elements/1.1/"
   xmlns:cc="http://creativecommons.org/ns#"
   xmlns:rdf="http://www.w3.org/1999/02/22-rdf-syntax-ns#"
   xmlns:svg="http://www.w3.org/2000/svg"
   xmlns="http://www.w3.org/2000/svg"
   xmlns:sodipodi="http://sodipodi.sourceforge.net/DTD/sodipodi-0.dtd"
   xmlns:inkscape="http://www.inkscape.org/namespaces/inkscape"
   width="567.89197"
   height="318.16165"
   id="svg2"
   version="1.1"
   inkscape:version="0.48.5 r10040"
   sodipodi:docname="Neues Dokument 1">
  <defs
     id="defs4">
    <clipPath
       id="clipPath3175"
       clipPathUnits="userSpaceOnUse">
      <path
         id="path3177"
         clip-rule="evenodd"
         d="M 9.2e-7,507 595.32,507 l 0,264.12 -595.31999908,0 0,-264.12 z"
         inkscape:connector-curvature="0" />
    </clipPath>
    <clipPath
       id="clipPath3163"
       clipPathUnits="userSpaceOnUse">
      <path
         id="path3165"
         clip-rule="evenodd"
         d="m 70.8,517.08 453.6,0 0,254.04 -453.6,0 0,-254.04 z"
         inkscape:connector-curvature="0" />
    </clipPath>
    <clipPath
       id="clipPath3151"
       clipPathUnits="userSpaceOnUse">
      <path
         id="path3153"
         clip-rule="evenodd"
         d="m 70.8,517.08 453.6,0 0,254.04 -453.6,0 0,-254.04 z"
         inkscape:connector-curvature="0" />
    </clipPath>
    <clipPath
       id="clipPath3139"
       clipPathUnits="userSpaceOnUse">
      <path
         id="path3141"
         clip-rule="evenodd"
         d="m 70.8,517.08 453.6,0 0,254.04 -453.6,0 0,-254.04 z"
         inkscape:connector-curvature="0" />
    </clipPath>
    <clipPath
       id="clipPath3127"
       clipPathUnits="userSpaceOnUse">
      <path
         id="path3129"
         clip-rule="evenodd"
         d="m 70.8,517.08 453.6,0 0,254.04 -453.6,0 0,-254.04 z"
         inkscape:connector-curvature="0" />
    </clipPath>
    <clipPath
       id="clipPath3115"
       clipPathUnits="userSpaceOnUse">
      <path
         id="path3117"
         clip-rule="evenodd"
         d="m 70.8,517.08 453.6,0 0,254.04 -453.6,0 0,-254.04 z"
         inkscape:connector-curvature="0" />
    </clipPath>
    <clipPath
       id="clipPath3103"
       clipPathUnits="userSpaceOnUse">
      <path
         id="path3105"
         clip-rule="evenodd"
         d="m 70.8,517.08 453.6,0 0,254.04 -453.6,0 0,-254.04 z"
         inkscape:connector-curvature="0" />
    </clipPath>
    <clipPath
       id="clipPath3091"
       clipPathUnits="userSpaceOnUse">
      <path
         id="path3093"
         clip-rule="evenodd"
         d="m 70.8,517.08 453.6,0 0,254.04 -453.6,0 0,-254.04 z"
         inkscape:connector-curvature="0" />
    </clipPath>
    <clipPath
       id="clipPath3079"
       clipPathUnits="userSpaceOnUse">
      <path
         id="path3081"
         clip-rule="evenodd"
         d="m 70.8,517.08 453.6,0 0,254.04 -453.6,0 0,-254.04 z"
         inkscape:connector-curvature="0" />
    </clipPath>
    <clipPath
       id="clipPath3067"
       clipPathUnits="userSpaceOnUse">
      <path
         id="path3069"
         clip-rule="evenodd"
         d="m 70.8,517.08 453.6,0 0,254.04 -453.6,0 0,-254.04 z"
         inkscape:connector-curvature="0" />
    </clipPath>
    <clipPath
       id="clipPath3055"
       clipPathUnits="userSpaceOnUse">
      <path
         id="path3057"
         clip-rule="evenodd"
         d="m 70.8,517.08 453.6,0 0,254.04 -453.6,0 0,-254.04 z"
         inkscape:connector-curvature="0" />
    </clipPath>
    <clipPath
       id="clipPath3043"
       clipPathUnits="userSpaceOnUse">
      <path
         id="path3045"
         clip-rule="evenodd"
         d="m 70.8,517.08 453.6,0 0,254.04 -453.6,0 0,-254.04 z"
         inkscape:connector-curvature="0" />
    </clipPath>
    <clipPath
       id="clipPath3031"
       clipPathUnits="userSpaceOnUse">
      <path
         id="path3033"
         clip-rule="evenodd"
         d="m 70.8,517.08 453.6,0 0,254.04 -453.6,0 0,-254.04 z"
         inkscape:connector-curvature="0" />
    </clipPath>
    <clipPath
       id="clipPath3019"
       clipPathUnits="userSpaceOnUse">
      <path
         id="path3021"
         clip-rule="evenodd"
         d="m 70.8,517.08 453.6,0 0,254.04 -453.6,0 0,-254.04 z"
         inkscape:connector-curvature="0" />
    </clipPath>
    <clipPath
       id="clipPath3007"
       clipPathUnits="userSpaceOnUse">
      <path
         id="path3009"
         clip-rule="evenodd"
         d="m 70.8,517.08 453.6,0 0,254.04 -453.6,0 0,-254.04 z"
         inkscape:connector-curvature="0" />
    </clipPath>
  </defs>
  <sodipodi:namedview
     id="base"
     pagecolor="#ffffff"
     bordercolor="#666666"
     borderopacity="1.0"
     inkscape:pageopacity="0.0"
     inkscape:pageshadow="2"
     inkscape:zoom="1.4"
     inkscape:cx="356.27413"
     inkscape:cy="156.89288"
     inkscape:document-units="px"
     inkscape:current-layer="layer1"
     showgrid="false"
     fit-margin-top="0"
     fit-margin-left="0"
     fit-margin-right="0"
     fit-margin-bottom="0"
     inkscape:window-width="1920"
     inkscape:window-height="1018"
     inkscape:window-x="-8"
     inkscape:window-y="-8"
     inkscape:window-maximized="1" />
  <metadata
     id="metadata7">
    <rdf:RDF>
      <cc:Work
         rdf:about="">
        <dc:format>image/svg+xml</dc:format>
        <dc:type
           rdf:resource="http://purl.org/dc/dcmitype/StillImage" />
        <dc:title></dc:title>
      </cc:Work>
    </rdf:RDF>
  </metadata>
  <g
     inkscape:label="Ebene 1"
     inkscape:groupmode="layer"
     id="layer1"
     transform="translate(-98.903054,-344.7158)">
    <g
       transform="matrix(1.25,0,0,-1.25,10.85714,1308.6158)"
       inkscape:label="Doc4"
       id="g2993">
      <path
         id="path2995"
         style="fill:#ffffff;fill-opacity:1;fill-rule:evenodd;stroke:none"
         d="m 70.8,516.96 453.6,0 0,254.16 -453.6,0 0,-254.16 z"
         inkscape:connector-curvature="0" />
      <path
         id="path2997"
         style="fill:none;stroke:#d9d9d9;stroke-width:0.72000003;stroke-linecap:butt;stroke-linejoin:round;stroke-miterlimit:10;stroke-opacity:1;stroke-dasharray:none"
         d="m 145.44,585.96 368.04,0 m -368.04,34.92 368.04,0 m -368.04,34.8 368.04,0 m -368.04,34.8 368.04,0 m -368.04,34.8 368.04,0 m -368.04,34.8 368.04,0"
         inkscape:connector-curvature="0" />
      <path
         id="path2999"
         style="fill:#5b9bd5;fill-opacity:1;fill-rule:nonzero;stroke:none"
         d="m 170.64,648.96 23.04,0 0,-97.8 -23.04,0 0,97.8 z m 73.68,0 23.04,0 0,-97.8 -23.04,0 0,97.8 z m 73.56,12.6 23.04,0 0,-110.4 -23.04,0 0,110.4 z m 73.56,29.64 23.16,0 0,-140.04 -23.16,0 0,140.04 z m 73.68,18.84 23.04,0 0,-158.88 -23.04,0 0,158.88 z"
         inkscape:connector-curvature="0" />
      <path
         id="path3001"
         style="fill:none;stroke:#d9d9d9;stroke-width:0.72000003;stroke-linecap:butt;stroke-linejoin:round;stroke-miterlimit:10;stroke-opacity:1;stroke-dasharray:none"
         d="m 145.44,551.16 368.04,0"
         inkscape:connector-curvature="0" />
      <g
         id="g3003">
        <g
           clip-path="url(#clipPath3007)"
           id="g3005">
          <text
             id="text3011"
             transform="matrix(1,0,0,-1,98.568,548.64)">
            <tspan
               id="tspan3013"
               sodipodi:role="line"
               y="0"
               x="0 4.5630002 6.8130002 11.376 15.939 20.502001 24.84 29.393999 33.957001"
               style="font-size:9px;font-variant:normal;font-weight:normal;writing-mode:lr-tb;fill:#595959;fill-opacity:1;fill-rule:nonzero;stroke:none;font-family:Calibri;-inkscape-font-specification:Calibri">1,970E+06</tspan>
          </text>
        </g>
      </g>
      <g
         id="g3015">
        <g
           clip-path="url(#clipPath3019)"
           id="g3017">
          <text
             id="text3023"
             transform="matrix(1,0,0,-1,98.568,583.44)">
            <tspan
               id="tspan3025"
               sodipodi:role="line"
               y="0"
               x="0 4.5630002 6.8130002 11.376 15.939 20.502001 24.84 29.393999 33.957001"
               style="font-size:9px;font-variant:normal;font-weight:normal;writing-mode:lr-tb;fill:#595959;fill-opacity:1;fill-rule:nonzero;stroke:none;font-family:Calibri;-inkscape-font-specification:Calibri">1,971E+06</tspan>
          </text>
        </g>
      </g>
      <g
         id="g3027">
        <g
           clip-path="url(#clipPath3031)"
           id="g3029">
          <text
             id="text3035"
             transform="matrix(1,0,0,-1,98.568,618.26)">
            <tspan
               id="tspan3037"
               sodipodi:role="line"
               y="0"
               x="0 4.5630002 6.8130002 11.376 15.939 20.502001 24.84 29.393999 33.957001"
               style="font-size:9px;font-variant:normal;font-weight:normal;writing-mode:lr-tb;fill:#595959;fill-opacity:1;fill-rule:nonzero;stroke:none;font-family:Calibri;-inkscape-font-specification:Calibri">1,972E+06</tspan>
          </text>
        </g>
      </g>
      <g
         id="g3039">
        <g
           clip-path="url(#clipPath3043)"
           id="g3041">
          <text
             id="text3047"
             transform="matrix(1,0,0,-1,98.568,653.09)">
            <tspan
               id="tspan3049"
               sodipodi:role="line"
               y="0"
               x="0 4.5630002 6.8130002 11.376 15.939 20.502001 24.84 29.393999 33.957001"
               style="font-size:9px;font-variant:normal;font-weight:normal;writing-mode:lr-tb;fill:#595959;fill-opacity:1;fill-rule:nonzero;stroke:none;font-family:Calibri;-inkscape-font-specification:Calibri">1,973E+06</tspan>
          </text>
        </g>
      </g>
      <g
         id="g3051">
        <g
           clip-path="url(#clipPath3055)"
           id="g3053">
          <text
             id="text3059"
             transform="matrix(1,0,0,-1,98.568,687.89)">
            <tspan
               id="tspan3061"
               sodipodi:role="line"
               y="0"
               x="0 4.5630002 6.8130002 11.376 15.939 20.502001 24.84 29.393999 33.957001"
               style="font-size:9px;font-variant:normal;font-weight:normal;writing-mode:lr-tb;fill:#595959;fill-opacity:1;fill-rule:nonzero;stroke:none;font-family:Calibri;-inkscape-font-specification:Calibri">1,974E+06</tspan>
          </text>
        </g>
      </g>
      <g
         id="g3063">
        <g
           clip-path="url(#clipPath3067)"
           id="g3065">
          <text
             id="text3071"
             transform="matrix(1,0,0,-1,98.568,722.71)">
            <tspan
               id="tspan3073"
               sodipodi:role="line"
               y="0"
               x="0 4.5630002 6.8130002 11.376 15.939 20.502001 24.84 29.393999 33.957001"
               style="font-size:9px;font-variant:normal;font-weight:normal;writing-mode:lr-tb;fill:#595959;fill-opacity:1;fill-rule:nonzero;stroke:none;font-family:Calibri;-inkscape-font-specification:Calibri">1,975E+06</tspan>
          </text>
        </g>
      </g>
      <g
         id="g3075">
        <g
           clip-path="url(#clipPath3079)"
           id="g3077">
          <text
             id="text3083"
             transform="matrix(1,0,0,-1,98.568,757.54)">
            <tspan
               id="tspan3085"
               sodipodi:role="line"
               y="0"
               x="0 4.5630002 6.8130002 11.376 15.939 20.502001 24.84 29.393999 33.957001"
               style="font-size:9px;font-variant:normal;font-weight:normal;writing-mode:lr-tb;fill:#595959;fill-opacity:1;fill-rule:nonzero;stroke:none;font-family:Calibri;-inkscape-font-specification:Calibri">1,976E+06</tspan>
          </text>
        </g>
      </g>
      <g
         id="g3087">
        <g
           clip-path="url(#clipPath3091)"
           id="g3089">
          <text
             id="text3095"
             transform="matrix(1,0,0,-1,151.85,536.93)">
            <tspan
               id="tspan3097"
               sodipodi:role="line"
               y="0"
               x="0 5.6339998 9.9540005 13.788 21.483 23.733 25.767 30.33 34.893002 36.926998 41.750999 43.902 46.917 49.058998 51.092999 54.926998"
               style="font-size:9px;font-variant:normal;font-weight:normal;writing-mode:lr-tb;fill:#595959;fill-opacity:1;fill-rule:nonzero;stroke:none;font-family:Calibri;-inkscape-font-specification:Calibri">HELM, 64 Bit, LU</tspan>
          </text>
        </g>
      </g>
      <g
         id="g3099">
        <g
           clip-path="url(#clipPath3103)"
           id="g3101">
          <text
             id="text3107"
             transform="matrix(1,0,0,-1,223.2,536.93)">
            <tspan
               id="tspan3109"
               sodipodi:role="line"
               y="0"
               x="0 5.6339998 9.9540005 13.788 21.483 23.733 25.767 30.33 34.893002 39.456001 41.490002 46.305 48.456001 51.471001 53.612999 55.646999 59.480999"
               style="font-size:9px;font-variant:normal;font-weight:normal;writing-mode:lr-tb;fill:#595959;fill-opacity:1;fill-rule:nonzero;stroke:none;font-family:Calibri;-inkscape-font-specification:Calibri">HELM, 100 Bit, LU</tspan>
          </text>
        </g>
      </g>
      <g
         id="g3111">
        <g
           clip-path="url(#clipPath3115)"
           id="g3113">
          <text
             id="text3119"
             transform="matrix(1,0,0,-1,296.83,536.93)">
            <tspan
               id="tspan3121"
               sodipodi:role="line"
               y="0"
               x="0 5.6339998 9.9540005 13.788 21.483 23.733 25.767 30.33 34.893002 39.456001 41.490002 46.305 48.456001 51.471001 53.612999 55.646999 59.480999"
               style="font-size:9px;font-variant:normal;font-weight:normal;writing-mode:lr-tb;fill:#595959;fill-opacity:1;fill-rule:nonzero;stroke:none;font-family:Calibri;-inkscape-font-specification:Calibri">HELM, 200 Bit, LU</tspan>
          </text>
        </g>
      </g>
      <g
         id="g3123">
        <g
           clip-path="url(#clipPath3127)"
           id="g3125">
          <text
             id="text3131"
             transform="matrix(1,0,0,-1,368.18,536.93)">
            <tspan
               id="tspan3133"
               sodipodi:role="line"
               y="0"
               x="0 5.6339998 9.9540005 13.788 21.483 23.733 25.767 30.33 34.893002 39.456001 44.019001 46.053001 50.868 53.019001 56.034 58.175999 60.209999 64.043999"
               style="font-size:9px;font-variant:normal;font-weight:normal;writing-mode:lr-tb;fill:#595959;fill-opacity:1;fill-rule:nonzero;stroke:none;font-family:Calibri;-inkscape-font-specification:Calibri">HELM, 1000 Bit, LU</tspan>
          </text>
        </g>
      </g>
      <g
         id="g3135">
        <g
           clip-path="url(#clipPath3139)"
           id="g3137">
          <text
             id="text3143"
             transform="matrix(1,0,0,-1,445.32,536.93)">
            <tspan
               id="tspan3145"
               sodipodi:role="line"
               y="0"
               x="0 5.6339998 9.9540005 13.788 21.483 23.733 25.767 30.33 34.893002 39.456001 44.019001 48.582001 50.616001 55.431 57.582001 60.597"
               style="font-size:9px;font-variant:normal;font-weight:normal;writing-mode:lr-tb;fill:#595959;fill-opacity:1;fill-rule:nonzero;stroke:none;font-family:Calibri;-inkscape-font-specification:Calibri">HELM, 10000 Bit,</tspan>
          </text>
        </g>
      </g>
      <g
         id="g3147">
        <g
           clip-path="url(#clipPath3151)"
           id="g3149">
          <text
             id="text3155"
             transform="matrix(1,0,0,-1,471.96,525.94)">
            <tspan
               id="tspan3157"
               sodipodi:role="line"
               y="0"
               x="0 3.8399999"
               style="font-size:9px;font-variant:normal;font-weight:normal;writing-mode:lr-tb;fill:#595959;fill-opacity:1;fill-rule:nonzero;stroke:none;font-family:Calibri;-inkscape-font-specification:Calibri">LU</tspan>
          </text>
        </g>
      </g>
      <g
         id="g3159">
        <g
           clip-path="url(#clipPath3163)"
           id="g3161">
          <text
             id="text3167"
             transform="matrix(-4.4e-8,1,1,4.4e-8,92.856,606.07)">
            <tspan
               id="tspan3169"
               sodipodi:role="line"
               y="0"
               x="0 4.2130799 9.4619999 14.75076 19.192921 24.113159 27.589199 32.280361 37.190639 42.45948 46.672562 51.58284 54.092758 59.361599 64.63044 68.106483 73.385277 78.305519 81.781563 84.052437 87.0504 95.914803"
               style="font-size:9.96000004px;font-variant:normal;font-weight:normal;writing-mode:lr-tb;fill:#595959;fill-opacity:1;fill-rule:nonzero;stroke:none;font-family:Calibri;-inkscape-font-specification:Calibri">convergence border [W]</tspan>
          </text>
        </g>
      </g>
      <g
         id="g3171">
        <g
           clip-path="url(#clipPath3175)"
           id="g3173">
          <path
             id="path3179"
             style="fill:none;stroke:#d9d9d9;stroke-width:0.72000003;stroke-linecap:butt;stroke-linejoin:round;stroke-miterlimit:10;stroke-opacity:1;stroke-dasharray:none"
             d="m 70.8,516.96 453.6,0 0,254.16 -453.6,0 0,-254.16 z"
             inkscape:connector-curvature="0" />
        </g>
      </g>
    </g>
  </g>
</svg>
