<?xml version="1.0" encoding="UTF-8" standalone="no"?>
<!-- Created with Inkscape (http://www.inkscape.org/) -->

<svg
   xmlns:dc="http://purl.org/dc/elements/1.1/"
   xmlns:cc="http://creativecommons.org/ns#"
   xmlns:rdf="http://www.w3.org/1999/02/22-rdf-syntax-ns#"
   xmlns:svg="http://www.w3.org/2000/svg"
   xmlns="http://www.w3.org/2000/svg"
   xmlns:sodipodi="http://sodipodi.sourceforge.net/DTD/sodipodi-0.dtd"
   xmlns:inkscape="http://www.inkscape.org/namespaces/inkscape"
   id="svg2"
   version="1.1"
   inkscape:version="0.48.5 r10040"
   width="564.37592"
   height="315.94421"
   xml:space="preserve"
   sodipodi:docname="Doc3.pdf"><metadata
     id="metadata8"><rdf:RDF><cc:Work
         rdf:about=""><dc:format>image/svg+xml</dc:format><dc:type
           rdf:resource="http://purl.org/dc/dcmitype/StillImage" /><dc:title></dc:title></cc:Work></rdf:RDF></metadata><defs
     id="defs6"><clipPath
       clipPathUnits="userSpaceOnUse"
       id="clipPath24"><path
         d="m 72,517.5 450.75,0 0,252.75 -450.75,0 0,-252.75 z"
         clip-rule="evenodd"
         id="path26"
         inkscape:connector-curvature="0" /></clipPath><clipPath
       clipPathUnits="userSpaceOnUse"
       id="clipPath36"><path
         d="m 72,517.5 450.75,0 0,252.75 -450.75,0 0,-252.75 z"
         clip-rule="evenodd"
         id="path38"
         inkscape:connector-curvature="0" /></clipPath><clipPath
       clipPathUnits="userSpaceOnUse"
       id="clipPath48"><path
         d="m 72,517.5 450.75,0 0,252.75 -450.75,0 0,-252.75 z"
         clip-rule="evenodd"
         id="path50"
         inkscape:connector-curvature="0" /></clipPath><clipPath
       clipPathUnits="userSpaceOnUse"
       id="clipPath60"><path
         d="m 72,517.5 450.75,0 0,252.75 -450.75,0 0,-252.75 z"
         clip-rule="evenodd"
         id="path62"
         inkscape:connector-curvature="0" /></clipPath><clipPath
       clipPathUnits="userSpaceOnUse"
       id="clipPath72"><path
         d="m 72,517.5 450.75,0 0,252.75 -450.75,0 0,-252.75 z"
         clip-rule="evenodd"
         id="path74"
         inkscape:connector-curvature="0" /></clipPath><clipPath
       clipPathUnits="userSpaceOnUse"
       id="clipPath84"><path
         d="m 72,517.5 450.75,0 0,252.75 -450.75,0 0,-252.75 z"
         clip-rule="evenodd"
         id="path86"
         inkscape:connector-curvature="0" /></clipPath><clipPath
       clipPathUnits="userSpaceOnUse"
       id="clipPath96"><path
         d="m 72,517.5 450.75,0 0,252.75 -450.75,0 0,-252.75 z"
         clip-rule="evenodd"
         id="path98"
         inkscape:connector-curvature="0" /></clipPath><clipPath
       clipPathUnits="userSpaceOnUse"
       id="clipPath108"><path
         d="m 72,517.5 450.75,0 0,252.75 -450.75,0 0,-252.75 z"
         clip-rule="evenodd"
         id="path110"
         inkscape:connector-curvature="0" /></clipPath><clipPath
       clipPathUnits="userSpaceOnUse"
       id="clipPath120"><path
         d="m 72,517.5 450.75,0 0,252.75 -450.75,0 0,-252.75 z"
         clip-rule="evenodd"
         id="path122"
         inkscape:connector-curvature="0" /></clipPath><clipPath
       clipPathUnits="userSpaceOnUse"
       id="clipPath132"><path
         d="m 72,517.5 450.75,0 0,252.75 -450.75,0 0,-252.75 z"
         clip-rule="evenodd"
         id="path134"
         inkscape:connector-curvature="0" /></clipPath><clipPath
       clipPathUnits="userSpaceOnUse"
       id="clipPath144"><path
         d="m 72,517.5 450.75,0 0,252.75 -450.75,0 0,-252.75 z"
         clip-rule="evenodd"
         id="path146"
         inkscape:connector-curvature="0" /></clipPath><clipPath
       clipPathUnits="userSpaceOnUse"
       id="clipPath156"><path
         d="M 4.397e-6,507.75 595.5,507.75 l 0,262.5 -595.499995603,0 0,-262.5 z"
         clip-rule="evenodd"
         id="path158"
         inkscape:connector-curvature="0" /></clipPath></defs><sodipodi:namedview
     pagecolor="#ffffff"
     bordercolor="#666666"
     borderopacity="1"
     objecttolerance="10"
     gridtolerance="10"
     guidetolerance="10"
     inkscape:pageopacity="0"
     inkscape:pageshadow="2"
     inkscape:window-width="1366"
     inkscape:window-height="721"
     id="namedview4"
     showgrid="false"
     fit-margin-top="0"
     fit-margin-left="0"
     fit-margin-right="0"
     fit-margin-bottom="0"
     inkscape:zoom="0.89664589"
     inkscape:cx="298.29274"
     inkscape:cy="69.205659"
     inkscape:window-x="-3"
     inkscape:window-y="-3"
     inkscape:window-maximized="1"
     inkscape:current-layer="g10" /><g
     id="g10"
     inkscape:groupmode="layer"
     inkscape:label="Doc3"
     transform="matrix(1.25,0,0,-1.25,-89.999531,962.8125)"><path
       d="m 72,517.5 451.5,0 0,252.75 -451.5,0 0,-252.75 z"
       style="fill:#ffffff;fill-opacity:1;fill-rule:evenodd;stroke:none"
       id="path12"
       inkscape:connector-curvature="0" /><path
       d="m 146.63,620.63 366,0 m -366,69.75 366,0 m -366,68.99 366,0"
       style="fill:none;stroke:#d9d9d9;stroke-width:0.75075001;stroke-linecap:butt;stroke-linejoin:round;stroke-miterlimit:10;stroke-opacity:1;stroke-dasharray:none"
       id="path14"
       inkscape:connector-curvature="0" /><path
       d="m 171.75,648.75 22.5,0 0,-96.75 -22.5,0 0,96.75 z m 72.75,0 23.25,0 0,-96.75 -23.25,0 0,96.75 z m 73.5,12.75 23.25,0 0,-109.5 -23.25,0 0,109.5 z m 72.75,29.25 23.25,0 0,-138.75 -23.25,0 0,138.75 z m 73.5,18.75 23.25,0 0,-157.5 -23.25,0 0,157.5 z"
       style="fill:#5b9bd5;fill-opacity:1;fill-rule:nonzero;stroke:none"
       id="path16"
       inkscape:connector-curvature="0" /><path
       d="m 146.63,551.63 366,-0.01"
       style="fill:none;stroke:#d9d9d9;stroke-width:0.75075001;stroke-linecap:butt;stroke-linejoin:round;stroke-miterlimit:10;stroke-opacity:1;stroke-dasharray:none"
       id="path18"
       inkscape:connector-curvature="0" /><g
       id="g20"><g
         id="g22"
         clip-path="url(#clipPath24)"><text
           transform="matrix(1,0,0,-1,99.825,549.15)"
           id="text28"><tspan
             style="font-size:9px;font-variant:normal;font-weight:normal;writing-mode:lr-tb;fill:#595959;fill-opacity:1;fill-rule:nonzero;stroke:none;font-family:Calibri;-inkscape-font-specification:Calibri"
             x="0 4.527 6.777 11.304 15.831 20.358 24.875999 29.393999 33.921001"
             y="0"
             sodipodi:role="line"
             id="tspan30">1,970E+06</tspan></text>
</g></g><g
       id="g32"><g
         id="g34"
         clip-path="url(#clipPath36)"><text
           transform="matrix(1,0,0,-1,99.825,618.4)"
           id="text40"><tspan
             style="font-size:9px;font-variant:normal;font-weight:normal;writing-mode:lr-tb;fill:#595959;fill-opacity:1;fill-rule:nonzero;stroke:none;font-family:Calibri;-inkscape-font-specification:Calibri"
             x="0 4.527 6.777 11.304 15.831 20.358 24.875999 29.393999 33.921001"
             y="0"
             sodipodi:role="line"
             id="tspan42">1,972E+06</tspan></text>
</g></g><g
       id="g44"><g
         id="g46"
         clip-path="url(#clipPath48)"><text
           transform="matrix(1,0,0,-1,99.825,687.65)"
           id="text52"><tspan
             style="font-size:9px;font-variant:normal;font-weight:normal;writing-mode:lr-tb;fill:#595959;fill-opacity:1;fill-rule:nonzero;stroke:none;font-family:Calibri;-inkscape-font-specification:Calibri"
             x="0 4.527 6.777 11.304 15.831 20.358 24.875999 29.393999 33.921001"
             y="0"
             sodipodi:role="line"
             id="tspan54">1,974E+06</tspan></text>
</g></g><g
       id="g56"><g
         id="g58"
         clip-path="url(#clipPath60)"><text
           transform="matrix(1,0,0,-1,99.825,756.9)"
           id="text64"><tspan
             style="font-size:9px;font-variant:normal;font-weight:normal;writing-mode:lr-tb;fill:#595959;fill-opacity:1;fill-rule:nonzero;stroke:none;font-family:Calibri;-inkscape-font-specification:Calibri"
             x="0 4.527 6.777 11.304 15.831 20.358 24.875999 29.393999 33.921001"
             y="0"
             sodipodi:role="line"
             id="tspan66">1,976E+06</tspan></text>
</g></g><g
       id="g68"><g
         id="g70"
         clip-path="url(#clipPath72)"><text
           transform="matrix(1,0,0,-1,152.67,537.45)"
           id="text76"><tspan
             style="font-size:9.02499962px;font-variant:normal;font-weight:normal;writing-mode:lr-tb;fill:#595959;fill-opacity:1;fill-rule:nonzero;stroke:none;font-family:Calibri;-inkscape-font-specification:Calibri"
             x="0 5.2525501 9.7469997 13.5014 21.741224 23.997475 25.495625 29.9991 35.242626 37.489849 41.993324 44.231525 47.254902 49.484074 51.722275 55.476673"
             y="0"
             sodipodi:role="line"
             id="tspan78">HELM, 64-bit, LU</tspan></text>
</g></g><g
       id="g80"><g
         id="g82"
         clip-path="url(#clipPath84)"><text
           transform="matrix(1,0,0,-1,223.63,537.45)"
           id="text88"><tspan
             style="font-size:9.02499962px;font-variant:normal;font-weight:normal;writing-mode:lr-tb;fill:#595959;fill-opacity:1;fill-rule:nonzero;stroke:none;font-family:Calibri;-inkscape-font-specification:Calibri"
             x="0 5.2525501 9.7469997 13.5014 21.741224 23.997475 25.495625 29.9991 35.242626 39.746101 41.993324 47.236851 48.735001 51.758373 53.987549 56.22575 59.980148"
             y="0"
             sodipodi:role="line"
             id="tspan90">HELM, 100-bit, LU</tspan></text>
</g></g><g
       id="g92"><g
         id="g94"
         clip-path="url(#clipPath96)"><text
           transform="matrix(1,0,0,-1,296.88,537.45)"
           id="text100"><tspan
             style="font-size:9.02499962px;font-variant:normal;font-weight:normal;writing-mode:lr-tb;fill:#595959;fill-opacity:1;fill-rule:nonzero;stroke:none;font-family:Calibri;-inkscape-font-specification:Calibri"
             x="0 5.2525501 9.7469997 13.5014 21.741224 23.997475 25.495625 29.9991 35.242626 39.746101 41.993324 47.236851 48.735001 51.758373 53.987549 56.22575 59.980148"
             y="0"
             sodipodi:role="line"
             id="tspan102">HELM, 200-bit, LU</tspan></text>
</g></g><g
       id="g104"><g
         id="g106"
         clip-path="url(#clipPath108)"><text
           transform="matrix(1,0,0,-1,367.85,537.45)"
           id="text112"><tspan
             style="font-size:9.02499962px;font-variant:normal;font-weight:normal;writing-mode:lr-tb;fill:#595959;fill-opacity:1;fill-rule:nonzero;stroke:none;font-family:Calibri;-inkscape-font-specification:Calibri"
             x="0 5.2525501 9.7469997 13.5014 21.741224 23.997475 25.495625 29.9991 35.242626 39.746101 44.249577 46.496799 51.740326 53.238476 56.261848 58.491024 60.729225 64.483627"
             y="0"
             sodipodi:role="line"
             id="tspan114">HELM, 1000-bit, LU</tspan></text>
</g></g><g
       id="g116"><g
         id="g118"
         clip-path="url(#clipPath120)"><text
           transform="matrix(1,0,0,-1,444.6,537.45)"
           id="text124"><tspan
             style="font-size:9.02499962px;font-variant:normal;font-weight:normal;writing-mode:lr-tb;fill:#595959;fill-opacity:1;fill-rule:nonzero;stroke:none;font-family:Calibri;-inkscape-font-specification:Calibri"
             x="0 5.2525501 9.7469997 13.5014 21.768299 24.024549 25.522699 30.026175 35.269699 39.773174 44.276649 48.780125 51.027351 56.270874 57.769024 61.5144"
             y="0"
             sodipodi:role="line"
             id="tspan126">HELM, 10000-bit,</tspan></text>
</g></g><g
       id="g128"><g
         id="g130"
         clip-path="url(#clipPath132)"><text
           transform="matrix(1,0,0,-1,471.55,526.45)"
           id="text136"><tspan
             style="font-size:9px;font-variant:normal;font-weight:normal;writing-mode:lr-tb;fill:#595959;fill-opacity:1;fill-rule:nonzero;stroke:none;font-family:Calibri;-inkscape-font-specification:Calibri"
             x="0 3.75"
             y="0"
             sodipodi:role="line"
             id="tspan138">LU</tspan></text>
</g></g><g
       id="g140"><g
         id="g142"
         clip-path="url(#clipPath144)"><text
           transform="matrix(-4.4e-8,1,1,4.4e-8,94.375,605.9)"
           id="text148"><tspan
             style="font-size:9.75px;font-variant:normal;font-weight:normal;writing-mode:lr-tb;fill:#595959;fill-opacity:1;fill-rule:nonzero;stroke:none;font-family:Calibri;-inkscape-font-specification:Calibri"
             x="0 4.49475 9.7305002 14.96625 19.461 23.9655 27.709499 32.214001 36.718498 41.95425 46.449001 50.953499 53.946751 59.182499 64.418251 68.162247 73.398003 77.902496 81.6465 83.889 86.882248 95.8815"
             y="0"
             sodipodi:role="line"
             id="tspan150">convergence border [W]</tspan></text>
</g></g><g
       id="g152"><g
         id="g154"
         clip-path="url(#clipPath156)"><path
           d="m 72.375,517.87 450.75,0 0,252 -450.75,0 0,-252 z"
           style="fill:none;stroke:#d9d9d9;stroke-width:0.75075001;stroke-linecap:butt;stroke-linejoin:round;stroke-miterlimit:10;stroke-opacity:1;stroke-dasharray:none"
           id="path160"
           inkscape:connector-curvature="0" /></g></g></g></svg>