<?xml version="1.0" encoding="UTF-8" standalone="no"?>
<!-- Created with Inkscape (http://www.inkscape.org/) -->

<svg
   xmlns:dc="http://purl.org/dc/elements/1.1/"
   xmlns:cc="http://creativecommons.org/ns#"
   xmlns:rdf="http://www.w3.org/1999/02/22-rdf-syntax-ns#"
   xmlns:svg="http://www.w3.org/2000/svg"
   xmlns="http://www.w3.org/2000/svg"
   xmlns:sodipodi="http://sodipodi.sourceforge.net/DTD/sodipodi-0.dtd"
   xmlns:inkscape="http://www.inkscape.org/namespaces/inkscape"
   id="svg2"
   version="1.1"
   inkscape:version="0.48.5 r10040"
   width="585.00092"
   height="337.50671"
   xml:space="preserve"
   sodipodi:docname="Doc2.pdf"><metadata
     id="metadata8"><rdf:RDF><cc:Work
         rdf:about=""><dc:format>image/svg+xml</dc:format><dc:type
           rdf:resource="http://purl.org/dc/dcmitype/StillImage" /><dc:title></dc:title></cc:Work></rdf:RDF></metadata><defs
     id="defs6"><clipPath
       clipPathUnits="userSpaceOnUse"
       id="clipPath24"><path
         d="m 72,450.75 468,0 0,269.25 -468,0 0,-269.25 z"
         clip-rule="evenodd"
         id="path26"
         inkscape:connector-curvature="0" /></clipPath><clipPath
       clipPathUnits="userSpaceOnUse"
       id="clipPath36"><path
         d="m 72,450.75 468,0 0,269.25 -468,0 0,-269.25 z"
         clip-rule="evenodd"
         id="path38"
         inkscape:connector-curvature="0" /></clipPath><clipPath
       clipPathUnits="userSpaceOnUse"
       id="clipPath48"><path
         d="m 72,450.75 468,0 0,269.25 -468,0 0,-269.25 z"
         clip-rule="evenodd"
         id="path50"
         inkscape:connector-curvature="0" /></clipPath><clipPath
       clipPathUnits="userSpaceOnUse"
       id="clipPath60"><path
         d="m 72,450.75 468,0 0,269.25 -468,0 0,-269.25 z"
         clip-rule="evenodd"
         id="path62"
         inkscape:connector-curvature="0" /></clipPath><clipPath
       clipPathUnits="userSpaceOnUse"
       id="clipPath72"><path
         d="m 72,450.75 468,0 0,269.25 -468,0 0,-269.25 z"
         clip-rule="evenodd"
         id="path74"
         inkscape:connector-curvature="0" /></clipPath><clipPath
       clipPathUnits="userSpaceOnUse"
       id="clipPath84"><path
         d="m 72,450.75 468,0 0,269.25 -468,0 0,-269.25 z"
         clip-rule="evenodd"
         id="path86"
         inkscape:connector-curvature="0" /></clipPath><clipPath
       clipPathUnits="userSpaceOnUse"
       id="clipPath96"><path
         d="m 72,450.75 468,0 0,269.25 -468,0 0,-269.25 z"
         clip-rule="evenodd"
         id="path98"
         inkscape:connector-curvature="0" /></clipPath><clipPath
       clipPathUnits="userSpaceOnUse"
       id="clipPath108"><path
         d="m 72,450.75 468,0 0,269.25 -468,0 0,-269.25 z"
         clip-rule="evenodd"
         id="path110"
         inkscape:connector-curvature="0" /></clipPath><clipPath
       clipPathUnits="userSpaceOnUse"
       id="clipPath120"><path
         d="m 72,450.75 468,0 0,269.25 -468,0 0,-269.25 z"
         clip-rule="evenodd"
         id="path122"
         inkscape:connector-curvature="0" /></clipPath><clipPath
       clipPathUnits="userSpaceOnUse"
       id="clipPath132"><path
         d="m 72,450.75 468,0 0,269.25 -468,0 0,-269.25 z"
         clip-rule="evenodd"
         id="path134"
         inkscape:connector-curvature="0" /></clipPath><clipPath
       clipPathUnits="userSpaceOnUse"
       id="clipPath144"><path
         d="m 72,450.75 468,0 0,269.25 -468,0 0,-269.25 z"
         clip-rule="evenodd"
         id="path146"
         inkscape:connector-curvature="0" /></clipPath><clipPath
       clipPathUnits="userSpaceOnUse"
       id="clipPath156"><path
         d="m 72,450.75 468,0 0,269.25 -468,0 0,-269.25 z"
         clip-rule="evenodd"
         id="path158"
         inkscape:connector-curvature="0" /></clipPath><clipPath
       clipPathUnits="userSpaceOnUse"
       id="clipPath168"><path
         d="m 72,450.75 468,0 0,269.25 -468,0 0,-269.25 z"
         clip-rule="evenodd"
         id="path170"
         inkscape:connector-curvature="0" /></clipPath><clipPath
       clipPathUnits="userSpaceOnUse"
       id="clipPath180"><path
         d="m 72,450.75 468,0 0,269.25 -468,0 0,-269.25 z"
         clip-rule="evenodd"
         id="path182"
         inkscape:connector-curvature="0" /></clipPath><clipPath
       clipPathUnits="userSpaceOnUse"
       id="clipPath192"><path
         d="m 72,450.75 468,0 0,269.25 -468,0 0,-269.25 z"
         clip-rule="evenodd"
         id="path194"
         inkscape:connector-curvature="0" /></clipPath><clipPath
       clipPathUnits="userSpaceOnUse"
       id="clipPath204"><path
         d="m 72,450.75 468,0 0,269.25 -468,0 0,-269.25 z"
         clip-rule="evenodd"
         id="path206"
         inkscape:connector-curvature="0" /></clipPath><clipPath
       clipPathUnits="userSpaceOnUse"
       id="clipPath216"><path
         d="m 72,450.75 468,0 0,269.25 -468,0 0,-269.25 z"
         clip-rule="evenodd"
         id="path218"
         inkscape:connector-curvature="0" /></clipPath><clipPath
       clipPathUnits="userSpaceOnUse"
       id="clipPath228"><path
         d="M 4.397e-6,441 612,441 612,720 4.397e-6,720 l 0,-279 z"
         clip-rule="evenodd"
         id="path230"
         inkscape:connector-curvature="0" /></clipPath></defs><sodipodi:namedview
     pagecolor="#ffffff"
     bordercolor="#666666"
     borderopacity="1"
     objecttolerance="10"
     gridtolerance="10"
     guidetolerance="10"
     inkscape:pageopacity="0"
     inkscape:pageshadow="2"
     inkscape:window-width="1366"
     inkscape:window-height="721"
     id="namedview4"
     showgrid="false"
     fit-margin-top="0"
     fit-margin-left="0"
     fit-margin-right="0"
     fit-margin-bottom="0"
     inkscape:zoom="1.3485026"
     inkscape:cx="269.18048"
     inkscape:cy="102.02718"
     inkscape:window-x="-3"
     inkscape:window-y="-3"
     inkscape:window-maximized="1"
     inkscape:current-layer="g10" /><g
     id="g10"
     inkscape:groupmode="layer"
     inkscape:label="Doc2"
     transform="matrix(1.25,0,0,-1.25,-89.999531,900)"><path
       d="m 72,450.75 468,0 0,269.25 -468,0 0,-269.25 z"
       style="fill:#ffffff;fill-opacity:1;fill-rule:evenodd;stroke:none"
       id="path12"
       inkscape:connector-curvature="0" /><path
       d="m 133.13,517.13 396,0 m -396,31.5 396,0 m -396,32.25 396,0 m -396,32.25 396,0 m -396,31.5 396,0 m -396,32.24 396,0 m -396,32.25 396,0"
       style="fill:none;stroke:#d9d9d9;stroke-width:0.75075001;stroke-linecap:butt;stroke-linejoin:round;stroke-miterlimit:10;stroke-opacity:1;stroke-dasharray:none"
       id="path14"
       inkscape:connector-curvature="0" /><path
       d="m 156,655.5 20.25,0 0,-170.25 -20.25,0 0,170.25 z m 66,-146.25 20.25,0 0,-24 -20.25,0 0,24 z m 66,152.25 20.25,0 0,-176.25 -20.25,0 0,176.25 z m 66,15.75 20.25,0 0,-192 -20.25,0 0,192 z m 66,6 20.25,0 0,-198 -20.25,0 0,198 z m 66,19.5 20.25,0 0,-217.5 -20.25,0 0,217.5 z"
       style="fill:#5b9bd5;fill-opacity:1;fill-rule:nonzero;stroke:none"
       id="path16"
       inkscape:connector-curvature="0" /><path
       d="m 133.13,484.87 396,0"
       style="fill:none;stroke:#d9d9d9;stroke-width:0.75075001;stroke-linecap:butt;stroke-linejoin:round;stroke-miterlimit:10;stroke-opacity:1;stroke-dasharray:none"
       id="path18"
       inkscape:connector-curvature="0" /><g
       id="g20"><g
         id="g22"
         clip-path="url(#clipPath24)"><text
           transform="matrix(1,0,0,-1,99.825,482.33)"
           id="text28"><tspan
             style="font-size:9px;font-variant:normal;font-weight:normal;writing-mode:lr-tb;fill:#595959;fill-opacity:1;fill-rule:nonzero;stroke:none;font-family:Calibri;-inkscape-font-specification:Calibri"
             x="0 4.5 6.75 11.25 15.75 20.25"
             y="0"
             sodipodi:role="line"
             id="tspan30">0,2430</tspan></text>
</g></g><g
       id="g32"><g
         id="g34"
         clip-path="url(#clipPath36)"><text
           transform="matrix(1,0,0,-1,99.825,514.38)"
           id="text40"><tspan
             style="font-size:9px;font-variant:normal;font-weight:normal;writing-mode:lr-tb;fill:#595959;fill-opacity:1;fill-rule:nonzero;stroke:none;font-family:Calibri;-inkscape-font-specification:Calibri"
             x="0 4.5 6.75 11.25 15.75 20.25"
             y="0"
             sodipodi:role="line"
             id="tspan42">0,2440</tspan></text>
</g></g><g
       id="g44"><g
         id="g46"
         clip-path="url(#clipPath48)"><text
           transform="matrix(1,0,0,-1,99.825,546.42)"
           id="text52"><tspan
             style="font-size:9.02499962px;font-variant:normal;font-weight:normal;writing-mode:lr-tb;fill:#595959;fill-opacity:1;fill-rule:nonzero;stroke:none;font-family:Calibri;-inkscape-font-specification:Calibri"
             x="0 4.5034752 6.7597251 11.254175 15.75765 20.261126"
             y="0"
             sodipodi:role="line"
             id="tspan54">0,2450</tspan></text>
</g></g><g
       id="g56"><g
         id="g58"
         clip-path="url(#clipPath60)"><text
           transform="matrix(1,0,0,-1,99.825,578.47)"
           id="text64"><tspan
             style="font-size:9.02499962px;font-variant:normal;font-weight:normal;writing-mode:lr-tb;fill:#595959;fill-opacity:1;fill-rule:nonzero;stroke:none;font-family:Calibri;-inkscape-font-specification:Calibri"
             x="0 4.5034752 6.7597251 11.254175 15.75765 20.261126"
             y="0"
             sodipodi:role="line"
             id="tspan66">0,2460</tspan></text>
</g></g><g
       id="g68"><g
         id="g70"
         clip-path="url(#clipPath72)"><text
           transform="matrix(1,0,0,-1,99.825,610.53)"
           id="text76"><tspan
             style="font-size:9.02499962px;font-variant:normal;font-weight:normal;writing-mode:lr-tb;fill:#595959;fill-opacity:1;fill-rule:nonzero;stroke:none;font-family:Calibri;-inkscape-font-specification:Calibri"
             x="0 4.5034752 6.7597251 11.254175 15.75765 20.261126"
             y="0"
             sodipodi:role="line"
             id="tspan78">0,2470</tspan></text>
</g></g><g
       id="g80"><g
         id="g82"
         clip-path="url(#clipPath84)"><text
           transform="matrix(1,0,0,-1,99.825,642.55)"
           id="text88"><tspan
             style="font-size:9px;font-variant:normal;font-weight:normal;writing-mode:lr-tb;fill:#595959;fill-opacity:1;fill-rule:nonzero;stroke:none;font-family:Calibri;-inkscape-font-specification:Calibri"
             x="0 4.5 6.75 11.25 15.75 20.25"
             y="0"
             sodipodi:role="line"
             id="tspan90">0,2480</tspan></text>
</g></g><g
       id="g92"><g
         id="g94"
         clip-path="url(#clipPath96)"><text
           transform="matrix(1,0,0,-1,99.825,674.6)"
           id="text100"><tspan
             style="font-size:9px;font-variant:normal;font-weight:normal;writing-mode:lr-tb;fill:#595959;fill-opacity:1;fill-rule:nonzero;stroke:none;font-family:Calibri;-inkscape-font-specification:Calibri"
             x="0 4.5 6.75 11.25 15.75 20.25"
             y="0"
             sodipodi:role="line"
             id="tspan102">0,2490</tspan></text>
</g></g><g
       id="g104"><g
         id="g106"
         clip-path="url(#clipPath108)"><text
           transform="matrix(1,0,0,-1,99.825,706.65)"
           id="text112"><tspan
             style="font-size:9px;font-variant:normal;font-weight:normal;writing-mode:lr-tb;fill:#595959;fill-opacity:1;fill-rule:nonzero;stroke:none;font-family:Calibri;-inkscape-font-specification:Calibri"
             x="0 4.5 6.75 11.25 15.75 20.25"
             y="0"
             sodipodi:role="line"
             id="tspan114">0,2500</tspan></text>
</g></g><g
       id="g116"><g
         id="g118"
         clip-path="url(#clipPath120)"><text
           transform="matrix(1,0,0,-1,135.33,470.6)"
           id="text124"><tspan
             style="font-size:9px;font-variant:normal;font-weight:normal;writing-mode:lr-tb;fill:#595959;fill-opacity:1;fill-rule:nonzero;stroke:none;font-family:Calibri;-inkscape-font-specification:Calibri"
             x="0 4.527 9.7919998 12.816 15.84 20.358 24.885 27.9 30.177 32.445 35.459999 39.995998 43.02 47.537998 50.553001 52.830002 57.356998"
             y="0"
             sodipodi:role="line"
             id="tspan126">Current Iteration</tspan></text>
</g></g><g
       id="g128"><g
         id="g130"
         clip-path="url(#clipPath132)"><text
           transform="matrix(1,0,0,-1,200.5,470.6)"
           id="text136"><tspan
             style="font-size:9px;font-variant:normal;font-weight:normal;writing-mode:lr-tb;fill:#595959;fill-opacity:1;fill-rule:nonzero;stroke:none;font-family:Calibri;-inkscape-font-specification:Calibri"
             x="0 6.0120001 10.53 16.551001 19.566 24.84 29.367001 32.382 36.909 41.426998 45.953999 51.219002 54.243 59.507999"
             y="0"
             sodipodi:role="line"
             id="tspan138">Newton-Raphson</tspan></text>
</g></g><g
       id="g140"><g
         id="g142"
         clip-path="url(#clipPath144)"><text
           transform="matrix(1,0,0,-1,266.92,470.6)"
           id="text148"><tspan
             style="font-size:9px;font-variant:normal;font-weight:normal;writing-mode:lr-tb;fill:#595959;fill-opacity:1;fill-rule:nonzero;stroke:none;font-family:Calibri;-inkscape-font-specification:Calibri"
             x="0 5.2470002 9.7379999 13.491 21.735001 23.238001 27.738001 32.976002 34.479 39.716999 41.958 44.973 46.458 53.199001 55.439999 58.455002"
             y="0"
             sodipodi:role="line"
             id="tspan150">HELM 64 Bit with</tspan></text>
</g></g><g
       id="g152"><g
         id="g154"
         clip-path="url(#clipPath156)"><text
           transform="matrix(1,0,0,-1,267.48,459.63)"
           id="text160"><tspan
             style="font-size:9.02499962px;font-variant:normal;font-weight:normal;writing-mode:lr-tb;fill:#595959;fill-opacity:1;fill-rule:nonzero;stroke:none;font-family:Calibri;-inkscape-font-specification:Calibri"
             x="0 4.5034752 9.7469997 12.7433 15.7396 20.234051 24.737526 27.7609 29.98105 32.255348 35.233601 39.72805 42.733376 47.227825 50.251202 52.471352 56.974827"
             y="0"
             sodipodi:role="line"
             id="tspan162">Current Iteration</tspan></text>
</g></g><g
       id="g164"><g
         id="g166"
         clip-path="url(#clipPath168)"><text
           transform="matrix(1,0,0,-1,332.98,470.6)"
           id="text172"><tspan
             style="font-size:9px;font-variant:normal;font-weight:normal;writing-mode:lr-tb;fill:#595959;fill-opacity:1;fill-rule:nonzero;stroke:none;font-family:Calibri;-inkscape-font-specification:Calibri"
             x="0 5.2740002 9.7919998 13.572 21.834 23.355 27.882 33.146999 34.667999 39.932999 42.201 45.216 46.755001 53.522999 55.791 58.806"
             y="0"
             sodipodi:role="line"
             id="tspan174">HELM 64 Bit with</tspan></text>
</g></g><g
       id="g176"><g
         id="g178"
         clip-path="url(#clipPath180)"><text
           transform="matrix(1,0,0,-1,332.65,459.63)"
           id="text184"><tspan
             style="font-size:9.02499962px;font-variant:normal;font-weight:normal;writing-mode:lr-tb;fill:#595959;fill-opacity:1;fill-rule:nonzero;stroke:none;font-family:Calibri;-inkscape-font-specification:Calibri"
             x="0 5.9926 10.48705 16.488674 19.512051 24.7285 29.231976 32.21925 36.722725 41.217175 45.72065 50.964176 53.960476 59.203999"
             y="0"
             sodipodi:role="line"
             id="tspan186">Newton-Raphson</tspan></text>
</g></g><g
       id="g188"><g
         id="g190"
         clip-path="url(#clipPath192)"><text
           transform="matrix(1,0,0,-1,405.93,470.6)"
           id="text196"><tspan
             style="font-size:9px;font-variant:normal;font-weight:normal;writing-mode:lr-tb;fill:#595959;fill-opacity:1;fill-rule:nonzero;stroke:none;font-family:Calibri;-inkscape-font-specification:Calibri"
             x="0 5.2470002 9.7379999 13.491 21.735001 23.238001 27.738001 32.976002 37.476002 38.979 44.216999 46.458"
             y="0"
             sodipodi:role="line"
             id="tspan198">HELM 200 Bit</tspan></text>
</g></g><g
       id="g200"><g
         id="g202"
         clip-path="url(#clipPath204)"><text
           transform="matrix(1,0,0,-1,469.7,470.6)"
           id="text208"><tspan
             style="font-size:9px;font-variant:normal;font-weight:normal;writing-mode:lr-tb;fill:#595959;fill-opacity:1;fill-rule:nonzero;stroke:none;font-family:Calibri;-inkscape-font-specification:Calibri"
             x="0 5.2470002 9.7379999 13.491 21.735001 23.238001 27.738001 32.976002 37.476002 41.976002 43.479 48.716999 50.958"
             y="0"
             sodipodi:role="line"
             id="tspan210">HELM 2000 Bit</tspan></text>
</g></g><g
       id="g212"><g
         id="g214"
         clip-path="url(#clipPath216)"><text
           transform="matrix(-4.4e-8,1,1,4.4e-8,94.375,585.03)"
           id="text220"><tspan
             style="font-size:9.75px;font-variant:normal;font-weight:normal;writing-mode:lr-tb;fill:#595959;fill-opacity:1;fill-rule:nonzero;stroke:none;font-family:Calibri;-inkscape-font-specification:Calibri"
             x="0 5.2357502 7.47825 10.4715 19.470751"
             y="0"
             sodipodi:role="line"
             id="tspan222">P [W]</tspan></text>
</g></g><g
       id="g224"><g
         id="g226"
         clip-path="url(#clipPath228)"><path
           d="m 72.375,450.37 467.25,0 0,269.25 -467.25,0 0,-269.25 z"
           style="fill:none;stroke:#d9d9d9;stroke-width:0.75075001;stroke-linecap:butt;stroke-linejoin:round;stroke-miterlimit:10;stroke-opacity:1;stroke-dasharray:none"
           id="path232"
           inkscape:connector-curvature="0" /></g></g></g></svg>