<?xml version="1.0" encoding="UTF-8" standalone="no"?>
<!-- Created with Inkscape (http://www.inkscape.org/) -->

<svg
   xmlns:dc="http://purl.org/dc/elements/1.1/"
   xmlns:cc="http://creativecommons.org/ns#"
   xmlns:rdf="http://www.w3.org/1999/02/22-rdf-syntax-ns#"
   xmlns:svg="http://www.w3.org/2000/svg"
   xmlns="http://www.w3.org/2000/svg"
   xmlns:sodipodi="http://sodipodi.sourceforge.net/DTD/sodipodi-0.dtd"
   xmlns:inkscape="http://www.inkscape.org/namespaces/inkscape"
   id="svg2"
   version="1.1"
   inkscape:version="0.48.4 r9939"
   width="35.430626"
   height="35.381874"
   xml:space="preserve"
   sodipodi:docname="hsa_logo.svg"><metadata
     id="metadata8"><rdf:RDF><cc:Work
         rdf:about=""><dc:format>image/svg+xml</dc:format><dc:type
           rdf:resource="http://purl.org/dc/dcmitype/StillImage" /><dc:title></dc:title></cc:Work></rdf:RDF></metadata><defs
     id="defs6"><clipPath
       clipPathUnits="userSpaceOnUse"
       id="clipPath20"><path
         d="m 0,31.181 31.181,0 L 31.181,0 0,0 0,31.181 z"
         id="path22"
         inkscape:connector-curvature="0" /></clipPath></defs><sodipodi:namedview
     pagecolor="#ffffff"
     bordercolor="#666666"
     borderopacity="1"
     objecttolerance="10"
     gridtolerance="10"
     guidetolerance="10"
     inkscape:pageopacity="0"
     inkscape:pageshadow="2"
     inkscape:window-width="1366"
     inkscape:window-height="721"
     id="namedview4"
     showgrid="false"
     inkscape:zoom="6.0549499"
     inkscape:cx="17.728438"
     inkscape:cy="17.499687"
     inkscape:window-x="-3"
     inkscape:window-y="-3"
     inkscape:window-maximized="1"
     inkscape:current-layer="g10"
     fit-margin-top="0"
     fit-margin-left="0"
     fit-margin-right="0"
     fit-margin-bottom="0" /><g
     id="g10"
     inkscape:groupmode="layer"
     inkscape:label="LS_HAT_OS_Pantone"
     transform="matrix(1.25,0,0,-1.25,-1.75975,37.370375)"><g
       id="g12"
       transform="translate(1.4082,20.2563)"><path
         d="m 0,0 0.6,0.139 0,8.901 27.144,0 0,-19.665 0.6,0 0,20.265 L 0,9.64 0,0 z"
         style="fill:#1476c6;fill-opacity:1;fill-rule:nonzero;stroke:none"
         id="path14"
         inkscape:connector-curvature="0" /></g><g
       id="g16"><g
         id="g18"
         clip-path="url(#clipPath20)"><g
           id="g24"
           transform="translate(3.7358,22.4736)"><path
             d="m 0,0 0,-14.201 c 0.681,-0.805 2.333,-0.621 3.396,0.092 l 0,13.475 C 3.037,0.142 1.095,0.759 0,0 m 18.069,2.683 -2.235,0.299 0,-19.353 2.235,0.066 4.959,2.651 0.027,8.816 -4.986,7.521 z m -20.397,-15.837 1.674,-0.268 0,10.978 -1.674,-0.424 0,-10.286 z"
             style="fill:#6b9fdb;fill-opacity:1;fill-rule:nonzero;stroke:none"
             id="path26"
             inkscape:connector-curvature="0" /></g><g
           id="g28"
           transform="translate(7.8242,7.9463)"><path
             d="m 0,0 2.236,0.064 0,14.424 L 0,14.788 0,0 z"
             style="fill:#6b9fdb;fill-opacity:1;fill-rule:nonzero;stroke:none"
             id="path30"
             inkscape:connector-curvature="0" /></g><g
           id="g32"
           transform="translate(10.7612,7.4854)"><path
             d="m 0,0 2.235,0.066 0,15.563 L 0,15.93 0,0 z"
             style="fill:#6b9fdb;fill-opacity:1;fill-rule:nonzero;stroke:none"
             id="path34"
             inkscape:connector-curvature="0" /></g><g
           id="g36"
           transform="translate(13.6973,7.0244)"><path
             d="m 0,0 2.235,0.064 0,16.707 L 0,17.071 0,0 z"
             style="fill:#6b9fdb;fill-opacity:1;fill-rule:nonzero;stroke:none"
             id="path38"
             inkscape:connector-curvature="0" /></g><g
           id="g40"
           transform="translate(16.6333,6.5635)"><path
             d="m 0,0 2.236,0.064 0,17.848 L 0,18.212 0,0 z"
             style="fill:#6b9fdb;fill-opacity:1;fill-rule:nonzero;stroke:none"
             id="path42"
             inkscape:connector-curvature="0" /></g><g
           id="g44"
           transform="translate(27.3633,8.9658)"><path
             d="m 0,0 -0.002,-0.508 -5.539,-2.89 -2.852,-0.082 0,0.546 -2.937,-0.086 0,0.547 -2.936,-0.088 0,0.549 -2.936,-0.088 0,0.549 -0.084,-0.004 -2.853,-0.082 0,0.401 c -0.635,-0.364 -1.398,-0.584 -2.103,-0.584 -0.785,0 -1.44,0.261 -1.843,0.738 l -0.142,0.168 0,0.383 -1.728,0.271 0,-7.115 28.344,0 L 2.389,0 0,0 z"
             style="fill:#9abbe6;fill-opacity:1;fill-rule:nonzero;stroke:none"
             id="path46"
             inkscape:connector-curvature="0" /></g></g></g></g></svg>