<?xml version="1.0" encoding="UTF-8" standalone="no"?>
<!-- Created with Inkscape (http://www.inkscape.org/) -->

<svg
   xmlns:dc="http://purl.org/dc/elements/1.1/"
   xmlns:cc="http://creativecommons.org/ns#"
   xmlns:rdf="http://www.w3.org/1999/02/22-rdf-syntax-ns#"
   xmlns:svg="http://www.w3.org/2000/svg"
   xmlns="http://www.w3.org/2000/svg"
   version="1.1"
   width="66.307503"
   height="35.43375"
   id="svg2"
   xml:space="preserve"><metadata
     id="metadata8"><rdf:RDF><cc:Work
         rdf:about=""><dc:format>image/svg+xml</dc:format><dc:type
           rdf:resource="http://purl.org/dc/dcmitype/StillImage" /><dc:title></dc:title></cc:Work></rdf:RDF></metadata><defs
     id="defs6" /><g
     transform="matrix(1.25,0,0,-1.25,-330.40438,598.12487)"
     id="g10"><g
       transform="translate(269.6855,473.5669)"
       id="g12"><path
         d="m 0,0 0,0 0,-22.747 4.266,0 0,22.713 6.148,0 -10e-4,-22.711 15.023,0 0,22.471 6.251,0 0,-22.461 4.503,0 0,22.461 6.323,0 -0.002,-22.461 4.503,0 0,27.001 -25.877,0 0,-22.643 -6.356,0 0,22.608 -19.474,0 L -4.693,0 0,0 z m 9.746,-23.414 0,22.713 -4.812,0 0,-22.713 -5.601,0 0,22.746 -4.695,0 0,5.568 20.811,0 0,-22.61 5.02,0 0,22.643 27.215,0 0,-28.337 -5.84,0 -10e-4,22.463 -4.985,0 0,-22.463 -5.84,0 0,22.463 -4.914,0 0,-22.473 -16.358,0 z"
         id="path14"
         style="fill:#1478c7;fill-opacity:1;fill-rule:nonzero;stroke:none" /></g></g></svg>